<?xml version="1.0" encoding="UTF-8"?>
<svg id="_レイヤー_2" data-name="レイヤー 2" xmlns="http://www.w3.org/2000/svg" viewBox="0 0 324.06 151.38">
  <defs>
    <style>
      .cls-1 {
        fill: #222;
      }
    </style>
  </defs>
  <g id="_レイヤー_1-2" data-name="レイヤー 1">
    <g>
      <g>
        <path class="cls-1" d="M237.36,146.48c-.5-1.39-.65-2.85-.84-4.29-1.67.55-8.31.55-9.99,0-.19,1.44-.34,2.9-.84,4.29-.09.3-.16.61-.18.93h12.03c-.02-.31-.09-.63-.18-.93Z"/>
        <path class="cls-1" d="M253.98,0c-38.7,0-70.08,31.27-70.08,69.84v71.61c0,3.27,2.67,5.95,5.94,5.95h11.46c-.66-.41-1.23-1-1.61-1.72-.44-.83-.76-2.35-.61-4.22-.93-.31-1.84-.74-2.77-1.35-1.45-.96-3.71-2.81-2.82-6.75.56-2.46,2.65-3.66,3.33-2.79.72.92-1.11,1.92-.87,4.08.23,2.12,1.81,3.32,3.69,3.98.03-.1.05-.2.09-.31.61-1.78,1.71-2.9,1.87-4.84.28-3.49,1.88-5.88,1.69-6.24-.25-.47-1.78-1.45-2.22-3.22-.39-1.54-.11-2.53.22-3.71-.29-1.07-.48-1.99-.52-3.05-.04-1.01.07-3.15.87-3.37.57-.16,2.41,2.2,3.39,2.71.44-.12,1.05-.19,1.68-.19s1.24.07,1.68.19c.98-.51,2.81-2.87,3.39-2.71.79.22.91,2.37.87,3.37-.04,1.07-.23,1.99-.52,3.05.34,1.18.61,2.17.22,3.71-.45,1.76-1.97,2.74-2.22,3.22-.19.37,1.41,2.75,1.69,6.24.16,1.94,1.26,3.06,1.87,4.84,1.12,3.25.71,6.1.04,7.36-.38.72-.94,1.31-1.61,1.72h9.78c.29-.23.59-.44.82-.63.24-1.11-.41-4.17-.65-5.04-.49-1.54-.44-3.75-.25-4.67-1-4-.73-6.97,2.51-9.94-.36-.81-.51-1.48-.47-2.36-1.4-2.04.03-5.07.21-6.36-.46-.9-1.3-1.13-.82-2.74.13-.46-.06-.88-.18-1.31-.52-1.71-.74-7.67,1.38-6.36,1.8.92,3.9,4.37,4.22,5.52.11.39.08.82.69,1,.73-.12,3.6-.12,4.34,0,.61-.18.58-.61.69-1,.32-1.15,2.42-4.6,4.22-5.52,2.12-1.3,1.9,4.65,1.38,6.36-.11.43-.31.85-.18,1.31.48,1.61-.36,1.83-.82,2.74.18,1.29,1.61,4.32.21,6.36.04.88-.11,1.55-.47,2.36,3.25,2.98,3.52,5.94,2.51,9.94.19.92.23,3.13-.25,4.67-.24.87-.89,3.93-.65,5.04.23.19.53.4.82.63h6.49l1.57-44.89-48.78-23.64s2.93-1.14,3.56-1.5l2.25.74c.95-.12,1.83.17,1.83.17,0,0-1.78-1.44-2.52-3.03-.83-1.76-.49-3.58-.87-3.85-.8-.55-2.09-.7-3.15-1.06-.84-.28-.17-1.71,1.51-1.45.42.06,1.93.45,1.93.45.29.1.49-1.71.28-2.36-.36-1.12-1.3-1.22-2.22-1.46-.92-.23-1.49-.52-1.83-.95-.34-.44-.6-1.33-.06-1.57.53-.24.97-1.26.97-1.26.93-1.82,2.46-1.84,2.46-1.84,0,0-.38-.22-1-1.36-.81-1.47.49-.97.49-.97.91.39,2.13.53,3.43,1.36,2.52,1.6,4.53,7.73,4.53,7.73,1.01-5.37,6.76-6.38,9.61-5.37,2.56.9,5.76,3.89,4.74,8.02-.74,3.01-2.67,3.96-3.66,4.26-.05,0-1.95.32-3.54-.44-1.19-.57-1.55-1.64-1.65-2.23-.18-.99.07-2.01.63-2.6.52-.54,1.25-.79,1.96-.66.59.11,1.06.47,1.28,1,.46,1.09-.22,1.76-.26,1.79-.18.16-.19.44-.03.62.16.18.44.19.62.03.05-.04,1.19-1.11.47-2.79-.34-.8-1.05-1.36-1.93-1.52-1-.18-2.03.16-2.75.92-.76.8-1.09,2.09-.86,3.37.23,1.28,1.01,2.33,2.14,2.87,1.02.49,2.11.6,2.91.6.12,0,.23,0,.34,0-.15.61-.55,1.58-1.59,2.98-1.99,2.67-5.49,2.7-5.49,2.7h-2.36l37.42,12.23.23-27.05-33.71-17.34,3.61-1.48,30.4,10.4.92-33.48,4.9-4.46.42,32.93,23.15-9.82c-.21,0-.42.01-.64-.02-5.34-.44-7.62-4.09-8.01-5.14-1.18-.14-3.04-.54-3.95-1.44-.24-.24-1.31-1.78.22-2.51-1.5-.67-3.53-4.59-.36-4.31-.39-.54-.76-1.24-.84-1.84-.64-4.16,3.64-5.42,4.07-5.27.48.14.13.6-.14,1.36-2.45,6.95,3.24,10.34,3.21,10.39,3.71,2,7.99.32,9.14-2.63.88-1.82,1.71-2.35,3.19-2.38,2.45-.04,2.65,2.24,3.59,2.26.33,0,1.36.21,1.4.58.03.21-.34.09-1.24.58-.91.49-1.2,1-1.43,1.39-.68,1.26-.91,3.18-1.05,3.91-.2,1.07-.87,2.21-1.88,3.15l3.76,1.71-31.33,16.59.57,23.31,45.99-19.84,3.81,2.21-49.16,28.01,2.37,55.21h7.44c-1.35-1.3-2.5-2.97-2.93-4.86-.7-3.1,1.14-7.53,3.39-8.94-1.12-4.76-1.52-10.13-.61-14.69.81-4.05,2.55-5.72,2.55-6.64,0-.8-.64-3.44-.64-4.33-.29.24-.89.66-1.44.46-.67-.25-.67-1.62-.93-3.47-.22-1.56-.66-2.37-.52-3.59.17-1.52,2.1-4.98,3.58-5.44.74-.23,1.36-.03,1.9.18.99-.86,3.36-1.64,5.64-1.64s4.65.78,5.64,1.64c.54-.21,1.15-.42,1.9-.18,1.49.46,3.41,3.93,3.58,5.44.14,1.22-.3,2.03-.52,3.59-.26,1.85-.26,3.22-.93,3.47-.55.2-1.16-.22-1.44-.46,0,.89-.64,3.53-.64,4.33,0,.92,1.74,2.59,2.55,6.64.91,4.56.52,9.92-.61,14.69,2.25,1.41,4.09,5.84,3.39,8.94-.43,1.89-1.58,3.56-2.93,4.86h11.9s.03-.08.05-.12c-1.64-.91-3.39-3.08-3.39-5.34s.72-3.94,1.74-5.17c1.08-1.31,2.04-1.58,2.24-2.29.24-.87.52-2.03,1.06-2.79-.27-.98-1.16-2.02-1.41-3.73-.25-1.73.37-4.89,1.53-5.19.99-.26,2,2.89,2.26,4.04.36,1.58.5,3.34.72,3.69.15-.04.36-.06.58-.06s.43.02.58.06c.22-.35.35-2.11.72-3.69.26-1.14,1.27-4.3,2.26-4.04,1.16.31,1.77,3.46,1.53,5.19-.24,1.71-1.14,2.75-1.41,3.73.54.77.82,1.93,1.06,2.79.2.71,1.16.99,2.24,2.29,1.02,1.23,1.74,2.82,1.74,5.17s-1.75,4.43-3.39,5.34c.01.04.03.08.05.12h6.8c3.27,0,5.94-2.68,5.94-5.95v-71.61C324.06,31.27,292.68,0,253.98,0Z"/>
      </g>
      <g>
        <g>
          <path class="cls-1" d="M101.49,18.32c-5.86-12.79-14.8-17.1-21.99-12.65-4.54,2.81-5.82,11.7-1.52,16.08,3,3.06,5.84.09,6.08-.27-.19.4-1.58,2.72.4,4.83,1.76,1.87,4.6.35,4.71.22-.07.31.18,2.85,1.75,3.68,2.15,1.14,4.13.15,4.56-.17.04.1,4.23,9.25,8.34,8.41,3.33-.68.37-14.24-2.33-20.12Z"/>
          <path class="cls-1" d="M46.01,18.32c5.86-12.79,14.8-17.1,21.99-12.65,4.54,2.81,5.82,11.7,1.52,16.08-3,3.06-5.84.09-6.08-.27.19.4,1.58,2.72-.4,4.83-1.76,1.87-4.6.35-4.71.22.07.31-.18,2.85-1.75,3.68-2.15,1.14-4.13.15-4.56-.17-.04.1-4.23,9.25-8.34,8.41-3.33-.68-.37-14.24,2.33-20.12Z"/>
          <path class="cls-1" d="M135.53,36.78c-11.18-5.01-20.57,5.87-18.28,12.35.31.88,1.45,1.73,2.21,1.15,4.43-3.3,7.47-4.07,11.05-1.92,3.39,2.04,4.85,7.98,3.6,10.38-.34.64-1.19.84-1.79.41-2.4-1.76-5.29-2.83-8.33-3.07l-21.94-1.74c-6.21-.59-11.77-3.93-15.05-9.04l-5.49-8.55-4.45-8.36c-.36-.68-.96-1.19-1.66-1.47-.62-.24-1.31.15-1.39.79l-.69,5.32c-.08.59-.54,1.06-1.15,1.16l-1.41.23c-1.37.22-2.58.97-3.36,2.07l-3,4.21c-.81,1.14-1.96,2.03-3.28,2.56l-4.08,1.62c-1.17.46-1.97,1.51-2.09,2.72l-.18,1.74c-.23,2.23,1.61,4.16,3.93,4.13l5.72-.06c1.53-.02,2.92.82,3.59,2.14l10.64,21.01c.92,1.82,1.59,3.76,1.98,5.75l3.65,18.69c.03.25-.1.49-.33.6l-.56.27c-.62.3-1.06.86-1.18,1.52-.15.82.51,1.56,1.38,1.56l3.68-.04c1.37-.01,2.52-.98,2.72-2.28h0c.96-6.11,1.48-12.38,2.4-18.44h0c.59-2.08,2.49-3.56,4.72-3.68l16.31-.87c1.67-.09,3.32.44,4.59,1.49l7.04,5.77c1.39,1.14,2.2,2.79,2.24,4.54l-.42,9.54c0,.26-.16.49-.41.57l-.18.06c-.71.24-1.25.81-1.43,1.52v.04c-.22.84.45,1.65,1.35,1.64l4.24-.04c1.28-.01,2.38-.86,2.68-2.06l.95-3.8c.25-1.85,1.51-7.57,2.97-10.82,2.89-6.46,3.69-12.7,3.69-12.7.29-3.86-2.36-8.01-3.53-10.45-.24-.51-.07-1.1.41-1.42,5.85-3.93,11.08-20.87-2.04-26.75Z"/>
          <path class="cls-1" d="M37.58,96.08l1.7,2.8c.28.3.7.43,1.1.32l9.75-2.3c.19-.05.39-.01.55.1,3.21,2.34,6.7,3.93,10.48,3.98.18,0,.33.12.38.29.34,1.18.75,2.62.91,3.17.04.15.14.36.38.36l3.14.03c.37,0,.58-.2.58-.52,0,0-.02-.52-.61-.52l-2.14-.03c-.19.02-.3-.07-.35-.22l-.65-2.32c-.05-.17.07-.34.24-.36,6.13-.75,9.16-5.37,11.24-10.77.26-.67.59-1.85.78-3.14.03-.17.16-.3.33-.32l1.76-.18c.32-.03.43-.45.15-.63l-1.85-1.21c-.15-.1-.25-.27-.27-.45-.02-.21-.05-.41-.08-.61-.42-2.28-2-4.08-4.13-4.47-2.62-.48-4.96,1.16-6.38,3.25-.66.98-1.37,2.26-2.42,2.87-1.27.73-7.41,4.36-9.99,5.9-.3.18-.32.6-.04.81.48.36,1.12.77,1.93,1.13,1.12.49,2.31.77,3.55.83,1.56.08,3.2-.2,4.87-.81,1.87-.69,3.51-2.08,4.64-3.91.15-.24.46-.31.69-.16.23.15.29.46.15.7-1.24,2.02-3.07,3.54-5.14,4.31-1.97.73-3.57.87-5.26.87-1.36,0-2.68-.37-3.91-.92-.75-.33-1.38-.71-1.88-1.06-.13-.09-.31-.09-.44,0-.4.29-.79.58-1.16.87-.18.13-.38.22-.6.24l-11.44,1.14c-.68.06-.73.71-.55.9Z"/>
          <path class="cls-1" d="M2.45,73.6s0-1.58.31-3.5c.1-.62,1.15-6.6,6.3-10.28,4.02-2.87,6.67-2.84,10.21-6.27.79-.77,2.47-2.57,3.11-5.08.14-.56.93-4.01.93-4.01-2.1,1.86-11.76,4.2-12.46,1.68-.39-3.78,8.19-6.37,9.49-6.3-3.81-.2-7.36-2.68-7.35-3.67.03-.75.28-1.16,2.59-1.47,3.51-.48,8.95,2.19,9.59,2.73.41-.36,2.52-2.21,6.45-1.42,1.48.3,5.66,1.65,7.64,4.79,1.23,1.95-.02,4.45-.12,4.61-1.05,1.89-3.13,2.11-3.72,3.32-.51,1.03-.09,1.92.63,4.01.36,1.02.57,3.33.57,3.33,1.47.16,4.1,3.05,4.36,6.09.38,4.45-2.15,4.15-2.15,4.15-2.1,0-.84-4.41-3.05-3.39-.33,1.14.58,9.19-7.28,13.75.69-.4-2.24,1.4-1.26,1.54.37.08,2.39.08,3.27,1.26.28.38.69,1.21.37,1.76-.32.8-4.87,1.01-5.88,1.04l-9.46.1c-6.5-.16-9.65-1.92-10.13-2.33-.31.08-.78.35-1.4.4-3.55.26-6.12-4.62-1.55-6.85Z"/>
          <path class="cls-1" d="M114.31,140.19c-1.35-.83-2.47-.2-4.89.49-1.99.57-12.73-.23-12.52-3.76.24-2.21,5.02-2.87,6.9-3.21,1.73-.31,2.77-.86,3.39-1.55.53-.59,1.53-2.61,1.88-3.28.36-.67-.32-1.44-1.17-2.38-.85-.93-.71-1.62-.86-3.3-.15-1.68-.88-2.04-1.84-3.15-.96-1.11-2.3-1.96-4.34-2.92.43-3.97.02-4.67.02-4.67-.11-.5-.77-1.59-1.74-.41-.45.55-2.33,2.59-3.52,3.52-5.4,1.64-6.9,5.94-9.12,7.09-3.97,3.28-8.72,1.88-8.96,1.78-3.43-1.58-4.68-4.96-7.72-8.3-1.02-1.13-4.39-6.66-10.93-8.21-3.33-.79-6.28-.47-8.76.41-5.26-2.73-14.8-5.07-21.94,1.57-3.32,3.09-5.07,6.79-5.2,11.01-.29,9.29,7.55,17.66,7.88,18.02.49.51,1.14.77,1.79.77.61,0,1.22-.22,1.7-.68.99-.94,1.03-2.5.09-3.49-.07-.07-6.76-7.21-6.53-14.47.09-2.9,1.28-5.37,3.63-7.55,4.31-4,9.66-3.3,13.32-2.05-.99.89-1.76,1.82-2.31,2.66-1.45,2.46-1.62,4.91-1.71,6.31-.25,3.71,1.14,6.69,1.99,8.65.96,2.2,1.44,3.27,2.72,5.99,1.57,3.33,1.16,6.04,1.16,6.42-.02,1.4.07,2.44.47,3.62.61,1.78,2.07,4.5,6.11,5.35,0,0,4.65,1.7,4.83.47.46-3.15-3.3-3.75-4.37-4.8-.67-.66-.92-1.69-.8-2.49.15-.99.82-1.31,1.57-2.45.45-.68.99-1.74,1.24-3.31,1.67,1.25,4.12,2.53,6.99,4.09,9.63,5.23,16.16,5.47,22.44,5.21,3.78-.16,7.03-1.47,7.74-1.29,0,0,8.93-.08,13.07-.09,0,0,4.39-.32,7.84-2.37,2.7-1.61,1.43-2.64.45-3.24Z"/>
        </g>
        <g>
          <g>
            <g>
              <path class="cls-1" d="M115.39,131.27c7.45-3.07,21.25-14.57,24.59-22.8.3-.73-.25-.99-.66-.2-4.44,8.52-17.88,18.16-24.26,21.36-1.24.62-.98,1.99.33,1.64Z"/>
              <path class="cls-1" d="M125.47,118.26c-2.85-5.19-5.72,4.05-1.6,4.01,2.15-.02,2.22-2.64,1.6-4.01Z"/>
              <path class="cls-1" d="M119.53,121.73c-3.21-5.85-6.44,4.56-1.8,4.52,2.42-.02,2.5-2.98,1.8-4.52Z"/>
              <path class="cls-1" d="M122.21,129.35c-1.12,1.93.6,3.37,1.66,3.78,1.49.58,4.27.07,4.41-1.63.1-1.25-.75-2.34-1.69-2.72-2.24-.89-3.91-.25-4.38.56Z"/>
              <path class="cls-1" d="M129.84,123.74c-3.22-.05-3.38,3.98-.19,4.23,4.89.38,4.68-4.16.19-4.23Z"/>
              <path class="cls-1" d="M130.27,115.38c-.2-.97-1.42-2.34-2.48-1.27-1.4,1.43-.51,3.19-.09,3.51,1.73,1.36,3.02-.95,2.57-2.24Z"/>
              <path class="cls-1" d="M134.18,111.83c-.2-.97-1.36-2.36-2.33-1.31-1.28,1.4-.42,3.17-.03,3.5,1.64,1.39,2.8-.9,2.36-2.19Z"/>
              <path class="cls-1" d="M138.16,114.98c-2.8.53-1.38,3.82,1.37,2.46,2.18-1.07.96-2.96-1.37-2.46Z"/>
              <path class="cls-1" d="M134.52,119.2c-3.5.3-2.15,4.37,1.4,3.07,2.8-1.02,1.53-3.4-1.4-3.07Z"/>
              <path class="cls-1" d="M135.05,108.57c-.56,3.02,3.04,2.87,2.27-.05-.42-1.59-1.8-1.81-2.27.05Z"/>
              <path class="cls-1" d="M139.75,112.72c.83,1.17,3.43-.22,3.2-1.4-.36-1.92-4.41-.29-3.2,1.4Z"/>
            </g>
            <path class="cls-1" d="M60.77,73.98c0-3.72-3.77-16.11-7.83-16.11s-7.85,12.39-7.85,16.11c0,3.29,2.97,5.86,6.46,6.41-.03,1.26-.05,2.6-.08,4.04,0,0-.02.39.37.39l2.1-.02c.46,0,.44-.39.44-.39,0,0-.07-1.62-.17-4,3.54-.51,6.55-3.1,6.55-6.43ZM57.74,74.48l-4.29,1.98v2.01c0,.26-.21.48-.48.48s-.48-.21-.48-.48v-2.02l-4.3-2.11c-.24-.12-.33-.4-.22-.64.12-.24.4-.33.64-.22l3.88,1.91v-2.68l-3.51-1.69c-.24-.11-.34-.4-.22-.64.12-.24.4-.34.64-.22l3.1,1.49v-2.61l-2.58-1.2c-.24-.11-.34-.4-.23-.64.11-.24.39-.34.64-.23l2.18,1.02v-3.44c0-.26.21-.48.48-.48s.48.21.48.48v3.46l2.19-.96c.24-.1.52,0,.63.25.11.24,0,.52-.25.63l-2.57,1.12v2.62l3.11-1.41c.24-.11.52,0,.63.24.11.24,0,.52-.24.63l-3.5,1.58v2.69l3.89-1.79c.24-.11.52,0,.63.23.11.24,0,.52-.23.63Z"/>
            <g>
              <path class="cls-1" d="M107.56,92.6c-2.13,3.33-4.24,6.66-5.84,10.29-.24.54-.33,1.08-.64,1.59-.07.12-.27.23-.4.23h-5.51c-.34,0-.32-.22-.24-.43.3-.74.58-1.57.94-2.28,1.85-3.61,4.27-6.73,7.77-8.89,1.06-.66,3.63-2.01,4.12-1.76.49.35-.09,1.07-.21,1.26Z"/>
              <path class="cls-1" d="M114.85,93.49c-1.97,3.08-3.92,6.17-5.4,9.53-.22.5-.3,1-.59,1.47-.07.11-.25.21-.37.21h-5.09c-.31,0-.3-.21-.22-.4.28-.68.54-1.45.87-2.11,1.71-3.34,3.94-6.23,7.18-8.23.98-.61,3.35-1.86,3.81-1.63.45.32-.08.99-.19,1.17Z"/>
              <path class="cls-1" d="M121.34,94.68c-1.76,2.75-3.5,5.51-4.82,8.51-.2.45-.27.89-.53,1.31-.06.1-.22.19-.33.19h-4.55c-.28,0-.27-.18-.2-.36.25-.61.48-1.3.78-1.88,1.53-2.98,3.52-5.57,6.42-7.36.88-.54,3-1.66,3.4-1.46.41.29-.07.89-.17,1.04Z"/>
            </g>
            <path class="cls-1" d="M119.58,26.99c.04-.31.01-.62-.07-.91,2.26-.39,6.37-1.37,5.36-3.31-1.01-1.93-4.15.84-5.77,2.47-.18-.24-.41-.45-.68-.61,1.32-1.89,3.46-5.44,1.39-6.09-2.06-.64-2.32,3.45-2.31,5.76-.29-.04-.58-.02-.86.04-.35-2.29-1.25-6.25-3.18-5.3-1.92.95.64,4.04,2.25,5.72-.25.19-.46.42-.63.7-1.88-1.36-5.28-3.47-5.96-1.45-.68,2.02,3.3,2.39,5.63,2.43-.04.32,0,.64.08.94-2.29.37-6.2,1.3-5.24,3.21.96,1.92,4.06-.69,5.72-2.31.2.23.44.43.73.58-1.35,1.88-3.5,5.36-1.45,6.03,2.06.67,2.38-3.46,2.39-5.76.31.02.62-.01.91-.1.37,2.27,1.33,6.34,3.27,5.35,1.95-1-.83-4.18-2.44-5.8.23-.19.43-.43.58-.7,1.86,1.33,5.47,3.56,6.13,1.47.67-2.09-3.56-2.36-5.85-2.35ZM118.35,27.07c-.2.65-.9,1.02-1.55.82-.65-.2-1.02-.9-.82-1.55.2-.65.9-1.02,1.55-.82.65.2,1.02.9.82,1.55Z"/>
          </g>
          <path class="cls-1" d="M11.75,98.25c-.15-.12-.3-.25-.43-.39-.76-.86-1.08-2-1.22-2.94-.22.16-.5.26-.84.31.16.96.51,2.05,1.21,2.97.48.1.91.27,1.32.47-.02-.13-.04-.27-.05-.41Z"/>
          <path class="cls-1" d="M18.64,105.71s-.56-.12-.81-.19c-.71.26-1.91.56-3.7.56-.52,0-1.09-.03-1.71-.09-1.97-.19-3.19-.86-3.95-1.54-1.17,1.05-1.89,2.34-1.94,3.61l5.41-.53-4.64,2.84c1.37,1.67,4.31,2.26,7.26,1.28,3.03-1.01,5.07-3.29,5.06-5.5,0,0-.61-.18-.99-.45Z"/>
        </g>
        <g>
          <g>
            <path class="cls-1" d="M145.33,103.26c-.23-.44-.5-.82-.81-1.13.42-.07.87-.21,1.31-.44,1.41-.72,2.2-1.98,1.77-2.82-.43-.84-1.92-.93-3.33-.21-.43.22-.81.5-1.11.8-.07-.42-.21-.86-.43-1.3-.71-1.41-1.97-2.21-2.81-1.79-.84.43-.94,1.91-.23,3.33.22.44.5.83.8,1.13-.42.07-.87.21-1.32.44-1.41.72-2.21,1.98-1.78,2.82.43.84,1.92.94,3.33.22.44-.22.83-.5,1.13-.81.07.42.21.87.44,1.31.72,1.41,1.98,2.21,2.82,1.78.84-.43.94-1.92.22-3.33Z"/>
            <polygon class="cls-1" points="45.87 44.65 47.49 47.94 51.11 48.47 48.48 51.03 49.1 54.64 45.86 52.93 42.61 54.64 43.23 51.02 40.61 48.46 44.24 47.94 45.87 44.65"/>
            <polygon class="cls-1" points="80.67 108.64 82.28 111.93 85.91 112.46 83.28 115.01 83.9 118.63 80.65 116.92 77.41 118.62 78.03 115.01 75.41 112.44 79.04 111.92 80.67 108.64"/>
            <path class="cls-1" d="M40.59,24.27c-.26-.27-.62-.42-.99-.42h-.01c-.66,0-1.22.46-1.37,1.09l-4.09-.03,2.91-2.89c.55.35,1.28.28,1.75-.19.55-.55.55-1.44,0-1.99-.55-.55-1.44-.55-1.99,0-.47.47-.55,1.2-.2,1.75l-2.91,2.89v-4.1c.64-.14,1.1-.71,1.1-1.37,0-.78-.63-1.41-1.41-1.41s-1.41.63-1.41,1.41c0,.66.46,1.23,1.1,1.37v4.06l-2.8-2.95c.36-.54.31-1.27-.15-1.75-.26-.27-.61-.43-.99-.44-.39-.02-.73.13-1.01.39-.27.26-.43.61-.44.98,0,.38.13.73.39,1.01.46.48,1.18.57,1.74.24l2.82,2.97-4.1-.09c-.13-.64-.69-1.11-1.35-1.13-.01,0-.02,0-.03,0-.76,0-1.39.61-1.41,1.38,0,.38.13.73.39,1s.61.43.99.43c.66,0,1.24-.44,1.4-1.07l4.09.09-2.95,2.85c-.55-.36-1.27-.3-1.75.16-.27.26-.42.61-.43.99s.13.73.39,1c.26.27.61.42.99.43.37,0,.73-.13,1-.39.48-.46.56-1.19.23-1.74l2.95-2.84-.06,4.1c-.64.13-1.11.69-1.12,1.36,0,.38.14.73.4,1,.26.27.61.42.99.43h.02c.37,0,.72-.14.98-.4.27-.26.42-.61.43-.99,0-.66-.45-1.24-1.08-1.39l.06-4.09,2.87,2.93c-.35.55-.29,1.28.18,1.75.26.27.62.42.99.42h.02c.37,0,.72-.14.98-.4.27-.26.42-.62.42-.99s-.14-.73-.4-1c-.46-.47-1.19-.56-1.75-.21l-2.86-2.93,4.1.03c.14.64.7,1.1,1.37,1.11h.01c.37,0,.72-.14.99-.41.27-.26.42-.62.42-.99,0-.38-.14-.73-.4-1Z"/>
            <g>
              <path class="cls-1" d="M110.99,43.8c-.43.18-.8.42-1.1.69-.04-.4-.15-.83-.33-1.26-.59-1.36-1.73-2.18-2.54-1.83-.81.35-.99,1.74-.4,3.11.18.42.42.79.68,1.09-.4.04-.82.14-1.24.33-1.37.58-2.19,1.72-1.84,2.53.35.81,1.74,1,3.1.41.43-.18.8-.42,1.11-.68.04.4.15.83.33,1.26.59,1.37,1.72,2.19,2.53,1.84.81-.35,1-1.74.41-3.1-.18-.43-.42-.8-.69-1.11.4-.04.83-.15,1.26-.33,1.36-.59,2.19-1.73,1.84-2.54-.35-.81-1.74-.99-3.11-.4Z"/>
              <path class="cls-1" d="M100.67,44.33c-.34-.11-.68-.15-.99-.15.18-.25.33-.56.43-.9.34-1.1.08-2.15-.57-2.35-.65-.2-1.45.53-1.79,1.62-.1.34-.15.67-.15.98-.25-.18-.55-.33-.89-.43-1.09-.34-2.15-.09-2.35.56-.2.65.52,1.46,1.61,1.8.34.11.68.16.99.15-.18.25-.33.56-.44.9-.34,1.09-.09,2.15.56,2.35.65.2,1.45-.52,1.79-1.62.11-.34.15-.68.15-.99.25.18.56.33.9.44,1.1.34,2.15.08,2.35-.57.2-.65-.52-1.45-1.62-1.79Z"/>
            </g>
          </g>
          <g>
            <path class="cls-1" d="M8.89,90.01c.13.16.24.32.35.47.45-.89,1.08-1.75,1.5-2.27-.37-.74-1.02-1.97-1.62-2.72-.14.2-.34.52-.55.89.51,1.65.36,3.33.32,3.62Z"/>
            <path class="cls-1" d="M8.4,89.42c.03-.79-.02-2.24-.56-3.49-.29.33-.76,1.02-.99,2.13.57.36,1.1.85,1.55,1.36Z"/>
            <path class="cls-1" d="M11.24,88.43c-.43.53-1.21,1.57-1.66,2.56.19.3.31.51.34.55.08.14,1.18,1.96.52,3.01.16-.04.35-.12.54-.29.48-.43,1.45-1.83.26-5.84Z"/>
            <path class="cls-1" d="M9.47,91.82s0,0,0-.01c-.01-.03-1.33-2.37-2.95-3.34-.2.99-.67,3.94.37,5.41.35.5.83.77,1.47.83.85.08,1.41-.06,1.64-.42.41-.66-.24-2.01-.53-2.47Z"/>
            <path class="cls-1" d="M15.83,98.48c.07-.09.18-.12.29-.08.22.08.43.17.64.26,0-.49-.05-1.01-.22-1.52-.43-1.26-1.45-2.25-3.05-2.94-.41.65-1.78,3.04-1.02,4.95.33.84,1.03,1.49,2.09,1.95.32-1.4,1.22-2.55,1.28-2.62Z"/>
            <path class="cls-1" d="M26.38,94.48c-.88.1-4.05.61-5.33,2.63-.44.7-.61,1.53-.52,2.46,1.8-.81,4.01-.47,4.13-.45.08.01.14.07.17.14.24-.22.47-.47.67-.74.8-1.1,1.09-2.46.87-4.03Z"/>
            <path class="cls-1" d="M24.89,99.58c.05,1.39-.23,2.55-.83,3.47,1.07-.12,2.32-.17,3.58.02,1.4-.73,2.34-1.94,2.8-3.63-.81-.2-3.51-.75-5.55.14Z"/>
            <path class="cls-1" d="M29.17,103.94c-1.88-.63-3.98-.54-5.56-.31-.05.06-.1.12-.16.18-1.45,1.43-3.55,1.58-4.36,1.58-.03,0-.04,0-.06,0l-.05.03c.7.35,2.44,1.01,5.46.9,3.3-.12,4.42-1.76,4.73-2.38Z"/>
            <path class="cls-1" d="M19.16,100.59s.05-.07.08-.1c.24-.26.52-.48.82-.66-.16-1.13.02-2.13.56-2.98.17-.27.38-.51.6-.74-.26-1.52-1.19-2.84-2.76-3.95-.41.47-1.58,1.92-2.09,3.61.27.38.49.78.64,1.22.22.66.27,1.31.24,1.92.85.46,1.49,1.02,1.91,1.68Z"/>
            <path class="cls-1" d="M24.38,99.6c-.76-.08-3.41-.24-4.77,1.23-.07.07-.13.16-.19.24.05.12.11.24.15.37.44,1.34.05,2.65-.3,3.43.84-.03,2.61-.23,3.82-1.42.91-.9,1.34-2.19,1.29-3.84Z"/>
            <path class="cls-1" d="M14.63,103.15s0,0,0,0c-1.55-.43-4.29-.97-6.74-.31.27.63,1.3,2.33,4.58,2.65,2.08.2,3.56,0,4.52-.25-1.22-.48-2.01-1.17-2.35-2.09Z"/>
            <path class="cls-1" d="M14.45,101.78c-.05-.08-.09-.15-.15-.23-1.16-.52-1.94-1.25-2.32-2.21,0-.01,0-.03-.01-.04-1.3-.76-2.77-.92-4.39-.47.17.56.66,2,1.56,3.26,2.02-.23,4.01.13,5.34.48-.04-.26-.05-.53-.03-.79Z"/>
            <path class="cls-1" d="M16.12,98.95c-.38.54-1.6,2.45-1.01,4.03.4,1.07,1.56,1.81,3.45,2.2.27-.48,1.04-2.05.54-3.58-.38-1.14-1.38-2.03-2.98-2.65Z"/>
          </g>
        </g>
      </g>
    </g>
  </g>
</svg>