<?xml version="1.0" encoding="UTF-8"?>
<svg id="_レイヤー_2" data-name="レイヤー 2" xmlns="http://www.w3.org/2000/svg" viewBox="0 0 597.29 228.99">
  <defs>
    <style>
      .cls-1 {
        fill: #222;
      }
    </style>
  </defs>
  <g id="_レイヤー_1-2" data-name="レイヤー 1">
    <g>
      <g>
        <g>
          <path class="cls-1" d="M447.77,118.31c-.4-1.13-.53-2.3-.68-3.46-1.35.44-6.71.44-8.06,0-.15,1.16-.28,2.34-.68,3.46-.07.24-.13.49-.15.75h9.71c-.02-.25-.08-.51-.15-.75Z"/>
          <path class="cls-1" d="M461.19,0c-31.26,0-56.6,25.25-56.6,56.41v57.84c0,2.64,2.16,4.81,4.8,4.81h9.26c-.54-.33-.99-.81-1.3-1.39-.36-.67-.61-1.9-.49-3.41-.75-.25-1.49-.6-2.23-1.09-1.17-.78-3-2.27-2.28-5.45.45-1.98,2.14-2.95,2.69-2.25.58.74-.89,1.55-.71,3.3.18,1.71,1.47,2.68,2.98,3.21.03-.08.04-.16.07-.25.49-1.44,1.38-2.34,1.51-3.91.23-2.82,1.52-4.75,1.36-5.04-.2-.38-1.44-1.17-1.79-2.6-.31-1.24-.09-2.04.18-3-.23-.86-.39-1.6-.42-2.47-.03-.81.06-2.55.7-2.72.46-.13,1.94,1.78,2.74,2.19.36-.09.84-.15,1.36-.15s1,.06,1.36.15c.79-.41,2.27-2.32,2.74-2.19.64.18.73,1.91.7,2.72-.04.86-.19,1.61-.42,2.47.27.95.5,1.75.18,3-.36,1.42-1.59,2.22-1.79,2.6-.15.3,1.14,2.22,1.36,5.04.13,1.57,1.02,2.47,1.51,3.91.9,2.63.57,4.93.03,5.95-.31.58-.76,1.06-1.3,1.39h7.9c.24-.18.47-.35.66-.51.19-.9-.33-3.37-.52-4.07-.39-1.24-.35-3.03-.2-3.77-.81-3.23-.59-5.63,2.03-8.03-.29-.66-.42-1.19-.38-1.91-1.13-1.65.02-4.1.17-5.14-.38-.73-1.05-.91-.66-2.21.11-.37-.05-.71-.14-1.06-.42-1.38-.59-6.19,1.12-5.14,1.45.74,3.15,3.53,3.41,4.46.09.32.07.66.56.81.59-.1,2.91-.1,3.5,0,.49-.15.47-.49.56-.81.26-.93,1.95-3.72,3.41-4.46,1.71-1.05,1.53,3.76,1.12,5.14-.09.35-.25.69-.14,1.06.39,1.3-.29,1.48-.66,2.21.15,1.04,1.3,3.49.17,5.14.03.71-.09,1.25-.38,1.91,2.62,2.4,2.84,4.8,2.03,8.03.15.74.19,2.53-.2,3.77-.19.71-.72,3.17-.52,4.07.19.16.43.33.66.51h5.24l1.27-36.25-39.4-19.09s2.36-.92,2.88-1.21l1.82.59c.77-.1,1.48.14,1.48.14,0,0-1.44-1.16-2.04-2.44-.67-1.42-.4-2.89-.7-3.11-.65-.45-1.69-.57-2.54-.85-.68-.23-.14-1.38,1.22-1.17.34.05,1.56.36,1.56.36.24.08.4-1.38.23-1.9-.29-.9-1.05-.99-1.79-1.18-.74-.19-1.2-.42-1.48-.77-.27-.35-.48-1.07-.05-1.27.43-.2.78-1.02.78-1.02.75-1.47,1.99-1.49,1.99-1.49,0,0-.3-.18-.81-1.1-.65-1.19.39-.78.39-.78.73.31,1.72.43,2.77,1.1,2.04,1.29,3.66,6.24,3.66,6.24.81-4.33,5.46-5.15,7.76-4.34,2.07.73,4.65,3.14,3.83,6.48-.6,2.43-2.15,3.2-2.96,3.44-.04,0-1.58.26-2.86-.36-.96-.46-1.25-1.33-1.34-1.8-.15-.8.05-1.62.51-2.1.42-.44,1.01-.64,1.58-.54.48.09.85.38,1.03.8.37.88-.18,1.42-.21,1.45-.14.13-.15.36-.02.5.13.15.36.16.5.02.04-.04.96-.89.38-2.25-.28-.65-.85-1.1-1.56-1.23-.81-.15-1.64.13-2.22.75-.62.65-.88,1.69-.69,2.72.19,1.04.82,1.88,1.73,2.32.82.39,1.7.49,2.35.49.1,0,.19,0,.28,0-.12.49-.44,1.27-1.28,2.4-1.61,2.16-4.43,2.18-4.43,2.18h-1.9l30.22,9.88.19-21.85-27.23-14,2.92-1.19,24.55,8.4.75-27.04,3.96-3.6.34,26.6,18.7-7.93c-.17,0-.34,0-.52-.01-4.31-.36-6.15-3.3-6.47-4.15-.95-.11-2.46-.44-3.19-1.16-.2-.19-1.05-1.44.17-2.03-1.21-.54-2.85-3.7-.29-3.48-.32-.44-.62-1-.68-1.49-.51-3.36,2.94-4.38,3.29-4.26.39.11.1.48-.12,1.1-1.98,5.61,2.61,8.35,2.6,8.39,3,1.61,6.46.26,7.38-2.12.71-1.47,1.38-1.9,2.58-1.92,1.98-.04,2.14,1.81,2.9,1.82.26,0,1.1.17,1.13.47.02.17-.27.07-1,.47-.73.4-.97.81-1.16,1.12-.55,1.02-.74,2.57-.85,3.16-.16.86-.71,1.78-1.52,2.54l3.03,1.38-25.31,13.4.46,18.83,37.14-16.02,3.08,1.78-39.7,22.62,1.91,44.59h6.01c-1.09-1.05-2.02-2.4-2.36-3.93-.57-2.5.92-6.08,2.73-7.22-.91-3.85-1.23-8.18-.49-11.86.65-3.27,2.06-4.62,2.06-5.36,0-.65-.51-2.78-.51-3.5-.23.19-.72.54-1.17.37-.54-.2-.54-1.31-.75-2.8-.18-1.26-.53-1.92-.42-2.9.14-1.23,1.69-4.02,2.89-4.4.6-.19,1.1-.02,1.53.15.8-.69,2.72-1.32,4.55-1.32s3.76.63,4.55,1.32c.43-.17.93-.34,1.53-.15,1.2.37,2.75,3.17,2.89,4.4.11.98-.25,1.64-.42,2.9-.21,1.49-.21,2.6-.75,2.8-.44.16-.93-.18-1.17-.37,0,.72-.51,2.85-.51,3.5,0,.74,1.4,2.09,2.06,5.36.74,3.68.42,8.01-.49,11.86,1.82,1.14,3.3,4.72,2.73,7.22-.35,1.53-1.27,2.87-2.36,3.93h9.62s.03-.07.04-.1c-1.33-.73-2.74-2.49-2.74-4.31s.58-3.18,1.41-4.18c.87-1.06,1.65-1.28,1.81-1.85.2-.7.42-1.64.86-2.25-.21-.79-.94-1.63-1.13-3.01-.2-1.4.3-3.95,1.23-4.19.8-.21,1.61,2.34,1.83,3.26.29,1.27.4,2.7.58,2.98.12-.03.29-.05.47-.05s.34.02.47.05c.17-.28.28-1.71.58-2.98.21-.92,1.03-3.47,1.83-3.26.94.25,1.43,2.8,1.23,4.19-.2,1.38-.92,2.22-1.13,3.01.43.62.66,1.55.86,2.25.16.57.94.8,1.81,1.85.83,1,1.41,2.28,1.41,4.18s-1.41,3.58-2.74,4.31c.01.03.03.07.04.1h5.49c2.64,0,4.8-2.16,4.8-4.81v-57.84c0-31.15-25.34-56.41-56.6-56.41Z"/>
        </g>
        <g>
          <path class="cls-1" d="M344.07,166.03c1.47-.04,2.81-.08,3.57-.13.55-.04,1.13-.13,1.43-.25.38-.21.67-.42,1.18-.42.59,0,1.97.67,2.9,1.3.55.34.8.76.8,1.13,0,.59-.5,1.01-1.09,1.01-.76,0-1.89-.21-2.77-.34-1.68-.21-3.4-.29-5.08-.34-3.02-.04-6.05.08-9.03.29-3.23.21-6.38.67-9.49,1.09-.71.08-1.09.29-1.3.42-.42.21-.88.25-1.09.25-.59,0-1.6-.63-2.73-1.93-.67-.76-.92-1.55-.92-2.14,0-.25.21-.5.34-.5.17,0,.34.08.55.29.92,1.01,1.97,1.47,3.02,1.51.76.04,1.64-.04,2.65-.13,2.44-.25,5.21-.5,8.95-.84.08-1.97.13-4.12.17-6.34.04-1.64.04-3.15.04-4.41,0-.55-.13-.84-.42-1.22-.21-.25-.5-.55-.92-.88-.67.04-1.51.13-3.23.25-.76.04-1.3.08-2.1.08-1.01,0-1.68-.34-2.6-1.26-.76-.76-1.13-1.39-1.13-1.72,0-.29.25-.46.46-.46s.46.08.59.21c1.05.92,2.44,1.39,3.91,1.39.8,0,2.9-.17,5.29-.46,2.9-.34,5.21-.76,6.64-1.09.71-.17,1.34-.42,1.55-.55.5-.25.76-.38,1.3-.38.97,0,1.81.29,2.77.84.38.21.59.63.59.92,0,.46-.38.8-.84.88-.71.13-1.47.17-2.23.21-2.9.25-5.75.59-8.44.88.55.25.92.55,1.26.8.25.21.5.59.5.92s-.08.59-.21.84c-.04.13-.17.42-.21,1.13-.17,3.74-.25,5.67-.42,9.33,2.06-.13,3.95-.17,5.84-.21Z"/>
          <path class="cls-1" d="M362.68,149.14c0-.25.21-.46.46-.46s.55.04.71.08c1.43.29,3.19,1.09,4.62,2.18,1.18.92,2.14,2.06,2.14,3.49,0,1.01-.59,1.6-1.34,1.6-.8.04-1.13-.34-1.6-1.22-1.05-1.97-2.73-3.95-4.62-5.12-.21-.13-.38-.29-.38-.55ZM368.35,168.25c3.53-2.14,7.39-5.17,10.96-8.44,3.44-3.15,6.76-6.8,9.41-10.25.21-.25.42-.38.59-.38.25,0,.63.21.63.46,0,.21-.08.46-.25.76-2.65,4.37-5.71,7.9-9.07,11.22-3.23,3.23-6.85,6.17-10.75,9.12-.46.34-.88.71-1.05,1.13-.25.5-.55.71-1.09.71-.67,0-1.64-.55-2.73-1.6-1.01-1.01-1.72-2.06-1.72-2.77,0-.46.17-.84.38-.84s.38.17.55.34c1.01.88,1.55,1.34,2.27,1.34.42,0,.97-.25,1.89-.8Z"/>
          <path class="cls-1" d="M396.15,155.78c0-.25.17-.42.63-.42,1.13,0,2.81.46,3.95.97,1.81.8,2.98,1.76,2.98,2.98s-.67,1.68-1.47,1.68c-.55,0-1.13-.5-1.64-1.22-1.09-1.47-2.31-2.48-4.03-3.4-.25-.13-.42-.34-.42-.59ZM403.79,169.73c4.41-2.35,8.4-5.04,12.35-8.11,3.15-2.48,6.05-5.04,8.74-7.86.42-.46.71-.8.88-.8.25,0,.63.25.63.55,0,.17-.04.29-.46.88-2.23,3.19-5.29,6.13-8.82,9.16-3.91,3.32-7.94,6.13-12.1,8.74-.42.25-.67.55-.84.8-.21.34-.71.84-1.26.84-.67,0-1.6-.71-2.48-1.64-.84-.88-1.6-2.02-1.6-3.15,0-.59.08-1.09.42-1.09.25,0,.46.21.71.63.42.67,1.47,1.68,2.1,1.68.38,0,.71-.08,1.72-.63ZM401.4,147.21c0-.25.17-.42.63-.42.97,0,2.9.67,4.07,1.34,1.72.97,2.52,1.85,2.52,3.02,0,1.01-.76,1.6-1.51,1.6-.59,0-1.01-.46-1.3-.88-1.05-1.64-2.35-2.94-4.08-4.16-.17-.13-.34-.25-.34-.5ZM420.72,144.1c1.3.46,2.35,1.05,3.11,1.68.88.71,1.81,1.81,1.81,2.73,0,.76-.42,1.22-1.05,1.22-.59,0-.84-.34-1.39-1.39-.5-.97-1.85-2.48-3.11-3.4-.17-.13-.25-.29-.25-.42,0-.25.21-.46.46-.46.13,0,.29,0,.42.04ZM424.5,141.58c.97.25,2.18.84,2.98,1.39.97.67,1.89,1.72,1.89,2.69,0,.71-.5,1.13-.97,1.13-.5,0-.8-.17-1.39-1.13-.67-1.18-2.06-2.52-3.44-3.36-.13-.08-.17-.29-.17-.42,0-.21.17-.42.42-.42.13,0,.38.04.67.13Z"/>
          <path class="cls-1" d="M450.29,169.31c1.13,0,1.97-.04,2.65-.08.42-.04.76-.13,1.01-.25.29-.13.63-.29,1.05-.29.67,0,1.68.5,2.23.88.59.38.84.63.84,1.3,0,.42-.46.67-.97.67-.8,0-1.43-.13-2.14-.25-1.3-.17-3.32-.29-5.12-.29-1.97,0-3.91.04-5.88.17-2.52.17-4.7.5-6.8.8-.59.08-1.01.21-1.26.38-.29.21-.67.34-1.05.34-.55,0-1.22-.42-2.14-1.26-.8-.76-1.09-1.47-1.09-2.18,0-.29.25-.5.38-.5s.29.13.5.38c.59.63,1.43,1.18,2.27,1.18.29,0,.92-.04,2.14-.17,1.89-.21,4.24-.42,6.97-.63.08-2.52.17-5.04.17-7.52,0-.88-.08-1.34-.34-1.72-.17-.25-.38-.38-.71-.55-2.27.17-3.32.21-4.03.21-.8,0-1.26-.21-1.97-.92-.59-.59-1.09-1.26-1.09-1.55,0-.21.21-.42.46-.42.21,0,.38.13.55.29.71.67,1.55.97,2.65.97s2.56-.08,4.41-.29c2.27-.25,3.99-.5,5.12-.8.55-.13,1.05-.34,1.22-.42.38-.17.67-.34,1.13-.34.71,0,1.55.25,2.1.55.5.25.63.55.63,1.01,0,.55-.29.71-.92.76s-1.09.04-2.1.13c-1.76.17-4.07.42-6.01.63.42.17.67.34.92.55.21.17.55.5.55.8,0,.25-.04.5-.17.67-.08.08-.17.29-.21.88-.17,2.56-.21,4.37-.34,7.02,1.47-.04,2.9-.08,4.41-.08Z"/>
          <path class="cls-1" d="M474.61,153.68c-.46-.38-1.01-.71-1.43-.88-.38-.17-.55-.25-.55-.5,0-.29.42-.63.97-.63,1.09,0,2.35.63,3.36,1.3.76.5,1.64,1.3,1.64,2.14,0,.34-.13.59-.5.92-.46.38-.59.88-.76,1.51-.84,2.94-2.27,5.71-4.08,8.28-1.89,2.6-3.99,4.66-6.76,6.51-.21.13-.42.25-.67.25-.21,0-.5-.13-.5-.34s0-.34.29-.59c2.6-2.27,4.24-4.37,5.76-6.81,1.72-2.86,2.81-5.5,3.32-7.52.25-1.01.42-1.81.42-2.39,0-.67-.17-.97-.5-1.26ZM482.29,150.4c-.25-.63-.92-1.01-2.06-1.47-.21-.08-.38-.17-.38-.38,0-.34.55-.76,1.26-.76.67,0,1.68.34,3.02,1.13.92.55,1.6,1.09,1.6,1.81,0,.38-.21.71-.46.97-.25.29-.38.92-.38,1.51-.13,4.07-.25,8.32-.25,13.11,0,.21.04.34.21.34.13,0,.25-.04.55-.17,5.25-2.27,10.54-5.75,14.95-9.41.21-.17.34-.29.55-.29s.55.21.55.5c0,.13-.08.34-.21.46-3.95,4.58-9.33,8.19-14.66,11.3-.46.25-.67.55-.88.88-.17.29-.42.55-.84.55-.5,0-1.26-.71-1.72-1.22-.55-.63-1.01-1.22-1.01-1.81,0-.21.13-.46.21-.67.08-.25.17-.55.17-1.13.04-4.12.04-8.99.04-12.6,0-1.39,0-1.97-.25-2.65Z"/>
          <path class="cls-1" d="M509.47,159.52c1.81-1.39,4.07-3.19,6.3-4.87.5-.38,1.26-.71,1.81-.71.76,0,1.47.29,2.56.92,6.01,3.57,11.43,6.51,17.39,9.33.67.29,1.18.59,1.47.8.55.46.67.88.67,1.26,0,.88-.63,1.51-1.34,1.51-.97,0-1.6-.29-2.27-.67-5.33-3.07-10.54-6.43-15.67-9.87-.84-.55-2.14-1.34-2.73-1.34s-1.22.55-1.64.92c-1.13,1.05-2.56,2.56-3.95,4.12-.29.29-.84.92-1.09,1.3-.34.55-.84.8-1.39.8-.76,0-1.93-.67-2.9-1.55-.63-.55-1.13-1.47-1.13-1.97,0-.34.13-.5.34-.5.13,0,.25.08.59.29.55.38,1.3.8,1.68.8s.88-.25,1.3-.55ZM535.64,150.86c0,2.02-1.64,3.65-3.66,3.65s-3.65-1.64-3.65-3.65,1.64-3.65,3.65-3.65,3.66,1.64,3.66,3.65ZM529.63,150.86c0,1.26,1.09,2.35,2.35,2.35s2.35-1.09,2.35-2.35-1.09-2.35-2.35-2.35-2.35,1.09-2.35,2.35Z"/>
          <path class="cls-1" d="M548.23,155.11c0-.17.29-.42.5-.42s.38.13.55.21c1.09.63,1.85,1.34,2.48,2.06.88,1.01,1.34,1.97,1.34,2.94s-.67,1.55-1.34,1.55-1.09-.34-1.34-1.68c-.13-.67-.38-1.47-.76-2.23-.34-.67-.71-1.3-1.18-1.93-.17-.21-.25-.38-.25-.5ZM566.25,154.6c-.42-.21-.97-.42-1.43-.5-.17-.04-.21-.13-.21-.29,0-.13.13-.29.29-.38.29-.17.71-.21,1.22-.21.92,0,2.35.5,3.24,1.09.67.46,1.3,1.09,1.3,1.68,0,.34-.25.59-.55.76-.38.21-.63.34-.97.97-1.97,3.87-3.82,6.81-6.85,10.08-2.77,3.02-6.34,5.8-10.21,7.6-.38.17-.67.21-.8.21-.29,0-.5-.29-.5-.55s.08-.38.38-.55c3.78-2.35,7.23-5.29,9.87-8.53,2.27-2.77,3.95-5.33,5.46-8.61.38-.8.59-1.34.59-1.81,0-.42-.38-.71-.84-.97ZM555.42,153.13c0-.17.34-.34.55-.34s.34.08.55.21c1.13.71,1.89,1.55,2.6,2.52.67.97.97,1.93.97,2.69,0,1.18-.55,1.89-1.34,1.89-.67,0-1.13-.21-1.34-1.81-.08-.76-.29-1.55-.59-2.31-.29-.84-.71-1.55-1.18-2.27-.17-.25-.21-.38-.21-.59Z"/>
          <path class="cls-1" d="M592.97,157.25c2.94,1.18,4.33,2.65,4.33,3.87,0,1.05-.67,1.6-1.26,1.6-.63,0-1.01-.25-1.64-.97-1.05-1.18-2.44-2.14-3.74-2.94-1.47-.88-3.11-1.51-4.37-1.85v7.14c0,2.81.08,8.23.08,9.91,0,1.39-.55,1.76-1.13,1.76-.5,0-.67-.17-1.09-.76-.42-.59-.92-1.72-.92-2.56,0-.63.17-.97.34-1.26.13-.25.34-1.22.34-2.35.08-2.56.13-5.97.13-8.15.04-4.16.04-8.32.04-12.14,0-1.72,0-2.18-.17-2.52-.34-.71-1.47-1.34-2.27-1.68-.42-.17-.46-.25-.46-.5,0-.34.63-.63,1.05-.63.97,0,2.39.38,3.44.92.97.5,1.81,1.3,1.81,2.02,0,.46-.29.88-.76,1.26-.21.17-.25.63-.29,1.55-.08,1.81-.13,4.24-.13,6.76,1.85.17,4.54.67,6.68,1.51Z"/>
        </g>
        <g>
          <path class="cls-1" d="M440.2,225.91h2.27c1.39-1.97,2.35-3.99,3.11-5.71.42-.92.63-1.6.84-2.27,2.9,1.18,3.45,1.47,3.45,1.89,0,.46-.38.63-1.55.71-1.47,1.97-2.94,3.66-4.92,5.38h6.85c1.72-2.1,1.89-2.18,2.18-2.18.21,0,.42.08,2.35,1.64.88.71,1.01.92,1.01,1.18,0,.29-.13.42-.55.42h-34.57c-1.09,0-1.93.04-2.94.21l-.42-1.55c1.18.25,2.1.29,3.32.29h11.01v-9.45h-9.83c-.97,0-1.72.04-2.73.21l-.42-1.6c1.13.25,1.97.34,3.07.34h27.64c1.43-1.76,1.68-1.89,1.89-1.89.25,0,.55.13,2.18,1.43.76.63.88.84.88,1.09,0,.29-.13.42-.55.42h-13.57v9.45ZM434.95,197.01v-3.53h-8.74c-1.09,0-1.93.08-3.02.21l-.42-1.55c1.26.25,2.18.29,3.44.29h20.04c1.68-1.93,1.89-2.06,2.1-2.06.25,0,.46.13,2.31,1.6.84.67.97.88.97,1.13s-.13.38-.55.38h-13.61v3.53h13.44c1.13-1.22,1.26-1.39,1.55-1.39.21,0,.55.21,2.06,1.51.8.71.88,1.05.88,1.3,0,.46-.42.67-1.51.67-.55,0-.88.17-1.3.59-.71.67-1.39,1.34-2.48,2.18-.17.13-.42-.08-.34-.25.59-1.22,1.09-2.52,1.39-3.57h-13.69v2.86c0,3.78.13,6.34.13,7.39,0,.76-.59,1.05-1.6,1.05-.88,0-1.22-.21-1.22-.92,0-.55.17-2.69.17-6.47v-3.91h-12.56c-.13,2.98-1.51,5.12-3.03,5.12-.84,0-1.47-.67-1.47-1.51,0-.67.25-1.01,1.01-1.47,1.76-1.13,2.65-2.48,2.77-4.66,0-.25.46-.25.5,0,.08.5.17,1.01.17,1.47h12.6ZM421.59,205.74c.92.25,1.6.29,2.6.29h4.5c1.18-1.47,1.34-1.6,1.6-1.6s.46.13,1.97,1.3c.55.46.67.71.67.97s-.13.38-.5.38h-8.19c-.71,0-1.39.08-2.31.21l-.34-1.55ZM422.72,210.7c1.05.25,1.97.34,3.11.34h19.07c1.43-1.64,1.6-1.76,1.85-1.76s.5.13,2.06,1.39c.71.55.84.76.84,1.01,0,.29-.17.42-.55.42h-23.23c-.97,0-1.81.08-2.69.25l-.46-1.64ZM423.23,218.14c3.11,1.18,4.75,2.94,4.75,4.58,0,1.34-.67,1.93-1.39,1.93-.76,0-1.01-.34-1.26-1.51-.46-1.89-1.05-3.23-2.35-4.66-.17-.17.08-.42.25-.34ZM423.27,201.29c.97.21,1.68.29,2.6.29h3.02c1.09-1.34,1.34-1.51,1.51-1.51.21,0,.42.17,1.89,1.34.38.34.5.59.5.8,0,.25-.13.42-.46.42h-6.47c-.59,0-1.3,0-2.18.17l-.42-1.51ZM437.84,216.46h-3.86v9.45h3.86v-9.45ZM439.44,201.29c.97.25,1.64.29,2.6.29h3.02c1.13-1.39,1.34-1.51,1.55-1.51s.42.13,1.81,1.34c.42.34.59.59.59.8,0,.25-.13.42-.59.42h-6.34c-.67,0-1.43,0-2.27.17l-.38-1.51ZM439.53,205.74c1.01.25,1.76.29,2.77.29h4.5c1.26-1.55,1.43-1.64,1.68-1.64s.46.08,1.97,1.3c.63.55.76.76.76,1.01s-.13.38-.5.38h-8.36c-.76,0-1.51.08-2.44.21l-.38-1.55Z"/>
          <path class="cls-1" d="M471.65,227.21c0,.84-.59,1.09-1.68,1.09-.76,0-1.09-.21-1.09-.84,0-1.64.21-4.75.21-20.08,0-9.87,0-13.36-.21-16.05,1.18.5,1.97.88,3.03,1.6h27.77c1.26-1.34,1.43-1.43,1.64-1.43s.42.08,1.68,1.18c.63.55.67.76.67.97,0,.29-.17.59-1.09,1.18v11.17c0,15.04.21,19.74.21,21.09,0,.88-.59,1.13-1.6,1.13-.84,0-1.18-.21-1.18-.88v-1.43h-28.35v1.3ZM500.01,193.98h-28.35v30.88h28.35v-30.88ZM486.61,214.86c1.43.46,2.81.97,4.2,1.51,1.26-.92,2.1-1.81,2.98-2.77.55-.59.92-1.09,1.26-1.72,2.06,1.43,2.44,1.81,2.44,2.14,0,.46-.46.5-1.6.42-1.43.92-2.69,1.64-4.24,2.31,3.28,1.51,5,3.11,5,4.58,0,.71-.42,1.18-1.05,1.18-.46,0-.84-.29-1.6-1.13-2.18-2.35-4.16-4.03-7.39-5.75v2.02c0,2.81.08,4.24.08,4.83,0,.76-.5,1.09-1.47,1.09-.76,0-1.01-.29-1.01-.88,0-.34.13-2.14.13-5v-2.48c-3.07,3.02-7.06,5.25-11.3,6.72-.25.08-.42-.38-.21-.5,4.33-2.18,8.07-5.17,10.67-8.49h-4.12v.29c0,.76-.29,1.01-1.3,1.01-.71,0-.97-.17-.97-.76,0-.29.08-1.13.08-3.61,0-1.89,0-2.77-.21-4.41,1.09.42,1.72.76,2.73,1.26h11.64c.97-1.01,1.13-1.13,1.34-1.13s.42.13,1.39.88c.63.5.76.67.76.92s-.21.42-1.05.92v1.09c0,2.39.08,3.11.08,3.28,0,.63-.42.92-1.3.92-.71,0-.97-.17-.97-.63v-.04h-5v1.93ZM484.21,199.99h-5.54c-.88,0-1.47.04-2.6.21l-.38-1.51c1.18.17,1.89.25,2.98.25h5.54v-.38c0-1.22-.04-2.35-.21-3.53,3.4.38,3.87.63,3.87,1.05,0,.25-.25.55-1.3,1.01v1.85h5.46c1.3-1.55,1.51-1.68,1.72-1.68.25,0,.5.13,1.97,1.34.63.55.76.76.76,1.01s-.13.38-.55.38h-9.37v3.19h7.48c1.22-1.55,1.47-1.68,1.68-1.68s.5.13,2.06,1.39c.63.5.71.71.71.97,0,.21-.13.38-.55.38h-21.76c-.84,0-1.43.04-2.52.21l-.42-1.51c1.18.21,1.85.25,2.94.25h8.02v-3.19ZM491.61,207.76h-12.22v4.12h12.22v-4.12Z"/>
        </g>
      </g>
      <g>
        <g>
          <g>
            <path class="cls-1" d="M162.08,15.83c-4.73-10.33-11.95-13.81-17.76-10.22-3.67,2.27-4.7,9.45-1.23,12.99,2.42,2.47,4.72.07,4.91-.22-.15.32-1.28,2.2.32,3.9,1.42,1.51,3.71.28,3.81.18-.06.25.15,2.3,1.41,2.97,1.73.92,3.34.12,3.68-.14.03.08,3.42,7.47,6.73,6.79,2.69-.55.3-11.5-1.88-16.25Z"/>
            <path class="cls-1" d="M117.27,15.83c4.73-10.33,11.95-13.81,17.76-10.22,3.67,2.27,4.7,9.45,1.23,12.99-2.42,2.47-4.72.07-4.91-.22.15.32,1.28,2.2-.32,3.9-1.42,1.51-3.71.28-3.81.18.06.25-.15,2.3-1.41,2.97-1.73.92-3.34.12-3.68-.14-.03.08-3.42,7.47-6.73,6.79-2.69-.55-.3-11.5,1.88-16.25Z"/>
            <path class="cls-1" d="M189.58,30.73c-9.03-4.04-16.62,4.74-14.77,9.98.25.71,1.17,1.39,1.79.93,3.58-2.67,6.03-3.29,8.93-1.55,2.74,1.65,3.92,6.44,2.91,8.38-.27.52-.96.68-1.45.33-1.94-1.42-4.27-2.29-6.73-2.48l-17.72-1.4c-5.01-.48-9.51-3.17-12.15-7.3l-4.43-6.91-3.59-6.76c-.29-.55-.77-.96-1.34-1.19-.5-.2-1.06.12-1.13.64l-.56,4.3c-.06.48-.44.86-.93.94l-1.13.19c-1.1.18-2.08.78-2.72,1.67l-2.43,3.4c-.66.92-1.58,1.64-2.65,2.06l-3.29,1.31c-.94.37-1.59,1.22-1.69,2.19l-.14,1.4c-.18,1.8,1.3,3.36,3.18,3.34l4.62-.05c1.23-.01,2.36.66,2.9,1.73l8.59,16.97c.75,1.47,1.28,3.04,1.6,4.65l2.95,15.1c.02.2-.08.39-.27.48l-.45.22c-.5.24-.85.7-.95,1.23-.12.66.42,1.26,1.11,1.26l2.97-.03c1.1-.01,2.03-.79,2.2-1.84h0c.77-4.94,1.19-10,1.93-14.89h0c.48-1.68,2.01-2.87,3.81-2.97l13.17-.7c1.35-.07,2.68.36,3.71,1.2l5.69,4.66c1.12.92,1.78,2.25,1.81,3.67l-.34,7.71c0,.21-.13.39-.33.46l-.14.05c-.58.19-1.01.65-1.16,1.23v.03c-.18.68.36,1.33,1.09,1.33l3.43-.03c1.03-.01,1.92-.7,2.16-1.66l.76-3.07c.2-1.49,1.22-6.11,2.4-8.74,2.34-5.21,2.98-10.26,2.98-10.26.23-3.12-1.9-6.47-2.85-8.44-.2-.41-.05-.89.33-1.15,4.73-3.18,8.95-16.85-1.65-21.6Z"/>
            <path class="cls-1" d="M110.47,78.63l1.37,2.26c.23.24.57.34.89.26l7.87-1.86c.15-.04.31,0,.44.08,2.59,1.89,5.41,3.18,8.46,3.22.14,0,.27.1.31.23.27.96.6,2.11.73,2.56.04.12.11.29.31.29l2.54.03c.3,0,.47-.16.47-.42,0,0-.02-.42-.49-.42l-1.73-.03c-.15.01-.25-.05-.28-.18l-.53-1.87c-.04-.14.05-.27.19-.29,4.95-.61,7.4-4.34,9.08-8.7.21-.54.48-1.5.63-2.54.02-.14.13-.24.27-.26l1.42-.14c.26-.03.34-.37.12-.51l-1.49-.98c-.12-.08-.21-.21-.22-.36-.02-.17-.04-.33-.07-.49-.34-1.84-1.61-3.3-3.34-3.61-2.12-.39-4.01.93-5.15,2.62-.54.79-1.1,1.82-1.96,2.32-1.02.59-5.99,3.52-8.07,4.77-.24.14-.26.49-.04.65.39.29.91.62,1.56.91.9.4,1.87.62,2.87.67,1.26.06,2.58-.16,3.93-.66,1.51-.56,2.84-1.68,3.75-3.16.12-.19.37-.25.56-.13.19.12.24.37.12.57-1,1.63-2.48,2.86-4.15,3.48-1.59.59-2.88.71-4.25.71-1.1,0-2.16-.3-3.16-.74-.61-.27-1.11-.57-1.52-.86-.11-.08-.25-.07-.36,0-.32.24-.64.47-.94.7-.14.11-.31.17-.49.19l-9.24.92c-.55.05-.59.57-.45.73Z"/>
            <path class="cls-1" d="M82.09,60.48s0-1.28.25-2.82c.08-.5.93-5.33,5.09-8.3,3.24-2.32,5.39-2.29,8.25-5.06.64-.62,2-2.08,2.51-4.1.12-.45.75-3.24.75-3.24-1.7,1.5-9.5,3.39-10.07,1.36-.31-3.05,6.61-5.14,7.66-5.09-3.08-.16-5.94-2.16-5.94-2.96.03-.61.23-.93,2.09-1.19,2.83-.39,7.23,1.77,7.74,2.2.33-.29,2.04-1.78,5.21-1.15,1.19.24,4.57,1.33,6.17,3.87.99,1.57-.02,3.59-.09,3.73-.85,1.53-2.53,1.71-3.01,2.68-.41.83-.07,1.55.51,3.24.29.82.46,2.69.46,2.69,1.19.13,3.31,2.46,3.52,4.92.31,3.59-1.74,3.35-1.74,3.35-1.7,0-.68-3.56-2.46-2.74-.27.92.47,7.42-5.88,11.11.56-.33-1.81,1.13-1.02,1.24.3.07,1.93.06,2.64,1.02.23.3.56.98.3,1.42-.26.64-3.94.81-4.75.84l-7.64.08c-5.25-.13-7.79-1.55-8.18-1.88-.25.07-.63.28-1.13.32-2.87.21-4.94-3.73-1.25-5.53Z"/>
            <path class="cls-1" d="M172.44,114.26c-1.09-.67-2-.16-3.95.4-1.6.46-10.28-.18-10.11-3.04.19-1.79,4.05-2.32,5.57-2.59,1.4-.25,2.24-.69,2.74-1.25.43-.47,1.23-2.11,1.52-2.65.29-.54-.25-1.17-.94-1.92-.69-.75-.58-1.31-.7-2.66-.12-1.35-.71-1.65-1.48-2.54-.78-.89-1.85-1.58-3.5-2.36.35-3.21.02-3.77.02-3.77-.09-.41-.62-1.29-1.41-.33-.37.45-1.88,2.09-2.85,2.84-4.36,1.32-5.58,4.8-7.36,5.73-3.21,2.65-7.04,1.52-7.23,1.43-2.77-1.27-3.78-4-6.23-6.7-.83-.91-3.55-5.38-8.83-6.63-2.69-.64-5.07-.38-7.07.33-4.25-2.2-11.95-4.09-17.72,1.27-2.68,2.49-4.1,5.49-4.2,8.89-.24,7.5,6.1,14.27,6.37,14.55.39.41.92.62,1.45.62.49,0,.99-.18,1.37-.55.8-.76.83-2.02.07-2.82-.05-.06-5.46-5.83-5.28-11.68.07-2.34,1.03-4.33,2.93-6.1,3.48-3.23,7.81-2.66,10.76-1.66-.8.72-1.43,1.47-1.87,2.15-1.17,1.99-1.31,3.96-1.38,5.09-.2,2.99.92,5.41,1.61,6.99.78,1.78,1.16,2.64,2.2,4.84,1.27,2.69.94,4.88.93,5.18-.01,1.13.06,1.97.38,2.92.49,1.44,1.67,3.63,4.93,4.32,0,0,3.76,1.37,3.9.38.37-2.54-2.67-3.03-3.53-3.87-.54-.53-.74-1.37-.64-2.01.12-.8.66-1.05,1.27-1.98.36-.55.8-1.4,1-2.67,1.35,1.01,3.33,2.05,5.64,3.3,7.78,4.22,13.05,4.42,18.13,4.21,3.06-.13,5.68-1.19,6.25-1.05,0,0,7.21-.07,10.55-.07,0,0,3.54-.26,6.33-1.92,2.18-1.3,1.16-2.13.37-2.62Z"/>
          </g>
          <g>
            <g>
              <g>
                <path class="cls-1" d="M173.31,107.05c6.02-2.48,17.16-11.76,19.86-18.42.24-.59-.2-.8-.53-.16-3.58,6.88-14.44,14.67-19.59,17.25-1,.5-.79,1.61.26,1.32Z"/>
                <path class="cls-1" d="M181.46,96.55c-2.3-4.2-4.62,3.27-1.29,3.24,1.73-.02,1.79-2.13,1.29-3.24Z"/>
                <path class="cls-1" d="M176.66,99.35c-2.59-4.73-5.2,3.69-1.46,3.65,1.95-.02,2.02-2.4,1.46-3.65Z"/>
                <path class="cls-1" d="M178.82,105.51c-.91,1.56.48,2.72,1.34,3.06,1.2.47,3.45.06,3.57-1.31.08-1.01-.61-1.89-1.36-2.19-1.81-.72-3.16-.2-3.54.45Z"/>
                <path class="cls-1" d="M184.99,100.97c-2.6-.04-2.73,3.21-.15,3.41,3.95.31,3.78-3.36.15-3.41Z"/>
                <path class="cls-1" d="M185.33,94.23c-.16-.78-1.15-1.89-2-1.03-1.13,1.15-.41,2.57-.08,2.84,1.4,1.1,2.44-.77,2.08-1.81Z"/>
                <path class="cls-1" d="M188.49,91.36c-.17-.78-1.1-1.9-1.88-1.06-1.04,1.13-.34,2.56-.02,2.82,1.32,1.12,2.26-.73,1.9-1.77Z"/>
                <path class="cls-1" d="M191.7,93.9c-2.26.43-1.12,3.09,1.11,1.99,1.76-.87.78-2.39-1.11-1.99Z"/>
                <path class="cls-1" d="M188.76,97.31c-2.83.25-1.74,3.53,1.13,2.48,2.27-.82,1.24-2.74-1.13-2.48Z"/>
                <path class="cls-1" d="M189.19,88.72c-.46,2.44,2.46,2.32,1.84-.04-.34-1.29-1.45-1.47-1.84.04Z"/>
                <path class="cls-1" d="M192.98,92.08c.67.94,2.77-.18,2.59-1.13-.29-1.55-3.57-.24-2.59,1.13Z"/>
              </g>
              <path class="cls-1" d="M129.19,60.79c0-3-3.04-13.01-6.32-13.01s-6.34,10-6.34,13.01c0,2.66,2.4,4.73,5.22,5.18-.02,1.02-.04,2.1-.06,3.26,0,0-.02.31.3.31h1.7c.38-.01.35-.33.35-.33,0,0-.05-1.31-.14-3.23,2.86-.41,5.29-2.5,5.29-5.19ZM126.75,61.19l-3.47,1.6v1.62c0,.21-.17.39-.39.39s-.39-.17-.39-.39v-1.63l-3.48-1.71c-.19-.09-.27-.33-.18-.52.09-.19.32-.27.52-.18l3.14,1.54v-2.16l-2.84-1.37c-.19-.09-.27-.32-.18-.52.09-.19.32-.27.52-.18l2.5,1.21v-2.11l-2.09-.97c-.19-.09-.28-.32-.19-.51.09-.19.32-.28.51-.19l1.76.82v-2.78c0-.21.17-.39.39-.39s.39.17.39.39v2.79l1.77-.77c.19-.08.42,0,.51.2.09.2,0,.42-.2.51l-2.08.91v2.12l2.51-1.14c.19-.09.42,0,.51.19.09.19,0,.42-.19.51l-2.83,1.28v2.18l3.14-1.45c.2-.09.42,0,.51.19.09.19,0,.42-.19.51Z"/>
              <g>
                <path class="cls-1" d="M166.99,75.82c-1.72,2.69-3.43,5.38-4.72,8.31-.19.44-.26.87-.51,1.28-.06.09-.21.18-.33.18h-4.45c-.27,0-.26-.18-.19-.35.25-.59.47-1.27.76-1.84,1.49-2.91,3.45-5.44,6.27-7.18.86-.53,2.93-1.62,3.33-1.42.4.28-.07.87-.17,1.02Z"/>
                <path class="cls-1" d="M172.88,76.54c-1.59,2.49-3.17,4.98-4.36,7.69-.18.4-.24.81-.47,1.19-.05.09-.2.17-.3.17h-4.11c-.25,0-.24-.17-.18-.32.23-.55.43-1.17.71-1.7,1.38-2.7,3.18-5.04,5.8-6.65.79-.49,2.71-1.5,3.07-1.32.37.26-.07.8-.16.94Z"/>
                <path class="cls-1" d="M178.12,77.5c-1.42,2.22-2.83,4.45-3.89,6.88-.16.36-.22.72-.42,1.06-.05.08-.18.15-.27.15h-3.67c-.22,0-.22-.15-.16-.29.2-.49.39-1.05.63-1.52,1.23-2.41,2.85-4.5,5.18-5.94.71-.44,2.42-1.34,2.75-1.18.33.23-.06.72-.14.84Z"/>
              </g>
              <path class="cls-1" d="M176.69,22.83c.03-.25,0-.5-.05-.73,1.82-.31,5.14-1.11,4.33-2.68-.81-1.56-3.35.68-4.66,2-.15-.2-.34-.36-.55-.5,1.07-1.53,2.8-4.39,1.12-4.92-1.66-.52-1.88,2.79-1.87,4.65-.24-.03-.47-.02-.69.03-.28-1.85-1.01-5.05-2.57-4.28-1.55.76.52,3.27,1.82,4.62-.2.15-.37.34-.51.56-1.52-1.1-4.27-2.81-4.81-1.17-.55,1.63,2.67,1.93,4.54,1.97-.03.26,0,.52.07.76-1.85.3-5,1.05-4.23,2.59.78,1.55,3.28-.56,4.62-1.86.16.19.36.35.59.47-1.09,1.52-2.83,4.33-1.17,4.87,1.66.54,1.92-2.79,1.93-4.65.25.02.5,0,.74-.08.3,1.83,1.08,5.12,2.64,4.32,1.57-.81-.67-3.37-1.97-4.69.19-.16.35-.35.47-.57,1.51,1.07,4.41,2.88,4.95,1.19.54-1.69-2.88-1.9-4.73-1.9ZM175.7,22.9c-.16.53-.73.82-1.25.66-.53-.16-.82-.73-.66-1.25.16-.53.73-.82,1.25-.66.53.16.82.73.66,1.25Z"/>
            </g>
            <path class="cls-1" d="M89.6,80.38c-.12-.1-.24-.2-.35-.32-.61-.7-.87-1.62-.98-2.37-.18.13-.4.21-.67.25.13.77.41,1.66.98,2.39.39.08.74.22,1.07.38-.02-.11-.04-.22-.04-.33Z"/>
            <path class="cls-1" d="M95.16,86.41s-.45-.09-.66-.15c-.58.21-1.54.46-2.99.46-.42,0-.88-.02-1.38-.07-1.59-.15-2.58-.69-3.19-1.24-.95.85-1.53,1.89-1.57,2.91l4.37-.43-3.74,2.29c1.1,1.35,3.48,1.82,5.86,1.03,2.45-.81,4.1-2.66,4.08-4.44,0,0-.5-.15-.8-.36Z"/>
          </g>
          <g>
            <g>
              <path class="cls-1" d="M197.49,84.44c-.18-.36-.41-.66-.65-.91.34-.06.7-.17,1.06-.36,1.14-.58,1.78-1.6,1.43-2.28-.35-.68-1.55-.75-2.69-.17-.35.18-.66.4-.9.64-.05-.34-.17-.7-.35-1.05-.58-1.14-1.59-1.79-2.27-1.44-.68.34-.76,1.55-.19,2.69.18.36.4.67.65.91-.34.05-.7.17-1.06.35-1.14.58-1.78,1.6-1.44,2.28.34.68,1.55.76,2.69.18.36-.18.67-.41.91-.65.05.34.17.71.35,1.06.58,1.14,1.6,1.78,2.28,1.44.68-.35.76-1.55.18-2.69Z"/>
              <polygon class="cls-1" points="117.16 37.1 118.47 39.75 121.4 40.18 119.27 42.25 119.77 45.17 117.15 43.79 114.53 45.16 115.03 42.24 112.91 40.17 115.85 39.75 117.16 37.1"/>
              <polygon class="cls-1" points="145.27 88.78 146.57 91.43 149.5 91.86 147.38 93.93 147.88 96.85 145.26 95.46 142.63 96.84 143.14 93.92 141.02 91.85 143.95 91.43 145.27 88.78"/>
              <path class="cls-1" d="M112.89,20.63c-.21-.22-.5-.34-.8-.34h0c-.53,0-.99.37-1.11.88l-3.31-.02,2.35-2.33c.44.28,1.03.23,1.41-.15.44-.44.45-1.16,0-1.61-.44-.45-1.16-.45-1.61,0-.38.38-.44.97-.16,1.41l-2.35,2.33v-3.31c.51-.12.89-.57.89-1.11,0-.63-.51-1.14-1.14-1.14s-1.14.51-1.14,1.14c0,.54.37.99.89,1.11v3.28l-2.26-2.38c.29-.44.25-1.03-.12-1.41-.21-.22-.49-.35-.8-.35-.31-.01-.59.1-.81.31-.22.21-.35.49-.35.8,0,.3.1.59.31.81.37.39.96.46,1.41.19l2.28,2.4-3.31-.07c-.1-.52-.55-.9-1.09-.91,0,0-.02,0-.02,0-.62,0-1.12.49-1.14,1.11,0,.3.11.59.32.81s.49.34.8.35c.53,0,1-.35,1.13-.86l3.31.07-2.38,2.3c-.44-.29-1.03-.24-1.41.13-.22.21-.34.49-.35.8s.11.59.32.81c.21.22.49.34.8.35.3,0,.59-.11.81-.32.39-.37.46-.96.18-1.41l2.38-2.3-.05,3.31c-.51.11-.9.56-.9,1.1,0,.3.11.59.32.81.21.22.5.34.8.34h.02c.3,0,.58-.11.79-.32.22-.21.34-.5.34-.8,0-.54-.36-1-.87-1.12l.05-3.31,2.32,2.37c-.29.44-.23,1.03.14,1.41.21.22.5.34.8.34h.01c.3,0,.58-.11.8-.32.22-.21.34-.5.34-.8s-.11-.59-.32-.81c-.37-.38-.96-.45-1.41-.17l-2.31-2.36,3.31.02c.11.51.57.89,1.1.89h0c.3,0,.58-.12.8-.33.22-.21.34-.5.34-.8,0-.3-.11-.59-.33-.81Z"/>
              <g>
                <path class="cls-1" d="M169.76,36.41c-.35.15-.65.34-.89.56-.03-.32-.12-.67-.27-1.02-.48-1.1-1.4-1.76-2.05-1.48-.66.28-.8,1.41-.32,2.51.15.34.34.64.55.88-.32.03-.66.12-1,.26-1.1.47-1.77,1.39-1.49,2.04.28.66,1.4.81,2.51.34.35-.15.65-.34.89-.55.03.32.12.67.27,1.02.47,1.1,1.39,1.77,2.05,1.49.66-.28.8-1.4.33-2.51-.15-.35-.34-.65-.55-.89.32-.03.67-.12,1.02-.27,1.1-.48,1.77-1.39,1.48-2.05-.28-.66-1.41-.8-2.51-.33Z"/>
                <path class="cls-1" d="M161.43,36.84c-.28-.09-.55-.12-.8-.12.14-.2.27-.45.35-.73.27-.88.06-1.73-.46-1.89-.53-.16-1.17.43-1.44,1.31-.08.27-.12.54-.12.79-.2-.14-.45-.26-.72-.35-.88-.28-1.73-.07-1.9.45-.16.53.42,1.18,1.3,1.45.28.09.55.13.8.12-.14.2-.27.45-.35.73-.27.88-.07,1.73.46,1.9.53.16,1.17-.42,1.45-1.3.09-.28.12-.55.12-.8.2.14.45.27.73.35.88.27,1.73.07,1.9-.46.16-.53-.42-1.17-1.31-1.45Z"/>
              </g>
            </g>
            <g>
              <path class="cls-1" d="M87.29,73.74c.1.13.2.26.28.38.36-.72.87-1.42,1.21-1.84-.3-.59-.83-1.59-1.31-2.19-.11.16-.27.42-.45.72.41,1.34.29,2.69.26,2.93Z"/>
              <path class="cls-1" d="M86.9,73.26c.02-.64-.01-1.81-.45-2.82-.23.27-.61.82-.8,1.72.46.29.89.69,1.25,1.1Z"/>
              <path class="cls-1" d="M89.19,72.46c-.35.43-.97,1.27-1.34,2.07.16.24.25.41.27.45.07.11.95,1.58.42,2.44.13-.03.28-.1.43-.23.39-.34,1.17-1.48.21-4.72Z"/>
              <path class="cls-1" d="M87.76,75.19s0,0,0,0c-.01-.02-1.08-1.92-2.38-2.7-.16.8-.54,3.18.3,4.37.28.4.67.62,1.19.67.69.07,1.14-.05,1.32-.34.33-.54-.19-1.62-.42-1.99Z"/>
              <path class="cls-1" d="M92.89,80.57c.06-.07.15-.1.23-.07.18.07.35.14.51.21,0-.4-.04-.81-.18-1.22-.34-1.02-1.17-1.82-2.46-2.38-.33.53-1.43,2.45-.83,4,.27.68.83,1.2,1.69,1.57.26-1.13.99-2.06,1.03-2.12Z"/>
              <path class="cls-1" d="M101.42,77.35c-.71.08-3.27.49-4.3,2.13-.36.57-.49,1.23-.42,1.99,1.45-.65,3.24-.38,3.34-.37.07.01.11.06.14.11.19-.18.38-.38.54-.6.65-.89.88-1.99.7-3.26Z"/>
              <path class="cls-1" d="M100.21,81.46c.04,1.12-.19,2.06-.67,2.8.87-.1,1.87-.13,2.89.01,1.13-.59,1.89-1.56,2.26-2.93-.65-.16-2.83-.61-4.48.11Z"/>
              <path class="cls-1" d="M103.67,84.98c-1.52-.51-3.22-.43-4.49-.25-.04.05-.08.1-.13.14-1.17,1.15-2.87,1.27-3.52,1.27-.02,0-.03,0-.05,0l-.04.02c.56.28,1.97.82,4.41.73,2.66-.1,3.57-1.42,3.82-1.92Z"/>
              <path class="cls-1" d="M95.59,82.28s.04-.06.07-.08c.2-.21.42-.39.66-.53-.13-.91.02-1.72.46-2.41.14-.22.3-.42.48-.6-.21-1.22-.96-2.3-2.23-3.19-.33.38-1.28,1.55-1.69,2.92.22.3.39.63.51.98.18.53.22,1.06.19,1.55.69.37,1.2.83,1.54,1.36Z"/>
              <path class="cls-1" d="M99.81,81.48c-.61-.06-2.76-.2-3.85.99-.06.06-.1.13-.15.19.04.1.09.19.12.3.36,1.08.04,2.14-.24,2.77.68-.03,2.11-.19,3.08-1.15.74-.72,1.09-1.77,1.04-3.1Z"/>
              <path class="cls-1" d="M91.93,84.34s0,0,0,0c-1.25-.35-3.47-.78-5.45-.25.22.51,1.05,1.89,3.7,2.14,1.68.16,2.87,0,3.65-.2-.98-.39-1.63-.95-1.9-1.69Z"/>
              <path class="cls-1" d="M91.78,83.24c-.04-.06-.07-.12-.12-.19-.94-.42-1.57-1.01-1.87-1.78,0-.01,0-.02-.01-.03-1.05-.61-2.24-.75-3.55-.38.14.45.53,1.61,1.26,2.63,1.63-.18,3.24.11,4.31.39-.03-.21-.04-.43-.03-.64Z"/>
              <path class="cls-1" d="M93.13,80.95c-.31.44-1.29,1.98-.82,3.25.32.86,1.26,1.46,2.79,1.78.22-.38.84-1.65.43-2.89-.3-.92-1.11-1.64-2.4-2.14Z"/>
            </g>
          </g>
        </g>
        <g>
          <path class="cls-1" d="M23.65,166.21c1.47-.04,2.81-.08,3.57-.13.55-.04,1.13-.13,1.43-.25.38-.21.67-.42,1.18-.42.59,0,1.97.67,2.9,1.3.55.34.8.76.8,1.13,0,.59-.5,1.01-1.09,1.01-.76,0-1.89-.21-2.77-.34-1.68-.21-3.4-.29-5.08-.34-3.02-.04-6.05.08-9.03.29-3.23.21-6.38.67-9.49,1.09-.71.08-1.09.29-1.3.42-.42.21-.88.25-1.09.25-.59,0-1.6-.63-2.73-1.93-.67-.76-.92-1.55-.92-2.14,0-.25.21-.5.34-.5.17,0,.34.08.55.29.92,1.01,1.97,1.47,3.02,1.51.76.04,1.64-.04,2.65-.13,2.44-.25,5.21-.5,8.95-.84.08-1.97.13-4.12.17-6.34.04-1.64.04-3.15.04-4.41,0-.55-.13-.84-.42-1.22-.21-.25-.5-.55-.92-.88-.67.04-1.51.13-3.23.25-.76.04-1.3.08-2.1.08-1.01,0-1.68-.34-2.6-1.26-.76-.76-1.13-1.39-1.13-1.72,0-.29.25-.46.46-.46s.46.08.59.21c1.05.92,2.44,1.39,3.91,1.39.8,0,2.9-.17,5.29-.46,2.9-.34,5.21-.76,6.64-1.09.71-.17,1.34-.42,1.55-.55.5-.25.76-.38,1.3-.38.97,0,1.81.29,2.77.84.38.21.59.63.59.92,0,.46-.38.8-.84.88-.71.13-1.47.17-2.23.21-2.9.25-5.75.59-8.44.88.55.25.92.55,1.26.8.25.21.5.59.5.92s-.08.59-.21.84c-.04.13-.17.42-.21,1.13-.17,3.74-.25,5.67-.42,9.33,2.06-.13,3.95-.17,5.84-.21Z"/>
          <path class="cls-1" d="M42.25,149.32c0-.25.21-.46.46-.46s.55.04.71.08c1.43.29,3.19,1.09,4.62,2.18,1.18.92,2.14,2.06,2.14,3.49,0,1.01-.59,1.6-1.34,1.6-.8.04-1.13-.34-1.6-1.22-1.05-1.97-2.73-3.95-4.62-5.12-.21-.13-.38-.29-.38-.55ZM47.92,168.44c3.53-2.14,7.39-5.17,10.96-8.44,3.44-3.15,6.76-6.8,9.41-10.25.21-.25.42-.38.59-.38.25,0,.63.21.63.46,0,.21-.08.46-.25.76-2.65,4.37-5.71,7.9-9.07,11.22-3.23,3.23-6.85,6.17-10.75,9.12-.46.34-.88.71-1.05,1.13-.25.5-.55.71-1.09.71-.67,0-1.64-.55-2.73-1.6-1.01-1.01-1.72-2.06-1.72-2.77,0-.46.17-.84.38-.84s.38.17.55.34c1.01.88,1.55,1.34,2.27,1.34.42,0,.97-.25,1.89-.8Z"/>
          <path class="cls-1" d="M75.73,155.96c0-.25.17-.42.63-.42,1.13,0,2.81.46,3.95.97,1.81.8,2.98,1.76,2.98,2.98s-.67,1.68-1.47,1.68c-.55,0-1.13-.5-1.64-1.22-1.09-1.47-2.31-2.48-4.03-3.4-.25-.13-.42-.34-.42-.59ZM83.37,169.91c4.41-2.35,8.4-5.04,12.35-8.11,3.15-2.48,6.05-5.04,8.74-7.86.42-.46.71-.8.88-.8.25,0,.63.25.63.55,0,.17-.04.29-.46.88-2.23,3.19-5.29,6.13-8.82,9.16-3.91,3.32-7.94,6.13-12.1,8.74-.42.25-.67.55-.84.8-.21.34-.71.84-1.26.84-.67,0-1.6-.71-2.48-1.64-.84-.88-1.6-2.02-1.6-3.15,0-.59.08-1.09.42-1.09.25,0,.46.21.71.63.42.67,1.47,1.68,2.1,1.68.38,0,.71-.08,1.72-.63ZM80.98,147.39c0-.25.17-.42.63-.42.97,0,2.9.67,4.07,1.34,1.72.97,2.52,1.85,2.52,3.02,0,1.01-.76,1.6-1.51,1.6-.59,0-1.01-.46-1.3-.88-1.05-1.64-2.35-2.94-4.08-4.16-.17-.13-.34-.25-.34-.5ZM100.3,144.28c1.3.46,2.35,1.05,3.11,1.68.88.71,1.81,1.81,1.81,2.73,0,.76-.42,1.22-1.05,1.22-.59,0-.84-.34-1.39-1.39-.5-.97-1.85-2.48-3.11-3.4-.17-.13-.25-.29-.25-.42,0-.25.21-.46.46-.46.13,0,.29,0,.42.04ZM104.08,141.76c.97.25,2.18.84,2.98,1.39.97.67,1.89,1.72,1.89,2.69,0,.71-.5,1.13-.97,1.13-.5,0-.8-.17-1.39-1.13-.67-1.18-2.06-2.52-3.44-3.36-.13-.08-.17-.29-.17-.42,0-.21.17-.42.42-.42.13,0,.38.04.67.13Z"/>
          <path class="cls-1" d="M129.87,169.49c1.13,0,1.97-.04,2.65-.08.42-.04.76-.13,1.01-.25.29-.13.63-.29,1.05-.29.67,0,1.68.5,2.23.88.59.38.84.63.84,1.3,0,.42-.46.67-.97.67-.8,0-1.43-.13-2.14-.25-1.3-.17-3.32-.29-5.12-.29-1.97,0-3.91.04-5.88.17-2.52.17-4.7.5-6.8.8-.59.08-1.01.21-1.26.38-.29.21-.67.34-1.05.34-.55,0-1.22-.42-2.14-1.26-.8-.76-1.09-1.47-1.09-2.18,0-.29.25-.5.38-.5s.29.13.5.38c.59.63,1.43,1.18,2.27,1.18.29,0,.92-.04,2.14-.17,1.89-.21,4.24-.42,6.97-.63.08-2.52.17-5.04.17-7.52,0-.88-.08-1.34-.34-1.72-.17-.25-.38-.38-.71-.55-2.27.17-3.32.21-4.03.21-.8,0-1.26-.21-1.97-.92-.59-.59-1.09-1.26-1.09-1.55,0-.21.21-.42.46-.42.21,0,.38.13.55.29.71.67,1.55.97,2.65.97s2.56-.08,4.41-.29c2.27-.25,3.99-.5,5.12-.8.55-.13,1.05-.34,1.22-.42.38-.17.67-.34,1.13-.34.71,0,1.55.25,2.1.55.5.25.63.55.63,1.01,0,.55-.29.71-.92.76s-1.09.04-2.1.13c-1.76.17-4.07.42-6.01.63.42.17.67.34.92.55.21.17.55.5.55.8,0,.25-.04.5-.17.67-.08.08-.17.29-.21.88-.17,2.56-.21,4.37-.34,7.02,1.47-.04,2.9-.08,4.41-.08Z"/>
          <path class="cls-1" d="M154.18,153.86c-.46-.38-1.01-.71-1.43-.88-.38-.17-.55-.25-.55-.5,0-.29.42-.63.97-.63,1.09,0,2.35.63,3.36,1.3.76.5,1.64,1.3,1.64,2.14,0,.34-.13.59-.5.92-.46.38-.59.88-.76,1.51-.84,2.94-2.27,5.71-4.08,8.28-1.89,2.6-3.99,4.66-6.76,6.51-.21.13-.42.25-.67.25-.21,0-.5-.13-.5-.34s0-.34.29-.59c2.6-2.27,4.24-4.37,5.76-6.81,1.72-2.86,2.81-5.5,3.32-7.52.25-1.01.42-1.81.42-2.39,0-.67-.17-.97-.5-1.26ZM161.87,150.58c-.25-.63-.92-1.01-2.06-1.47-.21-.08-.38-.17-.38-.38,0-.34.55-.76,1.26-.76.67,0,1.68.34,3.02,1.13.92.55,1.6,1.09,1.6,1.81,0,.38-.21.71-.46.97-.25.29-.38.92-.38,1.51-.13,4.07-.25,8.32-.25,13.11,0,.21.04.34.21.34.13,0,.25-.04.55-.17,5.25-2.27,10.54-5.75,14.95-9.41.21-.17.34-.29.55-.29s.55.21.55.5c0,.13-.08.34-.21.46-3.95,4.58-9.33,8.19-14.66,11.3-.46.25-.67.55-.88.88-.17.29-.42.55-.84.55-.5,0-1.26-.71-1.72-1.22-.55-.63-1.01-1.22-1.01-1.81,0-.21.13-.46.21-.67.08-.25.17-.55.17-1.13.04-4.12.04-8.99.04-12.6,0-1.39,0-1.97-.25-2.65Z"/>
          <path class="cls-1" d="M189.04,159.7c1.81-1.39,4.07-3.19,6.3-4.87.5-.38,1.26-.71,1.81-.71.76,0,1.47.29,2.56.92,6.01,3.57,11.43,6.51,17.39,9.33.67.29,1.18.59,1.47.8.55.46.67.88.67,1.26,0,.88-.63,1.51-1.34,1.51-.97,0-1.6-.29-2.27-.67-5.33-3.07-10.54-6.43-15.67-9.87-.84-.55-2.14-1.34-2.73-1.34s-1.22.55-1.64.92c-1.13,1.05-2.56,2.56-3.95,4.12-.29.29-.84.92-1.09,1.3-.34.55-.84.8-1.39.8-.76,0-1.93-.67-2.9-1.55-.63-.55-1.13-1.47-1.13-1.97,0-.34.13-.5.34-.5.13,0,.25.08.59.29.55.38,1.3.8,1.68.8s.88-.25,1.3-.55ZM215.21,151.05c0,2.02-1.64,3.65-3.66,3.65s-3.65-1.64-3.65-3.65,1.64-3.65,3.65-3.65,3.66,1.64,3.66,3.65ZM209.21,151.05c0,1.26,1.09,2.35,2.35,2.35s2.35-1.09,2.35-2.35-1.09-2.35-2.35-2.35-2.35,1.09-2.35,2.35Z"/>
          <path class="cls-1" d="M227.81,155.29c0-.17.29-.42.5-.42s.38.13.55.21c1.09.63,1.85,1.34,2.48,2.06.88,1.01,1.34,1.97,1.34,2.94s-.67,1.55-1.34,1.55-1.09-.34-1.34-1.68c-.13-.67-.38-1.47-.76-2.23-.34-.67-.71-1.3-1.18-1.93-.17-.21-.25-.38-.25-.5ZM245.83,154.78c-.42-.21-.97-.42-1.43-.5-.17-.04-.21-.13-.21-.29,0-.13.13-.29.29-.38.29-.17.71-.21,1.22-.21.92,0,2.35.5,3.24,1.09.67.46,1.3,1.09,1.3,1.68,0,.34-.25.59-.55.76-.38.21-.63.34-.97.97-1.97,3.87-3.82,6.81-6.85,10.08-2.77,3.02-6.34,5.8-10.21,7.6-.38.17-.67.21-.8.21-.29,0-.5-.29-.5-.55s.08-.38.38-.55c3.78-2.35,7.23-5.29,9.87-8.53,2.27-2.77,3.95-5.33,5.46-8.61.38-.8.59-1.34.59-1.81,0-.42-.38-.71-.84-.97ZM234.99,153.32c0-.17.34-.34.55-.34s.34.08.55.21c1.13.71,1.89,1.55,2.6,2.52.67.97.97,1.93.97,2.69,0,1.18-.55,1.89-1.34,1.89-.67,0-1.13-.21-1.34-1.81-.08-.76-.29-1.55-.59-2.31-.29-.84-.71-1.55-1.18-2.27-.17-.25-.21-.38-.21-.59Z"/>
          <path class="cls-1" d="M272.54,157.43c2.94,1.18,4.33,2.65,4.33,3.87,0,1.05-.67,1.6-1.26,1.6-.63,0-1.01-.25-1.64-.97-1.05-1.18-2.44-2.14-3.74-2.94-1.47-.88-3.11-1.51-4.37-1.85v7.14c0,2.81.08,8.23.08,9.91,0,1.39-.55,1.76-1.13,1.76-.5,0-.67-.17-1.09-.76-.42-.59-.92-1.72-.92-2.56,0-.63.17-.97.34-1.26.13-.25.34-1.22.34-2.35.08-2.56.13-5.97.13-8.15.04-4.16.04-8.32.04-12.14,0-1.72,0-2.18-.17-2.52-.34-.71-1.47-1.34-2.27-1.68-.42-.17-.46-.25-.46-.5,0-.34.63-.63,1.05-.63.97,0,2.39.38,3.44.92.97.5,1.81,1.3,1.81,2.02,0,.46-.29.88-.76,1.26-.21.17-.25.63-.29,1.55-.08,1.81-.13,4.24-.13,6.76,1.85.17,4.54.67,6.68,1.51Z"/>
        </g>
        <g>
          <path class="cls-1" d="M97.67,228.53c4.62-4.54,6.43-9.2,6.43-15.84,0-3.07,0-3.61-.17-5.08,3.86.46,4.03.59,4.03,1.05,0,.34-.17.55-1.3.97,0,.76,0,1.68-.04,3.19-.17,7.69-2.6,12.35-8.53,16.13-.21.13-.59-.25-.42-.42ZM126.23,196.18c-2.06,2.48-4.49,4.58-7.22,6.26.71.25,1.39.5,2.14.71,4.66,1.43,10.21,2.06,15.38,2.06.21,0,.17.38-.04.42-1.01.21-1.34.5-1.81,1.68-.17.55-.42.67-.76.67-.55,0-1.55-.08-2.9-.29-3.49-.63-7.73-1.55-11.22-2.98-.97-.38-1.89-.76-2.77-1.18-4.92,2.44-11.01,3.86-19.11,4.49-.25,0-.38-.63-.13-.67,7.1-1.09,12.64-2.73,17.1-5-2.65-1.64-4.96-3.74-6.89-6.17h-6.26c-1.05,0-1.72.08-2.86.25l-.42-1.6c1.3.25,2.1.29,3.28.29h13.57v-1.97c0-.67-.04-1.18-.21-2.6,3.78.38,4.29.67,4.29,1.13,0,.25-.25.55-1.43,1.05v2.39h11.85c1.81-2.1,2.06-2.23,2.27-2.23.25,0,.46.13,2.35,1.68.88.76,1.05.97,1.05,1.22s-.17.38-.59.38h-8.65ZM105.6,225.92c1.39-1.55,2.6-3.78,3.36-5.63.38-.97.63-1.89.71-2.73,2.86.88,3.23,1.13,3.23,1.47,0,.38-.42.55-1.43.67-1.18,2.48-3.07,4.87-5.46,6.59-.21.13-.59-.21-.42-.38ZM117.37,219.87c0,3.49.08,4.33.08,5.25,0,1.05-.29,1.76-1.01,2.31-.46.42-1.26.67-1.81.67-.42,0-.5-.08-.59-.55-.17-1.01-.8-1.43-3.45-2.1-.25-.04-.21-.55.04-.5,1.81.17,2.98.25,3.74.25.46,0,.63-.21.63-.76v-9.24h-4.37c-.84,0-1.39.04-2.48.21l-.42-1.55c1.18.21,1.76.29,2.86.29h10.42c1.22-1.51,1.43-1.64,1.64-1.64.25,0,.46.13,1.89,1.3.59.5.71.76.71.97,0,.29-.13.42-.55.42h-7.35v4.66ZM109.13,196.18c2.14,2.18,4.66,3.95,7.44,5.25,2.44-1.47,4.58-3.19,6.47-5.25h-13.9ZM109.17,209.08c1.13.21,1.76.29,2.86.29h7.52c1.18-1.47,1.43-1.64,1.68-1.64.21,0,.46.17,1.89,1.34.59.5.71.71.71.97s-.13.38-.55.38h-11.22c-.84,0-1.43.08-2.52.21l-.38-1.55ZM119.59,217.6c3.07,2.06,4.49,4.24,4.49,6.13,0,1.01-.5,1.68-1.13,1.68-.88,0-1.01-.42-1.26-1.93-.34-1.93-1.3-3.99-2.48-5.59-.13-.21.17-.42.38-.29ZM128.67,215.38c0,8.4.21,11.47.21,12.39s-.5,1.22-1.64,1.22c-.88,0-1.18-.25-1.18-1.05,0-.88.17-4.12.17-12.35,0-5.21,0-6.47-.17-7.9,3.36.42,3.95.67,3.95,1.13,0,.29-.21.55-1.34,1.01v5.54Z"/>
          <path class="cls-1" d="M151.47,214.96c1.81-.76,3.57-1.64,5.21-2.52.21-.13.46.34.25.5-3.07,2.48-6.51,4.79-10.63,6.81-.13,1.34-.34,1.76-.71,1.76-.34,0-.76-.42-2.14-3.82.97-.17,1.76-.38,2.44-.59.97-.34,2.02-.67,3.07-1.09v-12.6h-2.27c-.84,0-1.43.04-2.48.25l-.42-1.6c1.18.21,1.81.29,2.86.29h2.31v-3.53c0-3.82-.04-5.92-.21-7.56,3.65.42,4.16.67,4.16,1.13,0,.29-.25.59-1.43,1.09v8.86h1.72c1.34-1.68,1.55-1.81,1.76-1.81.25,0,.5.13,2.02,1.39.67.55.76.8.76,1.05,0,.21-.13.42-.55.42h-5.71v11.55ZM161.13,214.54c-2.44,2.39-5.33,4.24-8.53,5.54-.25.08-.5-.42-.29-.55,3.61-2.06,6.72-5.12,8.53-7.9.5-.76.88-1.47,1.18-2.23h-3.28c-1.01,0-1.85.04-3.02.25l-.38-1.55c1.26.21,2.18.25,3.4.25h17.98c1.47-1.81,1.81-2.06,2.02-2.06.25,0,.55.17,2.27,1.6.71.59.8.88.8,1.13s-.13.38-.55.38h-17.77c1.51.46,2.06.76,2.06,1.01,0,.34-.42.55-1.55.63-.59.84-1.22,1.68-1.89,2.44h14.32c1.01-1.18,1.22-1.3,1.43-1.3s.46.08,1.68,1.18c.63.55.67.8.67,1.01s-.17.42-1.05.97c-.25,4.37-.76,7.69-1.6,9.79-.5,1.22-1.13,2.06-1.89,2.56-.8.55-1.76.71-2.69.71-.38,0-.46-.04-.55-.55-.17-.92-.71-1.6-3.86-2.35-.25-.04-.21-.59.04-.55,2.65.29,3.82.38,4.79.38,1.05,0,1.51-.42,2.02-1.97.67-2.02,1.05-4.62,1.26-8.82h-3.02c-2.65,6.59-8.4,11.51-15.71,14.07-.25.08-.46-.38-.25-.5,5.84-3.11,10.92-8.02,13.32-13.57h-3.44c-2.65,4.66-7.23,8.36-13.27,10.5-.25.08-.46-.38-.25-.5,5.17-2.77,8.61-6.09,10.75-10h-3.66ZM162.26,204.46v1.01c0,.76-.46,1.05-1.55,1.05-.71,0-1.05-.17-1.05-.97,0-.59.17-2.27.17-7.44,0-3.53-.04-4.58-.25-6.6,1.13.46,1.89.84,3.02,1.47h10.54c1.18-1.22,1.3-1.3,1.51-1.3.25,0,.5.08,1.68,1.05.63.5.71.76.71.97,0,.29-.17.55-1.09,1.18v2.77c0,4.79.17,6.68.17,7.18,0,.8-.55,1.09-1.6,1.09-.8,0-1.05-.21-1.05-.84v-.63h-11.22ZM173.48,194.04h-11.22v4.08h11.22v-4.08ZM173.48,199.16h-11.22v4.24h11.22v-4.24Z"/>
        </g>
      </g>
    </g>
  </g>
</svg>