<?xml version="1.0" encoding="UTF-8"?>
<svg id="_レイヤー_2" data-name="レイヤー 2" xmlns="http://www.w3.org/2000/svg" viewBox="0 0 329.61 869.74">
  <defs>
    <style>
      .cls-1 {
        fill: #222;
      }
    </style>
  </defs>
  <g id="_レイヤー_1-2" data-name="レイヤー 1">
    <g>
      <g>
        <g>
          <path class="cls-1" d="M242.91,146.48c-.5-1.39-.65-2.85-.84-4.29-1.67.55-8.31.55-9.99,0-.19,1.44-.34,2.9-.84,4.29-.09.3-.16.61-.18.93h12.03c-.02-.31-.09-.63-.18-.93Z"/>
          <path class="cls-1" d="M259.54,0c-38.7,0-70.08,31.27-70.08,69.84v71.61c0,3.27,2.67,5.95,5.94,5.95h11.46c-.66-.41-1.23-1-1.61-1.72-.44-.83-.76-2.35-.61-4.22-.93-.31-1.84-.74-2.77-1.35-1.45-.96-3.71-2.81-2.82-6.75.56-2.46,2.65-3.66,3.33-2.79.72.92-1.11,1.92-.87,4.08.23,2.12,1.81,3.32,3.69,3.98.03-.1.05-.2.09-.31.61-1.78,1.71-2.9,1.87-4.84.28-3.49,1.88-5.88,1.69-6.24-.25-.47-1.78-1.45-2.22-3.22-.39-1.54-.11-2.53.22-3.71-.29-1.07-.48-1.99-.52-3.05-.04-1.01.07-3.15.87-3.37.57-.16,2.41,2.2,3.39,2.71.44-.12,1.05-.19,1.68-.19s1.24.07,1.68.19c.98-.51,2.81-2.87,3.39-2.71.79.22.91,2.37.87,3.37-.04,1.07-.23,1.99-.52,3.05.34,1.18.61,2.17.22,3.71-.45,1.76-1.97,2.74-2.22,3.22-.19.37,1.41,2.75,1.69,6.24.16,1.94,1.26,3.06,1.87,4.84,1.12,3.25.71,6.1.04,7.36-.38.72-.94,1.31-1.61,1.72h9.78c.29-.23.59-.44.82-.63.24-1.11-.41-4.17-.65-5.04-.49-1.54-.44-3.75-.25-4.67-1-4-.73-6.97,2.51-9.94-.36-.81-.51-1.48-.47-2.36-1.4-2.04.03-5.07.21-6.36-.46-.9-1.3-1.13-.82-2.74.13-.46-.06-.88-.18-1.31-.52-1.71-.74-7.67,1.38-6.36,1.8.92,3.9,4.37,4.22,5.52.11.39.08.82.69,1,.73-.12,3.6-.12,4.34,0,.61-.18.58-.61.69-1,.32-1.15,2.42-4.6,4.22-5.52,2.12-1.3,1.9,4.65,1.38,6.36-.11.43-.31.85-.18,1.31.48,1.61-.36,1.83-.82,2.74.18,1.29,1.61,4.32.21,6.36.04.88-.11,1.55-.47,2.36,3.25,2.98,3.52,5.94,2.51,9.94.19.92.23,3.13-.25,4.67-.24.87-.89,3.93-.65,5.04.23.19.53.4.82.63h6.49l1.57-44.89-48.78-23.64s2.93-1.14,3.56-1.5l2.25.74c.95-.12,1.83.17,1.83.17,0,0-1.78-1.44-2.52-3.03-.83-1.76-.49-3.58-.87-3.85-.8-.55-2.09-.7-3.15-1.06-.84-.28-.17-1.71,1.51-1.45.42.06,1.93.45,1.93.45.29.1.49-1.71.28-2.36-.36-1.12-1.3-1.22-2.22-1.46-.92-.23-1.49-.52-1.83-.95-.34-.44-.6-1.33-.06-1.57.53-.24.97-1.26.97-1.26.93-1.82,2.46-1.84,2.46-1.84,0,0-.38-.22-1-1.36-.81-1.47.49-.97.49-.97.91.39,2.13.53,3.43,1.36,2.52,1.6,4.53,7.73,4.53,7.73,1.01-5.37,6.76-6.38,9.61-5.37,2.56.9,5.76,3.89,4.74,8.02-.74,3.01-2.67,3.96-3.66,4.26-.05,0-1.95.32-3.54-.44-1.19-.57-1.55-1.64-1.65-2.23-.18-.99.07-2.01.63-2.6.52-.54,1.25-.79,1.96-.66.59.11,1.06.47,1.28,1,.46,1.09-.22,1.76-.26,1.79-.18.16-.19.44-.03.62.16.18.44.19.62.03.05-.04,1.19-1.11.47-2.79-.34-.8-1.05-1.36-1.93-1.52-1-.18-2.03.16-2.75.92-.76.8-1.09,2.09-.86,3.37.23,1.28,1.01,2.33,2.14,2.87,1.02.49,2.11.6,2.91.6.12,0,.23,0,.34,0-.15.61-.55,1.58-1.59,2.98-1.99,2.67-5.49,2.7-5.49,2.7h-2.36l37.42,12.23.23-27.05-33.71-17.34,3.61-1.48,30.4,10.4.92-33.48,4.9-4.46.42,32.93,23.15-9.82c-.21,0-.42.01-.64-.02-5.34-.44-7.62-4.09-8.01-5.14-1.18-.14-3.04-.54-3.95-1.44-.24-.24-1.31-1.78.22-2.51-1.5-.67-3.53-4.59-.36-4.31-.39-.54-.76-1.24-.84-1.84-.64-4.16,3.64-5.42,4.07-5.27.48.14.13.6-.14,1.36-2.45,6.95,3.24,10.34,3.21,10.39,3.71,2,7.99.32,9.14-2.63.88-1.82,1.71-2.35,3.19-2.38,2.45-.04,2.65,2.24,3.59,2.26.33,0,1.36.21,1.4.58.03.21-.34.09-1.24.58-.91.49-1.2,1-1.43,1.39-.68,1.26-.91,3.18-1.05,3.91-.2,1.07-.87,2.21-1.88,3.15l3.76,1.71-31.33,16.59.57,23.31,45.99-19.84,3.81,2.21-49.16,28.01,2.37,55.21h7.44c-1.35-1.3-2.5-2.97-2.93-4.86-.7-3.1,1.14-7.53,3.39-8.94-1.12-4.76-1.52-10.13-.61-14.69.81-4.05,2.55-5.72,2.55-6.64,0-.8-.64-3.44-.64-4.33-.29.24-.89.66-1.44.46-.67-.25-.67-1.62-.93-3.47-.22-1.56-.66-2.37-.52-3.59.17-1.52,2.1-4.98,3.58-5.44.74-.23,1.36-.03,1.9.18.99-.86,3.36-1.64,5.64-1.64s4.65.78,5.64,1.64c.54-.21,1.15-.42,1.9-.18,1.49.46,3.41,3.93,3.58,5.44.14,1.22-.3,2.03-.52,3.59-.26,1.85-.26,3.22-.93,3.47-.55.2-1.16-.22-1.44-.46,0,.89-.64,3.53-.64,4.33,0,.92,1.74,2.59,2.55,6.64.91,4.56.52,9.92-.61,14.69,2.25,1.41,4.09,5.84,3.39,8.94-.43,1.89-1.58,3.56-2.93,4.86h11.9s.03-.08.05-.12c-1.64-.91-3.39-3.08-3.39-5.34s.72-3.94,1.74-5.17c1.08-1.31,2.04-1.58,2.24-2.29.24-.87.52-2.03,1.06-2.79-.27-.98-1.16-2.02-1.41-3.73-.25-1.73.37-4.89,1.53-5.19.99-.26,2,2.89,2.26,4.04.36,1.58.5,3.34.72,3.69.15-.04.36-.06.58-.06s.43.02.58.06c.22-.35.35-2.11.72-3.69.26-1.14,1.27-4.3,2.26-4.04,1.16.31,1.77,3.46,1.53,5.19-.24,1.71-1.14,2.75-1.41,3.73.54.77.82,1.93,1.06,2.79.2.71,1.16.99,2.24,2.29,1.02,1.23,1.74,2.82,1.74,5.17s-1.75,4.43-3.39,5.34c.01.04.03.08.05.12h6.8c3.27,0,5.94-2.68,5.94-5.95v-71.61c0-38.57-31.37-69.84-70.08-69.84Z"/>
        </g>
        <g>
          <path class="cls-1" d="M271.86,229.29c2.56-.07,4.89-.15,6.21-.22.95-.07,1.97-.22,2.48-.44.66-.37,1.17-.73,2.04-.73,1.02,0,3.43,1.17,5.04,2.26.95.58,1.39,1.31,1.39,1.97,0,1.02-.88,1.75-1.9,1.75-1.31,0-3.28-.37-4.82-.58-2.92-.37-5.91-.51-8.83-.58-5.26-.07-10.51.15-15.69.51-5.62.37-11.1,1.17-16.5,1.9-1.24.15-1.9.51-2.26.73-.73.37-1.53.44-1.9.44-1.02,0-2.77-1.09-4.75-3.36-1.17-1.31-1.61-2.7-1.61-3.72,0-.44.37-.88.58-.88.29,0,.58.15.95.51,1.61,1.75,3.43,2.55,5.26,2.63,1.31.07,2.85-.07,4.6-.22,4.23-.44,9.05-.88,15.55-1.46.15-3.43.22-7.15.29-11.02.07-2.85.07-5.47.07-7.66,0-.95-.22-1.46-.73-2.12-.36-.44-.88-.95-1.61-1.53-1.17.07-2.63.22-5.62.44-1.31.07-2.26.15-3.65.15-1.75,0-2.92-.58-4.53-2.19-1.31-1.31-1.97-2.41-1.97-2.99,0-.51.44-.8.8-.8s.8.15,1.02.36c1.82,1.61,4.23,2.41,6.79,2.41,1.39,0,5.04-.29,9.2-.8,5.04-.58,9.05-1.31,11.53-1.9,1.24-.29,2.34-.73,2.7-.95.88-.44,1.31-.66,2.26-.66,1.68,0,3.14.51,4.82,1.46.66.37,1.02,1.09,1.02,1.61,0,.8-.66,1.39-1.46,1.53-1.24.22-2.55.29-3.87.37-5.04.44-10,1.02-14.67,1.53.95.44,1.61.95,2.19,1.39.44.37.88,1.02.88,1.61s-.15,1.02-.36,1.46c-.07.22-.29.73-.37,1.97-.29,6.5-.44,9.85-.73,16.21,3.58-.22,6.86-.29,10.15-.37Z"/>
          <path class="cls-1" d="M239.45,266.15c0-.44.36-.8.8-.8s.95.07,1.24.15c2.48.51,5.55,1.9,8.03,3.8,2.04,1.61,3.72,3.58,3.72,6.06,0,1.75-1.02,2.77-2.34,2.77-1.39.07-1.97-.58-2.77-2.12-1.83-3.43-4.75-6.86-8.03-8.91-.37-.22-.66-.51-.66-.95ZM249.3,299.37c6.13-3.72,12.85-8.98,19.05-14.67,5.99-5.47,11.75-11.83,16.35-17.81.37-.44.73-.66,1.02-.66.44,0,1.09.36,1.09.8,0,.37-.15.8-.44,1.31-4.6,7.59-9.93,13.72-15.77,19.49-5.62,5.62-11.9,10.73-18.69,15.84-.8.58-1.53,1.24-1.83,1.97-.44.88-.95,1.24-1.9,1.24-1.17,0-2.85-.95-4.75-2.77-1.75-1.75-2.99-3.58-2.99-4.82,0-.8.29-1.46.66-1.46s.66.29.95.58c1.75,1.53,2.7,2.34,3.94,2.34.73,0,1.68-.44,3.29-1.39Z"/>
          <path class="cls-1" d="M234.34,350.47c0-.44.29-.73,1.09-.73,1.97,0,4.89.8,6.86,1.68,3.14,1.39,5.18,3.07,5.18,5.18s-1.17,2.92-2.55,2.92c-.95,0-1.97-.88-2.85-2.12-1.9-2.55-4.01-4.31-7.01-5.91-.44-.22-.73-.58-.73-1.02ZM247.63,374.7c7.66-4.09,14.6-8.76,21.46-14.09,5.47-4.31,10.51-8.76,15.18-13.65.73-.8,1.24-1.39,1.53-1.39.44,0,1.09.44,1.09.95,0,.29-.07.51-.8,1.53-3.87,5.55-9.2,10.66-15.33,15.91-6.79,5.77-13.8,10.66-21.02,15.18-.73.44-1.17.95-1.46,1.39-.37.58-1.24,1.46-2.19,1.46-1.17,0-2.77-1.24-4.31-2.85-1.46-1.53-2.77-3.5-2.77-5.47,0-1.02.15-1.9.73-1.9.44,0,.8.37,1.24,1.09.73,1.17,2.56,2.92,3.65,2.92.66,0,1.24-.15,2.99-1.09ZM243.46,335.58c0-.44.29-.73,1.09-.73,1.68,0,5.04,1.17,7.08,2.34,2.99,1.68,4.38,3.21,4.38,5.26,0,1.75-1.31,2.77-2.63,2.77-1.02,0-1.75-.8-2.26-1.53-1.83-2.85-4.09-5.11-7.08-7.23-.29-.22-.58-.44-.58-.88ZM277.04,330.17c2.26.8,4.09,1.83,5.4,2.92,1.53,1.24,3.14,3.14,3.14,4.75,0,1.31-.73,2.12-1.83,2.12-1.02,0-1.46-.58-2.41-2.41-.88-1.68-3.21-4.31-5.4-5.91-.29-.22-.44-.51-.44-.73,0-.44.37-.8.8-.8.22,0,.51,0,.73.07ZM283.61,325.79c1.68.44,3.8,1.46,5.18,2.41,1.68,1.17,3.29,2.99,3.29,4.67,0,1.24-.88,1.97-1.68,1.97-.88,0-1.39-.29-2.41-1.97-1.17-2.04-3.58-4.38-5.99-5.84-.22-.15-.29-.51-.29-.73,0-.37.29-.73.73-.73.22,0,.66.07,1.17.22Z"/>
          <path class="cls-1" d="M272.29,426.02c1.97,0,3.43-.07,4.6-.15.73-.07,1.31-.22,1.75-.44.51-.22,1.09-.51,1.83-.51,1.17,0,2.92.88,3.87,1.53,1.02.66,1.46,1.09,1.46,2.26,0,.73-.8,1.17-1.68,1.17-1.39,0-2.48-.22-3.72-.44-2.26-.29-5.77-.51-8.91-.51-3.43,0-6.79.07-10.22.29-4.38.29-8.18.88-11.83,1.39-1.02.15-1.75.37-2.19.66-.51.37-1.17.58-1.82.58-.95,0-2.12-.73-3.72-2.19-1.39-1.31-1.9-2.55-1.9-3.8,0-.51.44-.88.66-.88s.51.22.88.66c1.02,1.09,2.48,2.04,3.94,2.04.51,0,1.61-.07,3.72-.29,3.29-.37,7.37-.73,12.12-1.09.15-4.38.29-8.76.29-13.07,0-1.53-.15-2.34-.58-2.99-.29-.44-.66-.66-1.24-.95-3.94.29-5.77.36-7.01.36-1.39,0-2.19-.36-3.43-1.61-1.02-1.02-1.9-2.19-1.9-2.7,0-.37.37-.73.8-.73.36,0,.66.22.95.51,1.24,1.17,2.7,1.68,4.6,1.68s4.45-.15,7.66-.51c3.94-.44,6.94-.88,8.91-1.39.95-.22,1.83-.58,2.12-.73.66-.29,1.17-.58,1.97-.58,1.24,0,2.7.44,3.65.95.88.44,1.09.95,1.09,1.75,0,.95-.51,1.24-1.61,1.31-1.09.07-1.9.07-3.65.22-3.07.29-7.08.73-10.44,1.09.73.29,1.17.58,1.61.95.37.29.95.88.95,1.39,0,.44-.07.88-.29,1.17-.15.15-.29.51-.37,1.53-.29,4.45-.37,7.59-.58,12.19,2.55-.07,5.04-.15,7.67-.15Z"/>
          <path class="cls-1" d="M245.58,469.02c-.8-.66-1.75-1.24-2.48-1.53-.66-.29-.95-.44-.95-.88,0-.51.73-1.09,1.68-1.09,1.9,0,4.09,1.09,5.84,2.26,1.31.88,2.85,2.26,2.85,3.72,0,.58-.22,1.02-.88,1.61-.8.66-1.02,1.53-1.31,2.63-1.46,5.11-3.94,9.93-7.08,14.38-3.28,4.53-6.93,8.1-11.75,11.31-.37.22-.73.44-1.17.44-.37,0-.88-.22-.88-.58s0-.58.51-1.02c4.53-3.94,7.37-7.59,10-11.83,2.99-4.96,4.89-9.56,5.77-13.07.44-1.75.73-3.14.73-4.16,0-1.17-.29-1.68-.88-2.19ZM258.94,463.33c-.44-1.09-1.61-1.75-3.58-2.55-.37-.15-.66-.29-.66-.66,0-.58.95-1.31,2.19-1.31,1.17,0,2.92.58,5.26,1.97,1.61.95,2.77,1.9,2.77,3.14,0,.66-.36,1.24-.8,1.68-.44.51-.66,1.61-.66,2.63-.22,7.08-.44,14.45-.44,22.78,0,.37.07.58.37.58.22,0,.44-.07.95-.29,9.12-3.94,18.32-10,25.99-16.35.37-.29.58-.51.95-.51s.95.37.95.88c0,.22-.15.58-.37.8-6.86,7.96-16.21,14.23-25.48,19.64-.8.44-1.17.95-1.53,1.53-.29.51-.73.95-1.46.95-.88,0-2.19-1.24-2.99-2.12-.95-1.1-1.75-2.12-1.75-3.14,0-.37.22-.8.36-1.17.15-.44.29-.95.29-1.97.07-7.15.07-15.62.07-21.9,0-2.41,0-3.43-.44-4.6Z"/>
          <path class="cls-1" d="M237.04,541.73c3.14-2.41,7.08-5.55,10.95-8.47.88-.66,2.19-1.24,3.14-1.24,1.31,0,2.55.51,4.45,1.61,10.44,6.21,19.86,11.32,30.22,16.21,1.17.51,2.04,1.02,2.55,1.39.95.8,1.17,1.53,1.17,2.19,0,1.53-1.09,2.63-2.34,2.63-1.68,0-2.77-.51-3.94-1.17-9.27-5.33-18.32-11.17-27.23-17.16-1.46-.95-3.72-2.34-4.75-2.34s-2.12.95-2.85,1.61c-1.97,1.83-4.45,4.45-6.86,7.15-.51.51-1.46,1.61-1.9,2.26-.58.95-1.46,1.39-2.41,1.39-1.31,0-3.36-1.17-5.04-2.7-1.09-.95-1.97-2.55-1.97-3.43,0-.58.22-.88.58-.88.22,0,.44.15,1.02.51.95.66,2.26,1.39,2.92,1.39s1.53-.44,2.26-.95ZM282.52,526.69c0,3.5-2.85,6.35-6.35,6.35s-6.35-2.85-6.35-6.35,2.85-6.35,6.35-6.35,6.35,2.85,6.35,6.35ZM272.08,526.69c0,2.19,1.9,4.09,4.09,4.09s4.09-1.9,4.09-4.09-1.9-4.09-4.09-4.09-4.09,1.9-4.09,4.09Z"/>
          <path class="cls-1" d="M245.65,587.94c0-.29.51-.73.88-.73s.66.22.95.37c1.9,1.09,3.21,2.34,4.31,3.58,1.53,1.75,2.34,3.43,2.34,5.11s-1.17,2.7-2.34,2.7-1.9-.58-2.34-2.92c-.22-1.17-.66-2.55-1.31-3.87-.58-1.17-1.24-2.26-2.04-3.36-.29-.37-.44-.66-.44-.88ZM276.96,587.06c-.73-.37-1.68-.73-2.48-.88-.29-.07-.37-.22-.37-.51,0-.22.22-.51.51-.66.51-.29,1.24-.37,2.12-.37,1.61,0,4.09.88,5.62,1.9,1.17.8,2.26,1.9,2.26,2.92,0,.58-.44,1.02-.95,1.31-.66.37-1.09.58-1.68,1.68-3.43,6.72-6.64,11.83-11.9,17.52-4.82,5.26-11.02,10.07-17.74,13.21-.66.29-1.17.37-1.39.37-.51,0-.88-.51-.88-.95s.15-.66.66-.95c6.57-4.09,12.56-9.2,17.16-14.82,3.94-4.82,6.86-9.27,9.49-14.96.66-1.39,1.02-2.34,1.02-3.14,0-.73-.66-1.24-1.46-1.68ZM258.13,584.5c0-.29.58-.58.95-.58s.58.15.95.37c1.97,1.24,3.29,2.7,4.53,4.38,1.17,1.68,1.68,3.36,1.68,4.67,0,2.04-.95,3.29-2.34,3.29-1.17,0-1.97-.37-2.34-3.14-.15-1.31-.51-2.7-1.02-4.01-.51-1.46-1.24-2.7-2.04-3.94-.29-.44-.37-.66-.37-1.02Z"/>
          <path class="cls-1" d="M268.72,668.75c5.11,2.04,7.52,4.6,7.52,6.72,0,1.83-1.17,2.77-2.19,2.77-1.09,0-1.75-.44-2.85-1.68-1.83-2.04-4.23-3.72-6.5-5.11-2.55-1.53-5.4-2.63-7.59-3.21v12.41c0,4.89.15,14.31.15,17.23,0,2.41-.95,3.07-1.97,3.07-.88,0-1.17-.29-1.9-1.31-.73-1.02-1.61-2.99-1.61-4.45,0-1.1.29-1.68.58-2.19.22-.44.58-2.12.58-4.09.15-4.45.22-10.37.22-14.16.07-7.23.07-14.45.07-21.1,0-2.99,0-3.8-.29-4.38-.58-1.24-2.55-2.34-3.94-2.92-.73-.29-.8-.44-.8-.88,0-.58,1.09-1.09,1.82-1.09,1.68,0,4.16.66,5.99,1.61,1.68.88,3.14,2.26,3.14,3.5,0,.8-.51,1.53-1.31,2.19-.36.29-.44,1.09-.51,2.7-.15,3.14-.22,7.37-.22,11.75,3.21.29,7.88,1.17,11.61,2.63Z"/>
          <path class="cls-1" d="M266.39,780.88h3.94c2.41-3.43,4.09-6.94,5.4-9.93.73-1.61,1.1-2.77,1.46-3.94,5.04,2.04,5.99,2.55,5.99,3.29,0,.8-.66,1.09-2.7,1.24-2.55,3.43-5.11,6.35-8.54,9.34h11.9c2.99-3.65,3.28-3.8,3.79-3.8.37,0,.73.15,4.09,2.85,1.53,1.24,1.75,1.61,1.75,2.04,0,.51-.22.73-.95.73h-60.08c-1.9,0-3.36.07-5.11.37l-.73-2.7c2.04.44,3.65.51,5.77.51h19.12v-16.42h-17.08c-1.68,0-2.99.07-4.75.36l-.73-2.77c1.97.44,3.43.58,5.33.58h48.03c2.48-3.07,2.92-3.29,3.29-3.29.44,0,.95.22,3.79,2.48,1.31,1.09,1.53,1.46,1.53,1.9,0,.51-.22.73-.95.73h-23.58v16.42ZM257.26,730.65v-6.13h-15.18c-1.9,0-3.36.15-5.26.37l-.73-2.7c2.19.44,3.8.51,5.99.51h34.82c2.92-3.36,3.29-3.58,3.65-3.58.44,0,.8.22,4.01,2.77,1.46,1.17,1.68,1.53,1.68,1.97s-.22.66-.95.66h-23.65v6.13h23.36c1.97-2.12,2.19-2.41,2.7-2.41.37,0,.95.36,3.58,2.63,1.39,1.24,1.53,1.82,1.53,2.26,0,.8-.73,1.17-2.63,1.17-.95,0-1.53.29-2.26,1.02-1.24,1.17-2.41,2.34-4.31,3.79-.29.22-.73-.15-.58-.44,1.02-2.12,1.9-4.38,2.41-6.21h-23.8v4.96c0,6.57.22,11.02.22,12.85,0,1.31-1.02,1.83-2.77,1.83-1.53,0-2.12-.37-2.12-1.61,0-.95.29-4.67.29-11.24v-6.79h-21.83c-.22,5.18-2.63,8.91-5.26,8.91-1.46,0-2.55-1.17-2.55-2.63,0-1.17.44-1.75,1.75-2.56,3.07-1.97,4.6-4.31,4.82-8.1,0-.44.8-.44.88,0,.15.88.29,1.75.29,2.56h21.9ZM234.05,745.84c1.61.44,2.77.51,4.53.51h7.81c2.04-2.56,2.34-2.77,2.77-2.77s.8.22,3.43,2.26c.95.8,1.17,1.24,1.17,1.68s-.22.66-.88.66h-14.24c-1.24,0-2.41.15-4.01.36l-.58-2.7ZM236.02,754.45c1.83.44,3.43.58,5.4.58h33.14c2.48-2.85,2.77-3.07,3.21-3.07s.88.22,3.58,2.41c1.24.95,1.46,1.31,1.46,1.75,0,.51-.29.73-.95.73h-40.37c-1.68,0-3.14.15-4.67.44l-.8-2.85ZM236.89,767.37c5.4,2.04,8.25,5.11,8.25,7.96,0,2.34-1.17,3.36-2.41,3.36-1.31,0-1.75-.58-2.19-2.63-.8-3.29-1.83-5.62-4.09-8.1-.29-.29.15-.73.44-.58ZM236.97,738.1c1.68.37,2.92.51,4.53.51h5.26c1.9-2.34,2.34-2.63,2.63-2.63.36,0,.73.29,3.28,2.34.66.58.88,1.02.88,1.39,0,.44-.22.73-.8.73h-11.24c-1.02,0-2.26,0-3.79.29l-.73-2.63ZM262.3,764.45h-6.72v16.42h6.72v-16.42ZM265.07,738.1c1.68.44,2.85.51,4.53.51h5.26c1.97-2.41,2.34-2.63,2.7-2.63s.73.22,3.14,2.34c.73.58,1.02,1.02,1.02,1.39,0,.44-.22.73-1.02.73h-11.02c-1.17,0-2.48,0-3.94.29l-.66-2.63ZM265.22,745.84c1.75.44,3.07.51,4.82.51h7.81c2.19-2.7,2.48-2.85,2.92-2.85s.8.15,3.43,2.26c1.09.95,1.31,1.31,1.31,1.75s-.22.66-.88.66h-14.53c-1.31,0-2.63.15-4.23.36l-.66-2.7Z"/>
          <path class="cls-1" d="M235.36,864.68c0,1.46-1.02,1.9-2.92,1.9-1.31,0-1.9-.36-1.9-1.46,0-2.85.37-8.25.37-34.89,0-17.15,0-23.21-.37-27.89,2.04.88,3.43,1.53,5.26,2.77h48.25c2.19-2.34,2.48-2.48,2.85-2.48s.73.15,2.92,2.04c1.09.95,1.17,1.31,1.17,1.68,0,.51-.29,1.02-1.9,2.04v19.42c0,26.13.36,34.31.36,36.65,0,1.53-1.02,1.97-2.77,1.97-1.46,0-2.04-.37-2.04-1.53v-2.48h-49.27v2.26ZM284.64,806.94h-49.27v53.65h49.27v-53.65ZM261.35,843.22c2.48.8,4.89,1.68,7.3,2.63,2.19-1.61,3.65-3.14,5.18-4.82.95-1.02,1.61-1.9,2.19-2.99,3.58,2.48,4.23,3.14,4.23,3.72,0,.8-.8.88-2.77.73-2.48,1.61-4.67,2.85-7.37,4.01,5.69,2.63,8.69,5.4,8.69,7.96,0,1.24-.73,2.04-1.83,2.04-.8,0-1.46-.51-2.77-1.97-3.79-4.09-7.23-7.01-12.85-10v3.5c0,4.89.15,7.37.15,8.39,0,1.31-.88,1.9-2.55,1.9-1.31,0-1.75-.51-1.75-1.53,0-.58.22-3.72.22-8.69v-4.31c-5.33,5.26-12.26,9.12-19.64,11.68-.44.15-.73-.66-.37-.88,7.52-3.8,14.02-8.98,18.54-14.75h-7.15v.51c0,1.31-.51,1.75-2.26,1.75-1.24,0-1.68-.29-1.68-1.31,0-.51.15-1.97.15-6.28,0-3.29,0-4.82-.36-7.67,1.9.73,2.99,1.31,4.75,2.19h20.22c1.68-1.75,1.97-1.97,2.34-1.97s.73.22,2.41,1.53c1.09.88,1.31,1.17,1.31,1.61s-.37.73-1.83,1.61v1.9c0,4.16.15,5.4.15,5.69,0,1.1-.73,1.61-2.26,1.61-1.24,0-1.68-.29-1.68-1.09v-.07h-8.69v3.36ZM257.19,817.38h-9.64c-1.53,0-2.56.07-4.53.37l-.66-2.63c2.04.29,3.28.44,5.18.44h9.64v-.66c0-2.12-.07-4.09-.37-6.13,5.91.66,6.72,1.09,6.72,1.83,0,.44-.44.95-2.26,1.75v3.21h9.49c2.26-2.7,2.63-2.92,2.99-2.92.44,0,.88.22,3.43,2.34,1.09.95,1.31,1.31,1.31,1.75s-.22.66-.95.66h-16.28v5.55h12.99c2.12-2.7,2.56-2.92,2.92-2.92s.88.22,3.58,2.41c1.09.88,1.24,1.24,1.24,1.68,0,.36-.22.66-.95.66h-37.81c-1.46,0-2.48.07-4.38.36l-.73-2.63c2.04.37,3.21.44,5.11.44h13.94v-5.55ZM270.04,830.88h-21.24v7.15h21.24v-7.15Z"/>
        </g>
      </g>
      <g>
        <g>
          <g>
            <path class="cls-1" d="M101.49,18.48c-5.86-12.79-14.8-17.1-21.99-12.65-4.54,2.81-5.82,11.7-1.52,16.08,3,3.06,5.84.09,6.08-.27-.19.4-1.58,2.72.4,4.83,1.76,1.87,4.6.35,4.71.22-.07.31.18,2.85,1.75,3.68,2.15,1.14,4.13.15,4.56-.17.04.1,4.23,9.25,8.34,8.41,3.33-.68.37-14.24-2.33-20.12Z"/>
            <path class="cls-1" d="M46.01,18.48c5.86-12.79,14.8-17.1,21.99-12.65,4.54,2.81,5.82,11.7,1.52,16.08-3,3.06-5.84.09-6.08-.27.19.4,1.58,2.72-.4,4.83-1.76,1.87-4.6.35-4.71.22.07.31-.18,2.85-1.75,3.68-2.15,1.14-4.13.15-4.56-.17-.04.1-4.23,9.25-8.34,8.41-3.33-.68-.37-14.24,2.33-20.12Z"/>
            <path class="cls-1" d="M135.53,36.93c-11.18-5.01-20.57,5.87-18.28,12.35.31.88,1.45,1.73,2.21,1.15,4.43-3.3,7.47-4.07,11.05-1.92,3.39,2.04,4.85,7.98,3.6,10.38-.34.64-1.19.84-1.79.41-2.4-1.76-5.29-2.83-8.33-3.07l-21.94-1.74c-6.21-.59-11.77-3.93-15.05-9.04l-5.49-8.55-4.45-8.36c-.36-.68-.96-1.19-1.66-1.47-.62-.24-1.31.15-1.39.79l-.69,5.32c-.08.59-.54,1.06-1.15,1.16l-1.41.23c-1.37.22-2.58.97-3.36,2.07l-3,4.21c-.81,1.14-1.96,2.03-3.28,2.56l-4.08,1.62c-1.17.46-1.97,1.51-2.09,2.72l-.18,1.74c-.23,2.23,1.61,4.16,3.93,4.13l5.72-.06c1.53-.02,2.92.82,3.59,2.14l10.64,21.01c.92,1.82,1.59,3.76,1.98,5.75l3.65,18.69c.03.25-.1.49-.33.6l-.56.27c-.62.3-1.06.86-1.18,1.52-.15.82.51,1.56,1.38,1.56l3.68-.04c1.37-.01,2.52-.98,2.72-2.28h0c.96-6.11,1.48-12.38,2.4-18.44h0c.59-2.08,2.49-3.56,4.72-3.68l16.31-.87c1.67-.09,3.32.44,4.59,1.49l7.04,5.77c1.39,1.14,2.2,2.79,2.24,4.54l-.42,9.54c0,.26-.16.49-.41.57l-.18.06c-.71.24-1.25.81-1.43,1.52v.04c-.22.84.45,1.65,1.35,1.64l4.24-.04c1.28-.01,2.38-.86,2.68-2.06l.95-3.8c.25-1.85,1.51-7.57,2.97-10.82,2.89-6.46,3.69-12.7,3.69-12.7.29-3.86-2.36-8.01-3.53-10.45-.24-.51-.07-1.1.41-1.42,5.85-3.93,11.08-20.87-2.04-26.75Z"/>
            <path class="cls-1" d="M37.58,96.23l1.7,2.8c.28.3.7.43,1.1.32l9.75-2.3c.19-.05.39-.01.55.1,3.21,2.34,6.7,3.93,10.48,3.98.18,0,.33.12.38.29.34,1.18.75,2.62.91,3.17.04.15.14.36.38.36l3.14.03c.37,0,.58-.2.58-.52,0,0-.02-.52-.61-.52l-2.14-.03c-.19.02-.3-.07-.35-.22l-.65-2.32c-.05-.17.07-.34.24-.36,6.13-.75,9.16-5.37,11.24-10.77.26-.67.59-1.85.78-3.14.03-.17.16-.3.33-.32l1.76-.18c.32-.03.43-.45.15-.63l-1.85-1.21c-.15-.1-.25-.27-.27-.45-.02-.21-.05-.41-.08-.61-.42-2.28-2-4.08-4.13-4.47-2.62-.48-4.96,1.16-6.38,3.25-.66.98-1.37,2.26-2.42,2.87-1.27.73-7.41,4.36-9.99,5.9-.3.18-.32.6-.04.81.48.36,1.12.77,1.93,1.13,1.12.49,2.31.77,3.55.83,1.56.08,3.2-.2,4.87-.81,1.87-.69,3.51-2.08,4.64-3.91.15-.24.46-.31.69-.16.23.15.29.46.15.7-1.24,2.02-3.07,3.54-5.14,4.31-1.97.73-3.57.87-5.26.87-1.36,0-2.68-.37-3.91-.92-.75-.33-1.38-.71-1.88-1.06-.13-.09-.31-.09-.44,0-.4.29-.79.58-1.16.87-.18.13-.38.22-.6.24l-11.44,1.14c-.68.06-.73.71-.55.9Z"/>
            <path class="cls-1" d="M2.45,73.76s0-1.58.31-3.5c.1-.62,1.15-6.6,6.3-10.28,4.02-2.87,6.67-2.84,10.21-6.27.79-.77,2.47-2.57,3.11-5.08.14-.56.93-4.01.93-4.01-2.1,1.86-11.76,4.2-12.46,1.68-.39-3.78,8.19-6.37,9.49-6.3-3.81-.2-7.36-2.68-7.35-3.67.03-.75.28-1.16,2.59-1.47,3.51-.48,8.95,2.19,9.59,2.73.41-.36,2.52-2.21,6.45-1.42,1.48.3,5.66,1.65,7.64,4.79,1.23,1.95-.02,4.45-.12,4.61-1.05,1.89-3.13,2.11-3.72,3.32-.51,1.03-.09,1.92.63,4.01.36,1.02.57,3.33.57,3.33,1.47.16,4.1,3.05,4.36,6.09.38,4.45-2.15,4.15-2.15,4.15-2.1,0-.84-4.41-3.05-3.39-.33,1.14.58,9.19-7.28,13.75.69-.4-2.24,1.4-1.26,1.54.37.08,2.39.08,3.27,1.26.28.38.69,1.21.37,1.76-.32.8-4.87,1.01-5.88,1.04l-9.46.1c-6.5-.16-9.65-1.92-10.13-2.33-.31.08-.78.35-1.4.4-3.55.26-6.12-4.62-1.55-6.85Z"/>
            <path class="cls-1" d="M114.31,140.34c-1.35-.83-2.47-.2-4.89.49-1.99.57-12.73-.23-12.52-3.76.24-2.21,5.02-2.87,6.9-3.21,1.73-.31,2.77-.86,3.39-1.55.53-.59,1.53-2.61,1.88-3.28.36-.67-.32-1.44-1.17-2.38-.85-.93-.71-1.62-.86-3.3-.15-1.68-.88-2.04-1.84-3.15-.96-1.11-2.3-1.96-4.34-2.92.43-3.97.02-4.67.02-4.67-.11-.5-.77-1.59-1.74-.41-.45.55-2.33,2.59-3.52,3.52-5.4,1.64-6.9,5.94-9.12,7.09-3.97,3.28-8.72,1.88-8.96,1.78-3.43-1.58-4.68-4.96-7.72-8.3-1.02-1.13-4.39-6.66-10.93-8.21-3.33-.79-6.28-.47-8.76.41-5.26-2.73-14.8-5.07-21.94,1.57-3.32,3.09-5.07,6.79-5.2,11.01-.29,9.29,7.55,17.66,7.88,18.02.49.51,1.14.77,1.79.77.61,0,1.22-.22,1.7-.68.99-.94,1.03-2.5.09-3.49-.07-.07-6.76-7.21-6.53-14.47.09-2.9,1.28-5.37,3.63-7.55,4.31-4,9.66-3.3,13.32-2.05-.99.89-1.76,1.82-2.31,2.66-1.45,2.46-1.62,4.91-1.71,6.31-.25,3.71,1.14,6.69,1.99,8.65.96,2.2,1.44,3.27,2.72,5.99,1.57,3.33,1.16,6.04,1.16,6.42-.02,1.4.07,2.44.47,3.62.61,1.78,2.07,4.5,6.11,5.35,0,0,4.65,1.7,4.83.47.46-3.15-3.3-3.75-4.37-4.8-.67-.66-.92-1.69-.8-2.49.15-.99.82-1.31,1.57-2.45.45-.68.99-1.74,1.24-3.31,1.67,1.25,4.12,2.53,6.99,4.09,9.63,5.23,16.16,5.47,22.44,5.21,3.78-.16,7.03-1.47,7.74-1.29,0,0,8.93-.08,13.07-.09,0,0,4.39-.32,7.84-2.37,2.7-1.61,1.43-2.64.45-3.24Z"/>
          </g>
          <g>
            <g>
              <g>
                <path class="cls-1" d="M115.39,131.42c7.45-3.07,21.25-14.57,24.59-22.8.3-.73-.25-.99-.66-.2-4.44,8.52-17.88,18.16-24.26,21.36-1.24.62-.98,1.99.33,1.64Z"/>
                <path class="cls-1" d="M125.47,118.41c-2.85-5.19-5.72,4.05-1.6,4.01,2.15-.02,2.22-2.64,1.6-4.01Z"/>
                <path class="cls-1" d="M119.53,121.88c-3.21-5.85-6.44,4.56-1.8,4.52,2.42-.02,2.5-2.98,1.8-4.52Z"/>
                <path class="cls-1" d="M122.21,129.51c-1.12,1.93.6,3.37,1.66,3.78,1.49.58,4.27.07,4.41-1.63.1-1.25-.75-2.34-1.69-2.72-2.24-.89-3.91-.25-4.38.56Z"/>
                <path class="cls-1" d="M129.84,123.89c-3.22-.05-3.38,3.98-.19,4.23,4.89.38,4.68-4.16.19-4.23Z"/>
                <path class="cls-1" d="M130.27,115.54c-.2-.97-1.42-2.34-2.48-1.27-1.4,1.43-.51,3.19-.09,3.51,1.73,1.36,3.02-.95,2.57-2.24Z"/>
                <path class="cls-1" d="M134.18,111.99c-.2-.97-1.36-2.36-2.33-1.31-1.28,1.4-.42,3.17-.03,3.5,1.64,1.39,2.8-.9,2.36-2.19Z"/>
                <path class="cls-1" d="M138.16,115.14c-2.8.53-1.38,3.82,1.37,2.46,2.18-1.07.96-2.96-1.37-2.46Z"/>
                <path class="cls-1" d="M134.52,119.36c-3.5.3-2.15,4.37,1.4,3.07,2.8-1.02,1.53-3.4-1.4-3.07Z"/>
                <path class="cls-1" d="M135.05,108.72c-.56,3.02,3.04,2.87,2.27-.05-.42-1.59-1.8-1.81-2.27.05Z"/>
                <path class="cls-1" d="M139.75,112.88c.83,1.17,3.43-.22,3.2-1.4-.36-1.92-4.41-.29-3.2,1.4Z"/>
              </g>
              <path class="cls-1" d="M60.77,74.14c0-3.72-3.77-16.11-7.83-16.11s-7.85,12.39-7.85,16.11c0,3.29,2.97,5.86,6.46,6.41-.03,1.26-.05,2.6-.08,4.04,0,0-.02.39.37.39l2.1-.02c.46,0,.44-.39.44-.39,0,0-.07-1.62-.17-4,3.54-.51,6.55-3.1,6.55-6.43ZM57.74,74.64l-4.29,1.98v2.01c0,.26-.21.48-.48.48s-.48-.21-.48-.48v-2.02l-4.3-2.11c-.24-.12-.33-.4-.22-.64.12-.24.4-.33.64-.22l3.88,1.91v-2.68l-3.51-1.69c-.24-.11-.34-.4-.22-.64.12-.24.4-.34.64-.22l3.1,1.49v-2.61l-2.58-1.2c-.24-.11-.34-.4-.23-.64.11-.24.39-.34.64-.23l2.18,1.02v-3.44c0-.26.21-.48.48-.48s.48.21.48.48v3.46l2.19-.96c.24-.1.52,0,.63.25.11.24,0,.52-.25.63l-2.57,1.12v2.62l3.11-1.41c.24-.11.52,0,.63.24.11.24,0,.52-.24.63l-3.5,1.58v2.69l3.89-1.79c.24-.11.52,0,.63.23.11.24,0,.52-.23.63Z"/>
              <g>
                <path class="cls-1" d="M107.56,92.75c-2.13,3.33-4.24,6.66-5.84,10.29-.24.54-.33,1.08-.64,1.59-.07.12-.27.23-.4.23h-5.51c-.34,0-.32-.22-.24-.43.3-.74.58-1.57.94-2.28,1.85-3.61,4.27-6.73,7.77-8.89,1.06-.66,3.63-2.01,4.12-1.76.49.35-.09,1.07-.21,1.26Z"/>
                <path class="cls-1" d="M114.85,93.65c-1.97,3.08-3.92,6.17-5.4,9.53-.22.5-.3,1-.59,1.47-.07.11-.25.21-.37.21h-5.09c-.31,0-.3-.21-.22-.4.28-.68.54-1.45.87-2.11,1.71-3.34,3.94-6.23,7.18-8.23.98-.61,3.35-1.86,3.81-1.63.45.32-.08.99-.19,1.17Z"/>
                <path class="cls-1" d="M121.34,94.83c-1.76,2.75-3.5,5.51-4.82,8.51-.2.45-.27.89-.53,1.31-.06.1-.22.19-.33.19h-4.55c-.28,0-.27-.18-.2-.36.25-.61.48-1.3.78-1.88,1.53-2.98,3.52-5.57,6.42-7.36.88-.54,3-1.66,3.4-1.46.41.29-.07.89-.17,1.04Z"/>
              </g>
              <path class="cls-1" d="M119.58,27.15c.04-.31.01-.62-.07-.91,2.26-.39,6.37-1.37,5.36-3.31-1.01-1.93-4.15.84-5.77,2.47-.18-.24-.41-.45-.68-.61,1.32-1.89,3.46-5.44,1.39-6.09-2.06-.64-2.32,3.45-2.31,5.76-.29-.04-.58-.02-.86.04-.35-2.29-1.25-6.25-3.18-5.3-1.92.95.64,4.04,2.25,5.72-.25.19-.46.42-.63.7-1.88-1.36-5.28-3.47-5.96-1.45-.68,2.02,3.3,2.39,5.63,2.43-.04.32,0,.64.08.94-2.29.37-6.2,1.3-5.24,3.21.96,1.92,4.06-.69,5.72-2.31.2.23.44.43.73.58-1.35,1.88-3.5,5.36-1.45,6.03,2.06.67,2.38-3.46,2.39-5.76.31.02.62-.01.91-.1.37,2.27,1.33,6.34,3.27,5.35,1.95-1-.83-4.18-2.44-5.8.23-.19.43-.43.58-.7,1.86,1.33,5.47,3.56,6.13,1.47.67-2.09-3.56-2.36-5.85-2.35ZM118.35,27.23c-.2.65-.9,1.02-1.55.82-.65-.2-1.02-.9-.82-1.55.2-.65.9-1.02,1.55-.82.65.2,1.02.9.82,1.55Z"/>
            </g>
            <path class="cls-1" d="M11.75,98.4c-.15-.12-.3-.25-.43-.39-.76-.86-1.08-2-1.22-2.94-.22.16-.5.26-.84.31.16.96.51,2.05,1.21,2.97.48.1.91.27,1.32.47-.02-.13-.04-.27-.05-.41Z"/>
            <path class="cls-1" d="M18.64,105.86s-.56-.12-.81-.19c-.71.26-1.91.56-3.7.56-.52,0-1.09-.03-1.71-.09-1.97-.19-3.19-.86-3.95-1.54-1.17,1.05-1.89,2.34-1.94,3.61l5.41-.53-4.64,2.84c1.37,1.67,4.31,2.26,7.26,1.28,3.03-1.01,5.07-3.29,5.06-5.5,0,0-.61-.18-.99-.45Z"/>
          </g>
          <g>
            <g>
              <path class="cls-1" d="M145.33,103.42c-.23-.44-.5-.82-.81-1.13.42-.07.87-.21,1.31-.44,1.41-.72,2.2-1.98,1.77-2.82-.43-.84-1.92-.93-3.33-.21-.43.22-.81.5-1.11.8-.07-.42-.21-.86-.43-1.3-.71-1.41-1.97-2.21-2.81-1.79-.84.43-.94,1.91-.23,3.33.22.44.5.83.8,1.13-.42.07-.87.21-1.32.44-1.41.72-2.21,1.98-1.78,2.82.43.84,1.92.94,3.33.22.44-.22.83-.5,1.13-.81.07.42.21.87.44,1.31.72,1.41,1.98,2.21,2.82,1.78.84-.43.94-1.92.22-3.33Z"/>
              <polygon class="cls-1" points="45.87 44.81 47.49 48.1 51.11 48.63 48.48 51.18 49.1 54.8 45.86 53.09 42.61 54.79 43.23 51.18 40.61 48.62 44.24 48.09 45.87 44.81"/>
              <polygon class="cls-1" points="80.67 108.79 82.28 112.08 85.91 112.61 83.28 115.17 83.9 118.78 80.65 117.07 77.41 118.77 78.03 115.16 75.41 112.6 79.04 112.08 80.67 108.79"/>
              <path class="cls-1" d="M40.59,24.43c-.26-.27-.62-.42-.99-.42h-.01c-.66,0-1.22.46-1.37,1.09l-4.09-.03,2.91-2.89c.55.35,1.28.28,1.75-.19.55-.55.55-1.44,0-1.99-.55-.55-1.44-.55-1.99,0-.47.47-.55,1.2-.2,1.75l-2.91,2.89v-4.1c.64-.14,1.1-.71,1.1-1.37,0-.78-.63-1.41-1.41-1.41s-1.41.63-1.41,1.41c0,.66.46,1.23,1.1,1.37v4.06l-2.8-2.95c.36-.54.31-1.27-.15-1.75-.26-.27-.61-.43-.99-.44-.39-.02-.73.13-1.01.39-.27.26-.43.61-.44.98,0,.38.13.73.39,1.01.46.48,1.18.57,1.74.24l2.82,2.97-4.1-.09c-.13-.64-.69-1.11-1.35-1.13-.01,0-.02,0-.03,0-.76,0-1.39.61-1.41,1.38,0,.38.13.73.39,1s.61.43.99.43c.66,0,1.24-.44,1.4-1.07l4.09.09-2.95,2.85c-.55-.36-1.27-.3-1.75.16-.27.26-.42.61-.43.99s.13.73.39,1c.26.27.61.42.99.43.37,0,.73-.13,1-.39.48-.46.56-1.19.23-1.74l2.95-2.84-.06,4.1c-.64.13-1.11.69-1.12,1.36,0,.38.14.73.4,1,.26.27.61.42.99.43h.02c.37,0,.72-.14.98-.4.27-.26.42-.61.43-.99,0-.66-.45-1.24-1.08-1.39l.06-4.09,2.87,2.93c-.35.55-.29,1.28.18,1.75.26.27.62.42.99.42h.02c.37,0,.72-.14.98-.4.27-.26.42-.62.42-.99s-.14-.73-.4-1c-.46-.47-1.19-.56-1.75-.21l-2.86-2.93,4.1.03c.14.64.7,1.1,1.37,1.11h.01c.37,0,.72-.14.99-.41.27-.26.42-.62.42-.99,0-.38-.14-.73-.4-1Z"/>
              <g>
                <path class="cls-1" d="M110.99,43.95c-.43.18-.8.42-1.1.69-.04-.4-.15-.83-.33-1.26-.59-1.36-1.73-2.18-2.54-1.83-.81.35-.99,1.74-.4,3.11.18.42.42.79.68,1.09-.4.04-.82.14-1.24.33-1.37.58-2.19,1.72-1.84,2.53.35.81,1.74,1,3.1.41.43-.18.8-.42,1.11-.68.04.4.15.83.33,1.26.59,1.37,1.72,2.19,2.53,1.84.81-.35,1-1.74.41-3.1-.18-.43-.42-.8-.69-1.11.4-.04.83-.15,1.26-.33,1.36-.59,2.19-1.73,1.84-2.54-.35-.81-1.74-.99-3.11-.4Z"/>
                <path class="cls-1" d="M100.67,44.49c-.34-.11-.68-.15-.99-.15.18-.25.33-.56.43-.9.34-1.1.08-2.15-.57-2.35-.65-.2-1.45.53-1.79,1.62-.1.34-.15.67-.15.98-.25-.18-.55-.33-.89-.43-1.09-.34-2.15-.09-2.35.56-.2.65.52,1.46,1.61,1.8.34.11.68.16.99.15-.18.25-.33.56-.44.9-.34,1.09-.09,2.15.56,2.35.65.2,1.45-.52,1.79-1.62.11-.34.15-.68.15-.99.25.18.56.33.9.44,1.1.34,2.15.08,2.35-.57.2-.65-.52-1.45-1.62-1.79Z"/>
              </g>
            </g>
            <g>
              <path class="cls-1" d="M8.89,90.17c.13.16.24.32.35.47.45-.89,1.08-1.75,1.5-2.27-.37-.74-1.02-1.97-1.62-2.72-.14.2-.34.52-.55.89.51,1.65.36,3.33.32,3.62Z"/>
              <path class="cls-1" d="M8.4,89.58c.03-.79-.02-2.24-.56-3.49-.29.33-.76,1.02-.99,2.13.57.36,1.1.85,1.55,1.36Z"/>
              <path class="cls-1" d="M11.24,88.59c-.43.53-1.21,1.57-1.66,2.56.19.3.31.51.34.55.08.14,1.18,1.96.52,3.01.16-.04.35-.12.54-.29.48-.43,1.45-1.83.26-5.84Z"/>
              <path class="cls-1" d="M9.47,91.97s0,0,0-.01c-.01-.03-1.33-2.37-2.95-3.34-.2.99-.67,3.94.37,5.41.35.5.83.77,1.47.83.85.08,1.41-.06,1.64-.42.41-.66-.24-2.01-.53-2.47Z"/>
              <path class="cls-1" d="M15.83,98.64c.07-.09.18-.12.29-.08.22.08.43.17.64.26,0-.49-.05-1.01-.22-1.52-.43-1.26-1.45-2.25-3.05-2.94-.41.65-1.78,3.04-1.02,4.95.33.84,1.03,1.49,2.09,1.95.32-1.4,1.22-2.55,1.28-2.62Z"/>
              <path class="cls-1" d="M26.38,94.64c-.88.1-4.05.61-5.33,2.63-.44.7-.61,1.53-.52,2.46,1.8-.81,4.01-.47,4.13-.45.08.01.14.07.17.14.24-.22.47-.47.67-.74.8-1.1,1.09-2.46.87-4.03Z"/>
              <path class="cls-1" d="M24.89,99.74c.05,1.39-.23,2.55-.83,3.47,1.07-.12,2.32-.17,3.58.02,1.4-.73,2.34-1.94,2.8-3.63-.81-.2-3.51-.75-5.55.14Z"/>
              <path class="cls-1" d="M29.17,104.1c-1.88-.63-3.98-.54-5.56-.31-.05.06-.1.12-.16.18-1.45,1.43-3.55,1.58-4.36,1.58-.03,0-.04,0-.06,0l-.05.03c.7.35,2.44,1.01,5.46.9,3.3-.12,4.42-1.76,4.73-2.38Z"/>
              <path class="cls-1" d="M19.16,100.75s.05-.07.08-.1c.24-.26.52-.48.82-.66-.16-1.13.02-2.13.56-2.98.17-.27.38-.51.6-.74-.26-1.52-1.19-2.84-2.76-3.95-.41.47-1.58,1.92-2.09,3.61.27.38.49.78.64,1.22.22.66.27,1.31.24,1.92.85.46,1.49,1.02,1.91,1.68Z"/>
              <path class="cls-1" d="M24.38,99.76c-.76-.08-3.41-.24-4.77,1.23-.07.07-.13.16-.19.24.05.12.11.24.15.37.44,1.34.05,2.65-.3,3.43.84-.03,2.61-.23,3.82-1.42.91-.9,1.34-2.19,1.29-3.84Z"/>
              <path class="cls-1" d="M14.63,103.3s0,0,0,0c-1.55-.43-4.29-.97-6.74-.31.27.63,1.3,2.33,4.58,2.65,2.08.2,3.56,0,4.52-.25-1.22-.48-2.01-1.17-2.35-2.09Z"/>
              <path class="cls-1" d="M14.45,101.94c-.05-.08-.09-.15-.15-.23-1.16-.52-1.94-1.25-2.32-2.21,0-.01,0-.03-.01-.04-1.3-.76-2.77-.92-4.39-.47.17.56.66,2,1.56,3.26,2.02-.23,4.01.13,5.34.48-.04-.26-.05-.53-.03-.79Z"/>
              <path class="cls-1" d="M16.12,99.1c-.38.54-1.6,2.45-1.01,4.03.4,1.07,1.56,1.81,3.45,2.2.27-.48,1.04-2.05.54-3.58-.38-1.14-1.38-2.03-2.98-2.65Z"/>
            </g>
          </g>
        </g>
        <g>
          <path class="cls-1" d="M87.19,229.3c2.56-.07,4.89-.15,6.21-.22.95-.07,1.97-.22,2.48-.44.66-.37,1.17-.73,2.04-.73,1.02,0,3.43,1.17,5.04,2.26.95.58,1.39,1.31,1.39,1.97,0,1.02-.88,1.75-1.9,1.75-1.31,0-3.28-.37-4.82-.58-2.92-.37-5.91-.51-8.83-.58-5.26-.07-10.51.15-15.69.51-5.62.37-11.1,1.17-16.5,1.9-1.24.15-1.9.51-2.26.73-.73.37-1.53.44-1.9.44-1.02,0-2.77-1.09-4.75-3.36-1.17-1.31-1.61-2.7-1.61-3.72,0-.44.37-.88.58-.88.29,0,.58.15.95.51,1.61,1.75,3.43,2.55,5.26,2.63,1.31.07,2.85-.07,4.6-.22,4.23-.44,9.05-.88,15.55-1.46.15-3.43.22-7.15.29-11.02.07-2.85.07-5.47.07-7.66,0-.95-.22-1.46-.73-2.12-.36-.44-.88-.95-1.61-1.53-1.17.07-2.63.22-5.62.44-1.31.07-2.26.15-3.65.15-1.75,0-2.92-.58-4.53-2.19-1.31-1.31-1.97-2.41-1.97-2.99,0-.51.44-.8.8-.8s.8.15,1.02.36c1.82,1.61,4.23,2.41,6.79,2.41,1.39,0,5.04-.29,9.2-.8,5.04-.58,9.05-1.31,11.53-1.9,1.24-.29,2.34-.73,2.7-.95.88-.44,1.31-.66,2.26-.66,1.68,0,3.14.51,4.82,1.46.66.37,1.02,1.09,1.02,1.61,0,.8-.66,1.39-1.46,1.53-1.24.22-2.55.29-3.87.37-5.04.44-10,1.02-14.67,1.53.95.44,1.61.95,2.19,1.39.44.37.88,1.02.88,1.61s-.15,1.02-.36,1.46c-.07.22-.29.73-.37,1.97-.29,6.5-.44,9.85-.73,16.21,3.58-.22,6.86-.29,10.15-.37Z"/>
          <path class="cls-1" d="M54.78,266.16c0-.44.36-.8.8-.8s.95.07,1.24.15c2.48.51,5.55,1.9,8.03,3.8,2.04,1.61,3.72,3.58,3.72,6.06,0,1.75-1.02,2.77-2.34,2.77-1.39.07-1.97-.58-2.77-2.12-1.83-3.43-4.75-6.86-8.03-8.91-.37-.22-.66-.51-.66-.95ZM64.63,299.38c6.13-3.72,12.85-8.98,19.05-14.67,5.99-5.47,11.75-11.83,16.35-17.81.37-.44.73-.66,1.02-.66.44,0,1.09.36,1.09.8,0,.37-.15.8-.44,1.31-4.6,7.59-9.93,13.72-15.77,19.49-5.62,5.62-11.9,10.73-18.69,15.84-.8.58-1.53,1.24-1.83,1.97-.44.88-.95,1.24-1.9,1.24-1.17,0-2.85-.95-4.75-2.77-1.75-1.75-2.99-3.58-2.99-4.82,0-.8.29-1.46.66-1.46s.66.29.95.58c1.75,1.53,2.7,2.34,3.94,2.34.73,0,1.68-.44,3.29-1.39Z"/>
          <path class="cls-1" d="M49.67,350.48c0-.44.29-.73,1.09-.73,1.97,0,4.89.8,6.86,1.68,3.14,1.39,5.18,3.07,5.18,5.18s-1.17,2.92-2.55,2.92c-.95,0-1.97-.88-2.85-2.12-1.9-2.55-4.01-4.31-7.01-5.91-.44-.22-.73-.58-.73-1.02ZM62.95,374.71c7.66-4.09,14.6-8.76,21.46-14.09,5.47-4.31,10.51-8.76,15.18-13.65.73-.8,1.24-1.39,1.53-1.39.44,0,1.09.44,1.09.95,0,.29-.07.51-.8,1.53-3.87,5.55-9.2,10.66-15.33,15.91-6.79,5.77-13.8,10.66-21.02,15.18-.73.44-1.17.95-1.46,1.39-.37.58-1.24,1.46-2.19,1.46-1.17,0-2.77-1.24-4.31-2.85-1.46-1.53-2.77-3.5-2.77-5.48,0-1.02.15-1.9.73-1.9.44,0,.8.37,1.24,1.09.73,1.17,2.56,2.92,3.65,2.92.66,0,1.24-.15,2.99-1.09ZM58.79,335.58c0-.44.29-.73,1.09-.73,1.68,0,5.04,1.17,7.08,2.34,2.99,1.68,4.38,3.21,4.38,5.26,0,1.75-1.31,2.77-2.63,2.77-1.02,0-1.75-.8-2.26-1.53-1.83-2.85-4.09-5.11-7.08-7.23-.29-.22-.58-.44-.58-.88ZM92.37,330.18c2.26.8,4.09,1.83,5.4,2.92,1.53,1.24,3.14,3.14,3.14,4.75,0,1.31-.73,2.12-1.83,2.12-1.02,0-1.46-.58-2.41-2.41-.88-1.68-3.21-4.31-5.4-5.91-.29-.22-.44-.51-.44-.73,0-.44.37-.8.8-.8.22,0,.51,0,.73.07ZM98.94,325.8c1.68.44,3.8,1.46,5.18,2.41,1.68,1.17,3.29,2.99,3.29,4.67,0,1.24-.88,1.97-1.68,1.97-.88,0-1.39-.29-2.41-1.97-1.17-2.04-3.58-4.38-5.99-5.84-.22-.15-.29-.51-.29-.73,0-.37.29-.73.73-.73.22,0,.66.07,1.17.22Z"/>
          <path class="cls-1" d="M87.62,426.03c1.97,0,3.43-.07,4.6-.15.73-.07,1.31-.22,1.75-.44.51-.22,1.09-.51,1.83-.51,1.17,0,2.92.88,3.87,1.53,1.02.66,1.46,1.09,1.46,2.26,0,.73-.8,1.17-1.68,1.17-1.39,0-2.48-.22-3.72-.44-2.26-.29-5.77-.51-8.91-.51-3.43,0-6.79.07-10.22.29-4.38.29-8.18.88-11.83,1.39-1.02.15-1.75.37-2.19.66-.51.37-1.17.58-1.82.58-.95,0-2.12-.73-3.72-2.19-1.39-1.31-1.9-2.55-1.9-3.8,0-.51.44-.88.66-.88s.51.22.88.66c1.02,1.09,2.48,2.04,3.94,2.04.51,0,1.61-.07,3.72-.29,3.29-.37,7.37-.73,12.12-1.09.15-4.38.29-8.76.29-13.07,0-1.53-.15-2.34-.58-2.99-.29-.44-.66-.66-1.24-.95-3.94.29-5.77.36-7.01.36-1.39,0-2.19-.36-3.43-1.61-1.02-1.02-1.9-2.19-1.9-2.7,0-.37.37-.73.8-.73.36,0,.66.22.95.51,1.24,1.17,2.7,1.68,4.6,1.68s4.45-.15,7.66-.51c3.94-.44,6.94-.88,8.91-1.39.95-.22,1.83-.58,2.12-.73.66-.29,1.17-.58,1.97-.58,1.24,0,2.7.44,3.65.95.88.44,1.09.95,1.09,1.75,0,.95-.51,1.24-1.61,1.31-1.09.07-1.9.07-3.65.22-3.07.29-7.08.73-10.44,1.09.73.29,1.17.58,1.61.95.37.29.95.88.95,1.39,0,.44-.07.88-.29,1.17-.15.15-.29.51-.37,1.53-.29,4.45-.37,7.59-.58,12.19,2.55-.07,5.04-.15,7.67-.15Z"/>
          <path class="cls-1" d="M60.91,469.03c-.8-.66-1.75-1.24-2.48-1.53-.66-.29-.95-.44-.95-.88,0-.51.73-1.09,1.68-1.09,1.9,0,4.09,1.09,5.84,2.26,1.31.88,2.85,2.26,2.85,3.72,0,.58-.22,1.02-.88,1.61-.8.66-1.02,1.53-1.31,2.63-1.46,5.11-3.94,9.93-7.08,14.38-3.28,4.53-6.93,8.1-11.75,11.31-.37.22-.73.44-1.17.44-.37,0-.88-.22-.88-.58s0-.58.51-1.02c4.53-3.94,7.37-7.59,10-11.83,2.99-4.96,4.89-9.56,5.77-13.07.44-1.75.73-3.14.73-4.16,0-1.17-.29-1.68-.88-2.19ZM74.27,463.33c-.44-1.09-1.61-1.75-3.58-2.55-.37-.15-.66-.29-.66-.66,0-.58.95-1.31,2.19-1.31,1.17,0,2.92.58,5.26,1.97,1.61.95,2.77,1.9,2.77,3.14,0,.66-.36,1.24-.8,1.68-.44.51-.66,1.61-.66,2.63-.22,7.08-.44,14.45-.44,22.78,0,.37.07.58.37.58.22,0,.44-.07.95-.29,9.12-3.94,18.32-10,25.99-16.35.37-.29.58-.51.95-.51s.95.37.95.88c0,.22-.15.58-.37.8-6.86,7.96-16.21,14.23-25.48,19.64-.8.44-1.17.95-1.53,1.53-.29.51-.73.95-1.46.95-.88,0-2.19-1.24-2.99-2.12-.95-1.1-1.75-2.12-1.75-3.14,0-.37.22-.8.36-1.17.15-.44.29-.95.29-1.97.07-7.15.07-15.62.07-21.9,0-2.41,0-3.43-.44-4.6Z"/>
          <path class="cls-1" d="M52.37,541.74c3.14-2.41,7.08-5.55,10.95-8.47.88-.66,2.19-1.24,3.14-1.24,1.31,0,2.55.51,4.45,1.61,10.44,6.21,19.86,11.32,30.22,16.21,1.17.51,2.04,1.02,2.55,1.39.95.8,1.17,1.53,1.17,2.19,0,1.53-1.09,2.63-2.34,2.63-1.68,0-2.77-.51-3.94-1.17-9.27-5.33-18.32-11.17-27.23-17.16-1.46-.95-3.72-2.34-4.75-2.34s-2.12.95-2.85,1.61c-1.97,1.83-4.45,4.45-6.86,7.15-.51.51-1.46,1.61-1.9,2.26-.58.95-1.46,1.39-2.41,1.39-1.31,0-3.36-1.17-5.04-2.7-1.09-.95-1.97-2.55-1.97-3.43,0-.58.22-.88.58-.88.22,0,.44.15,1.02.51.95.66,2.26,1.39,2.92,1.39s1.53-.44,2.26-.95ZM97.85,526.7c0,3.5-2.85,6.35-6.35,6.35s-6.35-2.85-6.35-6.35,2.85-6.35,6.35-6.35,6.35,2.85,6.35,6.35ZM87.41,526.7c0,2.19,1.9,4.09,4.09,4.09s4.09-1.9,4.09-4.09-1.9-4.09-4.09-4.09-4.09,1.9-4.09,4.09Z"/>
          <path class="cls-1" d="M60.97,587.94c0-.29.51-.73.88-.73s.66.22.95.37c1.9,1.09,3.21,2.34,4.31,3.58,1.53,1.75,2.34,3.43,2.34,5.11s-1.17,2.7-2.34,2.7-1.9-.58-2.34-2.92c-.22-1.17-.66-2.55-1.31-3.87-.58-1.17-1.24-2.26-2.04-3.36-.29-.37-.44-.66-.44-.88ZM92.29,587.07c-.73-.37-1.68-.73-2.48-.88-.29-.07-.37-.22-.37-.51,0-.22.22-.51.51-.66.51-.29,1.24-.37,2.12-.37,1.61,0,4.09.88,5.62,1.9,1.17.8,2.26,1.9,2.26,2.92,0,.58-.44,1.02-.95,1.31-.66.37-1.09.58-1.68,1.68-3.43,6.72-6.64,11.83-11.9,17.52-4.82,5.26-11.02,10.07-17.74,13.21-.66.29-1.17.37-1.39.37-.51,0-.88-.51-.88-.95s.15-.66.66-.95c6.57-4.09,12.56-9.2,17.16-14.82,3.94-4.82,6.86-9.27,9.49-14.96.66-1.39,1.02-2.34,1.02-3.14,0-.73-.66-1.24-1.46-1.68ZM73.46,584.51c0-.29.58-.58.95-.58s.58.15.95.37c1.97,1.24,3.29,2.7,4.53,4.38,1.17,1.68,1.68,3.36,1.68,4.67,0,2.04-.95,3.29-2.34,3.29-1.17,0-1.97-.37-2.34-3.14-.15-1.31-.51-2.7-1.02-4.01-.51-1.46-1.24-2.7-2.04-3.94-.29-.44-.37-.66-.37-1.02Z"/>
          <path class="cls-1" d="M84.05,668.76c5.11,2.04,7.52,4.6,7.52,6.72,0,1.83-1.17,2.77-2.19,2.77-1.09,0-1.75-.44-2.85-1.68-1.83-2.04-4.23-3.72-6.5-5.11-2.55-1.53-5.4-2.63-7.59-3.21v12.41c0,4.89.15,14.31.15,17.23,0,2.41-.95,3.07-1.97,3.07-.88,0-1.17-.29-1.9-1.31-.73-1.02-1.61-2.99-1.61-4.45,0-1.1.29-1.68.58-2.19.22-.44.58-2.12.58-4.09.15-4.45.22-10.37.22-14.16.07-7.23.07-14.45.07-21.1,0-2.99,0-3.8-.29-4.38-.58-1.24-2.55-2.34-3.94-2.92-.73-.29-.8-.44-.8-.88,0-.58,1.09-1.09,1.82-1.09,1.68,0,4.16.66,5.99,1.61,1.68.88,3.14,2.26,3.14,3.5,0,.8-.51,1.53-1.31,2.19-.36.29-.44,1.09-.51,2.7-.15,3.14-.22,7.37-.22,11.75,3.21.29,7.88,1.17,11.61,2.63Z"/>
          <path class="cls-1" d="M41.86,785.12c8.03-7.88,11.17-15.99,11.17-27.52,0-5.33,0-6.28-.29-8.83,6.72.8,7.01,1.02,7.01,1.82,0,.58-.29.95-2.26,1.68,0,1.31,0,2.92-.07,5.55-.29,13.36-4.53,21.46-14.82,28.03-.37.22-1.02-.44-.73-.73ZM91.49,728.91c-3.58,4.31-7.81,7.96-12.56,10.88,1.24.44,2.41.88,3.72,1.24,8.1,2.48,17.74,3.58,26.72,3.58.37,0,.29.66-.07.73-1.75.37-2.34.88-3.14,2.92-.29.95-.73,1.17-1.31,1.17-.95,0-2.7-.15-5.04-.51-6.06-1.09-13.43-2.7-19.49-5.18-1.68-.66-3.29-1.31-4.82-2.04-8.54,4.23-19.12,6.72-33.21,7.81-.44,0-.66-1.09-.22-1.17,12.34-1.9,21.97-4.75,29.71-8.69-4.6-2.85-8.61-6.5-11.97-10.73h-10.88c-1.83,0-2.99.15-4.96.44l-.73-2.77c2.26.44,3.65.51,5.69.51h23.58v-3.43c0-1.17-.07-2.04-.37-4.53,6.57.66,7.45,1.17,7.45,1.97,0,.44-.44.95-2.48,1.83v4.16h20.58c3.14-3.65,3.58-3.87,3.94-3.87.44,0,.8.22,4.09,2.92,1.53,1.31,1.83,1.68,1.83,2.12s-.29.66-1.02.66h-15.04ZM55.65,780.59c2.41-2.7,4.53-6.57,5.84-9.78.66-1.68,1.1-3.29,1.24-4.75,4.96,1.53,5.62,1.97,5.62,2.56,0,.66-.73.95-2.48,1.17-2.04,4.31-5.33,8.47-9.49,11.46-.37.22-1.02-.36-.73-.66ZM76.09,770.08c0,6.06.15,7.52.15,9.12,0,1.83-.51,3.07-1.75,4.02-.8.73-2.19,1.17-3.14,1.17-.73,0-.88-.15-1.02-.95-.29-1.75-1.39-2.48-5.99-3.65-.44-.07-.37-.95.07-.88,3.14.29,5.18.44,6.5.44.8,0,1.09-.37,1.09-1.31v-16.06h-7.59c-1.46,0-2.41.07-4.31.37l-.73-2.7c2.04.37,3.07.51,4.96.51h18.1c2.12-2.63,2.48-2.85,2.85-2.85.44,0,.8.22,3.29,2.26,1.02.88,1.24,1.31,1.24,1.68,0,.51-.22.73-.95.73h-12.78v8.1ZM61.78,728.91c3.72,3.79,8.1,6.86,12.92,9.12,4.23-2.55,7.96-5.55,11.24-9.12h-24.16ZM61.86,751.32c1.97.37,3.07.51,4.96.51h13.07c2.04-2.55,2.48-2.85,2.92-2.85.36,0,.8.29,3.28,2.34,1.02.88,1.24,1.24,1.24,1.68s-.22.66-.95.66h-19.49c-1.46,0-2.48.15-4.38.37l-.66-2.7ZM79.96,766.14c5.33,3.58,7.81,7.37,7.81,10.66,0,1.75-.88,2.92-1.97,2.92-1.53,0-1.75-.73-2.19-3.36-.58-3.36-2.26-6.93-4.31-9.71-.22-.36.29-.73.66-.51ZM95.73,762.27c0,14.6.37,19.93.37,21.54s-.88,2.12-2.85,2.12c-1.53,0-2.04-.44-2.04-1.83,0-1.53.29-7.15.29-21.46,0-9.05,0-11.24-.29-13.72,5.84.73,6.86,1.17,6.86,1.97,0,.51-.37.95-2.34,1.75v9.64Z"/>
          <path class="cls-1" d="M56.02,846c3.14-1.31,6.21-2.85,9.05-4.38.37-.22.8.58.44.88-5.33,4.31-11.31,8.32-18.47,11.83-.22,2.34-.58,3.07-1.24,3.07-.58,0-1.31-.73-3.72-6.64,1.68-.29,3.07-.66,4.23-1.02,1.68-.58,3.5-1.17,5.33-1.9v-21.9h-3.94c-1.46,0-2.48.07-4.31.44l-.73-2.77c2.04.36,3.14.51,4.96.51h4.01v-6.13c0-6.64-.07-10.29-.36-13.14,6.35.73,7.23,1.17,7.23,1.97,0,.51-.44,1.02-2.48,1.9v15.4h2.99c2.34-2.92,2.7-3.14,3.07-3.14.44,0,.88.22,3.5,2.41,1.17.95,1.31,1.39,1.31,1.83,0,.37-.22.73-.95.73h-9.93v20.07ZM72.81,845.27c-4.23,4.16-9.27,7.37-14.82,9.64-.44.15-.88-.73-.51-.95,6.28-3.58,11.68-8.91,14.82-13.72.88-1.31,1.53-2.55,2.04-3.87h-5.69c-1.75,0-3.21.07-5.26.44l-.66-2.7c2.19.36,3.8.44,5.91.44h31.24c2.55-3.14,3.14-3.58,3.5-3.58.44,0,.95.29,3.94,2.77,1.24,1.02,1.39,1.53,1.39,1.97s-.22.66-.95.66h-30.88c2.63.8,3.58,1.31,3.58,1.75,0,.58-.73.95-2.7,1.09-1.02,1.46-2.12,2.92-3.29,4.23h24.89c1.75-2.04,2.12-2.26,2.48-2.26s.8.15,2.92,2.04c1.09.95,1.17,1.39,1.17,1.75s-.29.73-1.83,1.68c-.44,7.59-1.31,13.36-2.77,17.01-.88,2.12-1.97,3.58-3.29,4.45-1.39.95-3.07,1.24-4.67,1.24-.66,0-.8-.07-.95-.95-.29-1.61-1.24-2.77-6.71-4.09-.44-.07-.37-1.02.07-.95,4.6.51,6.64.66,8.32.66,1.82,0,2.63-.73,3.5-3.43,1.17-3.5,1.82-8.03,2.19-15.33h-5.26c-4.6,11.46-14.6,20-27.3,24.46-.44.15-.8-.66-.44-.88,10.15-5.4,18.98-13.94,23.14-23.58h-5.99c-4.6,8.1-12.56,14.53-23.07,18.25-.44.15-.8-.66-.44-.88,8.98-4.82,14.96-10.58,18.69-17.37h-6.35ZM74.78,827.75v1.75c0,1.31-.8,1.83-2.7,1.83-1.24,0-1.83-.29-1.83-1.68,0-1.02.29-3.94.29-12.92,0-6.13-.07-7.96-.44-11.46,1.97.8,3.29,1.46,5.26,2.56h18.32c2.04-2.12,2.26-2.26,2.63-2.26.44,0,.88.15,2.92,1.83,1.1.88,1.24,1.31,1.24,1.68,0,.51-.29.95-1.9,2.04v4.82c0,8.32.29,11.61.29,12.48,0,1.39-.95,1.9-2.77,1.9-1.39,0-1.83-.36-1.83-1.46v-1.1h-19.49ZM94.27,809.65h-19.49v7.08h19.49v-7.08ZM94.27,818.55h-19.49v7.37h19.49v-7.37Z"/>
        </g>
      </g>
    </g>
  </g>
</svg>