<?xml version="1.0" encoding="UTF-8"?>
<svg id="_レイヤー_1" data-name="レイヤー_1" xmlns="http://www.w3.org/2000/svg" version="1.1" viewBox="0 0 147.97 871.3">
  <!-- Generator: Adobe Illustrator 29.4.0, SVG Export Plug-In . SVG Version: 2.1.0 Build 152)  -->
  <defs>
    <style>
      .st0 {
        fill: #777;
      }

      .st1 {
        fill: #222;
      }
    </style>
  </defs>
  <g>
    <path class="st1" d="M56.43,154.65c-.52-1.47-.69-3.01-.88-4.53-1.77.58-8.77.58-10.54,0-.2,1.52-.36,3.06-.88,4.53-.09.31-.17.65-.19.98h12.7c-.02-.33-.1-.66-.19-.98Z"/>
    <path class="st1" d="M73.98,0C33.12,0,0,33.01,0,73.73v75.6c0,3.46,2.82,6.28,6.27,6.28h12.1c-.7-.43-1.29-1.06-1.7-1.81-.47-.88-.8-2.48-.65-4.46-.98-.33-1.94-.78-2.92-1.43-1.53-1.02-3.92-2.97-2.98-7.13.59-2.59,2.8-3.86,3.52-2.95.76.97-1.17,2.03-.92,4.31.24,2.23,1.92,3.5,3.89,4.2.03-.11.06-.21.09-.32.65-1.88,1.81-3.06,1.97-5.11.3-3.69,1.99-6.2,1.78-6.59-.26-.5-1.88-1.54-2.35-3.4-.41-1.63-.12-2.67.24-3.92-.31-1.13-.5-2.1-.55-3.22-.04-1.06.08-3.33.91-3.56.61-.17,2.54,2.32,3.58,2.86.47-.12,1.1-.2,1.77-.2s1.31.07,1.77.2c1.04-.54,2.97-3.03,3.58-2.86.84.23.96,2.5.91,3.56-.05,1.13-.25,2.1-.55,3.22.36,1.24.65,2.29.24,3.92-.47,1.86-2.08,2.9-2.35,3.4-.2.39,1.49,2.9,1.78,6.59.16,2.05,1.33,3.23,1.97,5.11,1.18,3.43.75,6.44.04,7.77-.4.76-1,1.38-1.7,1.81h10.33c.31-.24.62-.46.86-.66.25-1.18-.43-4.4-.68-5.32-.51-1.62-.46-3.96-.27-4.93-1.06-4.22-.77-7.35,2.65-10.49-.38-.86-.54-1.56-.5-2.49-1.48-2.16.03-5.35.22-6.72-.49-.95-1.37-1.19-.87-2.89.14-.49-.07-.93-.19-1.38-.54-1.8-.78-8.09,1.46-6.72,1.9.97,4.12,4.62,4.45,5.83.11.41.09.87.73,1.06.78-.13,3.8-.13,4.58,0,.64-.19.61-.64.73-1.06.34-1.21,2.55-4.86,4.45-5.83,2.24-1.37,2,4.91,1.46,6.72-.12.45-.33.9-.19,1.38.5,1.7-.38,1.93-.87,2.89.19,1.36,1.7,4.56.22,6.72.05.93-.11,1.64-.5,2.49,3.43,3.14,3.71,6.28,2.65,10.49.2.97.25,3.3-.27,4.93-.25.92-.94,4.15-.68,5.32.25.2.56.43.86.66h6.85l1.66-47.39-51.5-24.96s3.09-1.2,3.76-1.58l2.38.78c1.01-.13,1.94.18,1.94.18,0,0-1.88-1.52-2.67-3.19-.87-1.86-.52-3.78-.92-4.06-.84-.58-2.2-.74-3.32-1.11-.89-.29-.18-1.8,1.59-1.53.44.07,2.04.47,2.04.47.31.1.52-1.8.3-2.49-.38-1.18-1.37-1.29-2.34-1.54-.97-.25-1.57-.55-1.93-1.01-.36-.46-.63-1.4-.07-1.66.56-.26,1.03-1.33,1.03-1.33.98-1.92,2.6-1.95,2.6-1.95,0,0-.4-.23-1.06-1.43-.85-1.55.51-1.03.51-1.03.96.41,2.25.56,3.62,1.43,2.67,1.69,4.78,8.16,4.78,8.16,1.06-5.67,7.14-6.73,10.15-5.67,2.7.95,6.08,4.11,5.01,8.46-.78,3.17-2.82,4.18-3.86,4.5-.05,0-2.06.34-3.74-.47-1.25-.6-1.63-1.73-1.75-2.35-.19-1.04.07-2.12.66-2.75.55-.57,1.32-.84,2.07-.7.62.11,1.11.5,1.35,1.05.49,1.15-.24,1.86-.27,1.89-.19.17-.2.47-.03.66.17.19.47.21.66.03.05-.05,1.26-1.17.5-2.94-.36-.85-1.11-1.43-2.04-1.6-1.06-.19-2.14.17-2.91.98-.81.85-1.15,2.21-.91,3.56.25,1.35,1.07,2.46,2.26,3.03,1.07.51,2.23.63,3.07.63.13,0,.25,0,.36,0-.16.64-.58,1.67-1.68,3.14-2.1,2.82-5.79,2.85-5.79,2.85h-2.49l39.51,12.91.24-28.56-35.59-18.3,3.82-1.56,32.09,10.98.98-35.35,5.17-4.71.45,34.77,24.44-10.37c-.23,0-.44.01-.67-.02-5.63-.47-8.04-4.32-8.46-5.42-1.24-.14-3.21-.57-4.17-1.52-.26-.25-1.38-1.88.23-2.65-1.59-.71-3.73-4.84-.38-4.55-.41-.57-.81-1.31-.89-1.94-.67-4.39,3.84-5.72,4.3-5.57.5.14.13.63-.15,1.44-2.59,7.34,3.42,10.92,3.39,10.97,3.92,2.11,8.44.34,9.65-2.78.93-1.92,1.8-2.49,3.37-2.51,2.59-.05,2.8,2.37,3.79,2.38.35,0,1.43.23,1.48.61.03.22-.36.09-1.31.61-.96.52-1.26,1.06-1.51,1.46-.72,1.33-.96,3.36-1.11,4.13-.21,1.13-.92,2.33-1.98,3.32l3.97,1.8-33.08,17.52.6,24.61,48.55-20.95,4.02,2.33-51.9,29.57,2.5,58.28h7.85c-1.42-1.37-2.64-3.13-3.09-5.13-.74-3.27,1.2-7.95,3.58-9.44-1.19-5.03-1.6-10.69-.64-15.5.85-4.27,2.69-6.04,2.69-7.01,0-.85-.67-3.63-.67-4.58-.3.25-.94.7-1.52.49-.7-.26-.71-1.71-.98-3.66-.23-1.65-.7-2.51-.55-3.79.18-1.6,2.21-5.26,3.78-5.75.79-.24,1.44-.03,2,.19,1.04-.91,3.55-1.73,5.95-1.73s4.91.83,5.95,1.73c.57-.22,1.22-.44,2-.19,1.57.49,3.6,4.15,3.78,5.75.15,1.29-.32,2.14-.55,3.79-.27,1.95-.28,3.4-.98,3.66-.58.21-1.22-.24-1.52-.49,0,.94-.67,3.73-.67,4.58,0,.97,1.83,2.74,2.69,7.01.96,4.81.55,10.48-.64,15.5,2.37,1.49,4.32,6.16,3.58,9.44-.45,2-1.67,3.76-3.09,5.13h12.57s.04-.09.05-.13c-1.74-.96-3.58-3.25-3.58-5.64s.76-4.16,1.84-5.46c1.14-1.38,2.15-1.67,2.37-2.42.26-.91.55-2.14,1.12-2.95-.28-1.03-1.23-2.13-1.48-3.93-.26-1.83.39-5.16,1.61-5.48,1.05-.28,2.11,3.06,2.39,4.26.38,1.66.53,3.53.76,3.89.16-.04.38-.07.61-.07s.45.03.61.07c.23-.37.37-2.23.76-3.89.28-1.21,1.34-4.54,2.39-4.26,1.23.32,1.87,3.65,1.61,5.48-.26,1.81-1.2,2.9-1.48,3.93.57.81.86,2.03,1.12,2.95.21.75,1.22,1.04,2.37,2.42,1.08,1.3,1.84,2.98,1.84,5.46s-1.85,4.68-3.58,5.64c.01.04.03.09.05.13h7.18c3.45,0,6.27-2.83,6.27-6.28v-75.6C147.97,33.01,114.84,0,73.98,0Z"/>
  </g>
  <g>
    <path class="st1" d="M58.54,233.89c2.56-.07,4.89-.15,6.21-.22.95-.07,1.97-.22,2.48-.44.66-.37,1.17-.73,2.04-.73,1.02,0,3.43,1.17,5.04,2.26.95.58,1.39,1.31,1.39,1.97,0,1.02-.88,1.75-1.9,1.75-1.31,0-3.28-.37-4.82-.58-2.92-.37-5.91-.51-8.83-.58-5.26-.07-10.51.15-15.69.51-5.62.37-11.1,1.17-16.5,1.9-1.24.15-1.9.51-2.26.73-.73.37-1.53.44-1.9.44-1.02,0-2.77-1.1-4.75-3.36-1.17-1.31-1.61-2.7-1.61-3.72,0-.44.37-.88.58-.88.29,0,.58.15.95.51,1.61,1.75,3.43,2.55,5.26,2.63,1.31.07,2.85-.07,4.6-.22,4.23-.44,9.05-.88,15.55-1.46.15-3.43.22-7.15.29-11.02.07-2.85.07-5.48.07-7.66,0-.95-.22-1.46-.73-2.12-.36-.44-.88-.95-1.61-1.53-1.17.07-2.63.22-5.62.44-1.31.07-2.26.15-3.65.15-1.75,0-2.92-.58-4.53-2.19-1.31-1.31-1.97-2.41-1.97-2.99,0-.51.44-.8.8-.8s.8.15,1.02.36c1.82,1.61,4.23,2.41,6.79,2.41,1.39,0,5.04-.29,9.2-.8,5.04-.58,9.05-1.31,11.53-1.9,1.24-.29,2.34-.73,2.7-.95.88-.44,1.31-.66,2.26-.66,1.68,0,3.14.51,4.82,1.46.66.37,1.02,1.09,1.02,1.61,0,.8-.66,1.39-1.46,1.53-1.24.22-2.55.29-3.87.37-5.04.44-10,1.02-14.67,1.53.95.44,1.61.95,2.19,1.39.44.37.88,1.02.88,1.61s-.15,1.02-.36,1.46c-.07.22-.29.73-.37,1.97-.29,6.5-.44,9.85-.73,16.21,3.58-.22,6.86-.29,10.15-.36Z"/>
    <path class="st1" d="M26.13,270.76c0-.44.36-.8.8-.8s.95.07,1.24.15c2.48.51,5.55,1.9,8.03,3.8,2.04,1.61,3.72,3.58,3.72,6.06,0,1.75-1.02,2.77-2.34,2.77-1.39.07-1.97-.58-2.77-2.12-1.83-3.43-4.75-6.86-8.03-8.91-.37-.22-.66-.51-.66-.95ZM35.98,303.97c6.13-3.72,12.85-8.98,19.05-14.67,5.99-5.48,11.75-11.83,16.35-17.81.37-.44.73-.66,1.02-.66.44,0,1.09.36,1.09.8,0,.37-.15.8-.44,1.31-4.6,7.59-9.93,13.72-15.77,19.49-5.62,5.62-11.9,10.73-18.69,15.84-.8.58-1.53,1.24-1.83,1.97-.44.88-.95,1.24-1.9,1.24-1.17,0-2.85-.95-4.75-2.77-1.75-1.75-2.99-3.58-2.99-4.82,0-.8.29-1.46.66-1.46s.66.29.95.58c1.75,1.53,2.7,2.34,3.94,2.34.73,0,1.68-.44,3.29-1.39Z"/>
    <path class="st1" d="M21.02,355.07c0-.44.29-.73,1.09-.73,1.97,0,4.89.8,6.86,1.68,3.14,1.39,5.18,3.07,5.18,5.18s-1.17,2.92-2.55,2.92c-.95,0-1.97-.88-2.85-2.12-1.9-2.55-4.01-4.31-7.01-5.91-.44-.22-.73-.58-.73-1.02ZM34.31,379.31c7.66-4.09,14.6-8.76,21.46-14.09,5.47-4.31,10.51-8.76,15.18-13.65.73-.8,1.24-1.39,1.53-1.39.44,0,1.09.44,1.09.95,0,.29-.07.51-.8,1.53-3.87,5.55-9.2,10.66-15.33,15.91-6.79,5.77-13.8,10.66-21.02,15.18-.73.44-1.17.95-1.46,1.39-.37.58-1.24,1.46-2.19,1.46-1.17,0-2.77-1.24-4.31-2.85-1.46-1.53-2.77-3.5-2.77-5.47,0-1.02.15-1.9.73-1.9.44,0,.8.37,1.24,1.09.73,1.17,2.56,2.92,3.65,2.92.66,0,1.24-.15,2.99-1.09ZM30.14,340.18c0-.44.29-.73,1.09-.73,1.68,0,5.04,1.17,7.08,2.34,2.99,1.68,4.38,3.21,4.38,5.26,0,1.75-1.31,2.77-2.63,2.77-1.02,0-1.75-.8-2.26-1.53-1.83-2.85-4.09-5.11-7.08-7.23-.29-.22-.58-.44-.58-.88ZM63.72,334.78c2.26.8,4.09,1.82,5.4,2.92,1.53,1.24,3.14,3.14,3.14,4.74,0,1.31-.73,2.12-1.83,2.12-1.02,0-1.46-.58-2.41-2.41-.88-1.68-3.21-4.31-5.4-5.91-.29-.22-.44-.51-.44-.73,0-.44.37-.8.8-.8.22,0,.51,0,.73.07ZM70.29,330.4c1.68.44,3.8,1.46,5.18,2.41,1.68,1.17,3.29,2.99,3.29,4.67,0,1.24-.88,1.97-1.68,1.97-.88,0-1.39-.29-2.41-1.97-1.17-2.04-3.58-4.38-5.99-5.84-.22-.15-.29-.51-.29-.73,0-.37.29-.73.73-.73.22,0,.66.07,1.17.22Z"/>
    <path class="st1" d="M58.97,430.63c1.97,0,3.43-.07,4.6-.15.73-.07,1.31-.22,1.75-.44.51-.22,1.09-.51,1.83-.51,1.17,0,2.92.88,3.87,1.53,1.02.66,1.46,1.09,1.46,2.26,0,.73-.8,1.17-1.68,1.17-1.39,0-2.48-.22-3.72-.44-2.26-.29-5.77-.51-8.91-.51-3.43,0-6.79.07-10.22.29-4.38.29-8.18.88-11.83,1.39-1.02.15-1.75.37-2.19.66-.51.37-1.17.58-1.82.58-.95,0-2.12-.73-3.72-2.19-1.39-1.31-1.9-2.55-1.9-3.8,0-.51.44-.88.66-.88s.51.22.88.66c1.02,1.09,2.48,2.04,3.94,2.04.51,0,1.61-.07,3.72-.29,3.29-.37,7.37-.73,12.12-1.09.15-4.38.29-8.76.29-13.07,0-1.53-.15-2.34-.58-2.99-.29-.44-.66-.66-1.24-.95-3.94.29-5.77.36-7.01.36-1.39,0-2.19-.36-3.43-1.61-1.02-1.02-1.9-2.19-1.9-2.7,0-.37.37-.73.8-.73.36,0,.66.22.95.51,1.24,1.17,2.7,1.68,4.6,1.68s4.45-.15,7.66-.51c3.94-.44,6.94-.88,8.91-1.39.95-.22,1.83-.58,2.12-.73.66-.29,1.17-.58,1.97-.58,1.24,0,2.7.44,3.65.95.88.44,1.09.95,1.09,1.75,0,.95-.51,1.24-1.61,1.31-1.09.07-1.9.07-3.65.22-3.07.29-7.08.73-10.44,1.09.73.29,1.17.58,1.61.95.37.29.95.88.95,1.39,0,.44-.07.88-.29,1.17-.15.15-.29.51-.37,1.53-.29,4.45-.37,7.59-.58,12.19,2.55-.07,5.04-.15,7.67-.15Z"/>
    <path class="st1" d="M32.26,473.62c-.8-.66-1.75-1.24-2.48-1.53-.66-.29-.95-.44-.95-.88,0-.51.73-1.09,1.68-1.09,1.9,0,4.09,1.09,5.84,2.26,1.31.88,2.85,2.26,2.85,3.72,0,.58-.22,1.02-.88,1.61-.8.66-1.02,1.53-1.31,2.63-1.46,5.11-3.94,9.93-7.08,14.38-3.28,4.53-6.93,8.1-11.75,11.31-.37.22-.73.44-1.17.44-.37,0-.88-.22-.88-.58s0-.58.51-1.02c4.53-3.94,7.37-7.59,10-11.83,2.99-4.96,4.89-9.56,5.77-13.07.44-1.75.73-3.14.73-4.16,0-1.17-.29-1.68-.88-2.19ZM45.62,467.93c-.44-1.09-1.61-1.75-3.58-2.55-.37-.15-.66-.29-.66-.66,0-.58.95-1.31,2.19-1.31,1.17,0,2.92.58,5.26,1.97,1.61.95,2.77,1.9,2.77,3.14,0,.66-.36,1.24-.8,1.68-.44.51-.66,1.61-.66,2.63-.22,7.08-.44,14.45-.44,22.78,0,.37.07.58.37.58.22,0,.44-.07.95-.29,9.12-3.94,18.32-10,25.99-16.35.37-.29.58-.51.95-.51s.95.37.95.88c0,.22-.15.58-.37.8-6.86,7.96-16.21,14.23-25.48,19.64-.8.44-1.17.95-1.53,1.53-.29.51-.73.95-1.46.95-.88,0-2.19-1.24-2.99-2.12-.95-1.1-1.75-2.12-1.75-3.14,0-.37.22-.8.36-1.17.15-.44.29-.95.29-1.97.07-7.15.07-15.62.07-21.9,0-2.41,0-3.43-.44-4.6Z"/>
    <path class="st1" d="M23.72,546.33c3.14-2.41,7.08-5.55,10.95-8.47.88-.66,2.19-1.24,3.14-1.24,1.31,0,2.55.51,4.45,1.61,10.44,6.21,19.86,11.32,30.22,16.21,1.17.51,2.04,1.02,2.55,1.39.95.8,1.17,1.53,1.17,2.19,0,1.53-1.09,2.63-2.34,2.63-1.68,0-2.77-.51-3.94-1.17-9.27-5.33-18.32-11.17-27.23-17.16-1.46-.95-3.72-2.34-4.75-2.34s-2.12.95-2.85,1.61c-1.97,1.83-4.45,4.45-6.86,7.15-.51.51-1.46,1.61-1.9,2.26-.58.95-1.46,1.39-2.41,1.39-1.31,0-3.36-1.17-5.04-2.7-1.09-.95-1.97-2.55-1.97-3.43,0-.58.22-.88.58-.88.22,0,.44.15,1.02.51.95.66,2.26,1.39,2.92,1.39s1.53-.44,2.26-.95ZM69.2,531.29c0,3.5-2.85,6.35-6.35,6.35s-6.35-2.85-6.35-6.35,2.85-6.35,6.35-6.35,6.35,2.85,6.35,6.35ZM58.76,531.29c0,2.19,1.9,4.09,4.09,4.09s4.09-1.9,4.09-4.09-1.9-4.09-4.09-4.09-4.09,1.9-4.09,4.09Z"/>
    <path class="st1" d="M32.33,592.54c0-.29.51-.73.88-.73s.66.22.95.37c1.9,1.09,3.21,2.34,4.31,3.58,1.53,1.75,2.34,3.43,2.34,5.11s-1.17,2.7-2.34,2.7-1.9-.58-2.34-2.92c-.22-1.17-.66-2.55-1.31-3.87-.58-1.17-1.24-2.26-2.04-3.36-.29-.37-.44-.66-.44-.88ZM63.64,591.66c-.73-.37-1.68-.73-2.48-.88-.29-.07-.37-.22-.37-.51,0-.22.22-.51.51-.66.51-.29,1.24-.37,2.12-.37,1.61,0,4.09.88,5.62,1.9,1.17.8,2.26,1.9,2.26,2.92,0,.58-.44,1.02-.95,1.31-.66.37-1.09.58-1.68,1.68-3.43,6.72-6.64,11.83-11.9,17.52-4.82,5.26-11.02,10.07-17.74,13.21-.66.29-1.17.37-1.39.37-.51,0-.88-.51-.88-.95s.15-.66.66-.95c6.57-4.09,12.56-9.2,17.16-14.82,3.94-4.82,6.86-9.27,9.49-14.96.66-1.39,1.02-2.34,1.02-3.14,0-.73-.66-1.24-1.46-1.68ZM44.81,589.11c0-.29.58-.58.95-.58s.58.15.95.37c1.97,1.24,3.29,2.7,4.53,4.38,1.17,1.68,1.68,3.36,1.68,4.67,0,2.04-.95,3.29-2.34,3.29-1.17,0-1.97-.37-2.34-3.14-.15-1.31-.51-2.7-1.02-4.01-.51-1.46-1.24-2.7-2.04-3.94-.29-.44-.37-.66-.37-1.02Z"/>
    <path class="st1" d="M55.4,673.35c5.11,2.04,7.52,4.6,7.52,6.72,0,1.83-1.17,2.77-2.19,2.77-1.09,0-1.75-.44-2.85-1.68-1.83-2.04-4.23-3.72-6.5-5.11-2.55-1.53-5.4-2.63-7.59-3.21v12.41c0,4.89.15,14.31.15,17.23,0,2.41-.95,3.07-1.97,3.07-.88,0-1.17-.29-1.9-1.31-.73-1.02-1.61-2.99-1.61-4.45,0-1.1.29-1.68.58-2.19.22-.44.58-2.12.58-4.09.15-4.45.22-10.37.22-14.16.07-7.23.07-14.45.07-21.1,0-2.99,0-3.8-.29-4.38-.58-1.24-2.55-2.34-3.94-2.92-.73-.29-.8-.44-.8-.88,0-.58,1.09-1.09,1.82-1.09,1.68,0,4.16.66,5.99,1.61,1.68.88,3.14,2.26,3.14,3.5,0,.8-.51,1.53-1.31,2.19-.36.29-.44,1.09-.51,2.7-.15,3.14-.22,7.37-.22,11.75,3.21.29,7.88,1.17,11.61,2.63Z"/>
    <path class="st1" d="M53.07,785.48h3.94c2.41-3.43,4.09-6.94,5.4-9.93.73-1.61,1.1-2.77,1.46-3.94,5.04,2.04,5.99,2.55,5.99,3.29,0,.8-.66,1.09-2.7,1.24-2.55,3.43-5.11,6.35-8.54,9.34h11.9c2.99-3.65,3.28-3.8,3.79-3.8.37,0,.73.15,4.09,2.85,1.53,1.24,1.75,1.61,1.75,2.04,0,.51-.22.73-.95.73H19.12c-1.9,0-3.36.07-5.11.37l-.73-2.7c2.04.44,3.65.51,5.77.51h19.12v-16.42h-17.08c-1.68,0-2.99.07-4.75.36l-.73-2.77c1.97.44,3.43.58,5.33.58h48.03c2.48-3.07,2.92-3.29,3.29-3.29.44,0,.95.22,3.79,2.48,1.31,1.09,1.53,1.46,1.53,1.9,0,.51-.22.73-.95.73h-23.58v16.42ZM43.94,735.26v-6.13h-15.18c-1.9,0-3.36.15-5.26.37l-.73-2.7c2.19.44,3.8.51,5.99.51h34.82c2.92-3.36,3.29-3.58,3.65-3.58.44,0,.8.22,4.01,2.77,1.46,1.17,1.68,1.53,1.68,1.97s-.22.66-.95.66h-23.65v6.13h23.36c1.97-2.12,2.19-2.41,2.7-2.41.37,0,.95.36,3.58,2.63,1.39,1.24,1.53,1.82,1.53,2.26,0,.8-.73,1.17-2.63,1.17-.95,0-1.53.29-2.26,1.02-1.24,1.17-2.41,2.34-4.31,3.79-.29.22-.73-.15-.58-.44,1.02-2.12,1.9-4.38,2.41-6.21h-23.8v4.96c0,6.57.22,11.02.22,12.85,0,1.31-1.02,1.83-2.77,1.83-1.53,0-2.12-.37-2.12-1.61,0-.95.29-4.67.29-11.24v-6.79h-21.83c-.22,5.18-2.63,8.91-5.26,8.91-1.46,0-2.55-1.17-2.55-2.63,0-1.17.44-1.75,1.75-2.56,3.07-1.97,4.6-4.31,4.82-8.1,0-.44.8-.44.88,0,.15.88.29,1.75.29,2.56h21.9ZM20.73,750.44c1.61.44,2.77.51,4.53.51h7.81c2.04-2.56,2.34-2.77,2.77-2.77s.8.22,3.43,2.26c.95.8,1.17,1.24,1.17,1.68s-.22.66-.88.66h-14.24c-1.24,0-2.41.15-4.01.36l-.58-2.7ZM22.7,759.05c1.83.44,3.43.58,5.4.58h33.14c2.48-2.85,2.77-3.07,3.21-3.07s.88.22,3.58,2.41c1.24.95,1.46,1.31,1.46,1.75,0,.51-.29.73-.95.73H28.17c-1.68,0-3.14.15-4.67.44l-.8-2.85ZM23.57,771.97c5.4,2.04,8.25,5.11,8.25,7.96,0,2.34-1.17,3.36-2.41,3.36-1.31,0-1.75-.58-2.19-2.63-.8-3.29-1.83-5.62-4.09-8.1-.29-.29.15-.73.44-.58ZM23.65,742.7c1.68.37,2.92.51,4.53.51h5.26c1.9-2.34,2.34-2.63,2.63-2.63.36,0,.73.29,3.28,2.34.66.58.88,1.02.88,1.39,0,.44-.22.73-.8.73h-11.24c-1.02,0-2.26,0-3.79.29l-.73-2.63ZM48.98,769.05h-6.72v16.42h6.72v-16.42ZM51.75,742.7c1.68.44,2.85.51,4.53.51h5.26c1.97-2.41,2.34-2.63,2.7-2.63s.73.22,3.14,2.34c.73.58,1.02,1.02,1.02,1.39,0,.44-.22.73-1.02.73h-11.02c-1.17,0-2.48,0-3.94.29l-.66-2.63ZM51.9,750.44c1.75.44,3.07.51,4.82.51h7.81c2.19-2.7,2.48-2.85,2.92-2.85s.8.15,3.43,2.26c1.09.95,1.31,1.31,1.31,1.75s-.22.66-.88.66h-14.53c-1.31,0-2.63.15-4.23.36l-.66-2.7Z"/>
    <path class="st1" d="M22.04,869.28c0,1.46-1.02,1.9-2.92,1.9-1.31,0-1.9-.36-1.9-1.46,0-2.85.37-8.25.37-34.89,0-17.15,0-23.21-.37-27.89,2.04.88,3.43,1.53,5.26,2.77h48.25c2.19-2.34,2.48-2.48,2.85-2.48s.73.15,2.92,2.04c1.09.95,1.17,1.31,1.17,1.68,0,.51-.29,1.02-1.9,2.04v19.42c0,26.13.36,34.31.36,36.65,0,1.53-1.02,1.97-2.77,1.97-1.46,0-2.04-.37-2.04-1.53v-2.48H22.04v2.26ZM71.32,811.54H22.04v53.65h49.27v-53.65ZM48.03,847.82c2.48.8,4.89,1.68,7.3,2.63,2.19-1.61,3.65-3.14,5.18-4.82.95-1.02,1.61-1.9,2.19-2.99,3.58,2.48,4.23,3.14,4.23,3.72,0,.8-.8.88-2.77.73-2.48,1.61-4.67,2.85-7.37,4.01,5.69,2.63,8.69,5.4,8.69,7.96,0,1.24-.73,2.04-1.83,2.04-.8,0-1.46-.51-2.77-1.97-3.79-4.09-7.23-7.01-12.85-10v3.5c0,4.89.15,7.37.15,8.39,0,1.31-.88,1.9-2.55,1.9-1.31,0-1.75-.51-1.75-1.53,0-.58.22-3.72.22-8.69v-4.31c-5.33,5.26-12.26,9.12-19.64,11.68-.44.15-.73-.66-.37-.88,7.52-3.8,14.02-8.98,18.54-14.75h-7.15v.51c0,1.31-.51,1.75-2.26,1.75-1.24,0-1.68-.29-1.68-1.31,0-.51.15-1.97.15-6.28,0-3.29,0-4.82-.36-7.67,1.9.73,2.99,1.31,4.75,2.19h20.22c1.68-1.75,1.97-1.97,2.34-1.97s.73.22,2.41,1.53c1.09.88,1.31,1.17,1.31,1.61s-.37.73-1.83,1.61v1.9c0,4.16.15,5.4.15,5.69,0,1.1-.73,1.61-2.26,1.61-1.24,0-1.68-.29-1.68-1.09v-.07h-8.69v3.36ZM43.87,821.98h-9.64c-1.53,0-2.56.07-4.53.37l-.66-2.63c2.04.29,3.28.44,5.18.44h9.64v-.66c0-2.12-.07-4.09-.37-6.13,5.91.66,6.72,1.09,6.72,1.83,0,.44-.44.95-2.26,1.75v3.21h9.49c2.26-2.7,2.63-2.92,2.99-2.92.44,0,.88.22,3.43,2.34,1.09.95,1.31,1.31,1.31,1.75s-.22.66-.95.66h-16.28v5.55h12.99c2.12-2.7,2.56-2.92,2.92-2.92s.88.22,3.58,2.41c1.09.88,1.24,1.24,1.24,1.68,0,.36-.22.66-.95.66H29.92c-1.46,0-2.48.07-4.38.36l-.73-2.63c2.04.37,3.21.44,5.11.44h13.94v-5.55ZM56.72,835.48h-21.24v7.15h21.24v-7.15Z"/>
  </g>
  <g>
    <path class="st0" d="M123.89,205.8c0,.99-.06,2.78-.1,3.84.58,6.62,2.14,10.59,4.9,13.79,2.37,2.72,5.57,4.77,8.99,5.7.19.06.16.32-.03.35-.64.1-1.02.45-1.41,1.34-.13.29-.26.38-.48.38s-.67-.1-1.34-.45c-2.46-1.31-5.44-3.74-7.17-6.4-1.79-2.75-3.14-5.89-3.71-11.01-.51,5.22-1.6,8.26-3.33,10.62-2.53,3.46-5.5,5.76-11.04,7.42-.19.06-.42-.35-.22-.42,4.9-2.21,7.62-4.77,9.73-8.06,2.21-3.46,3.1-8.1,3.1-17.41,0-.7-.03-1.15-.13-1.89,2.69.32,3.33.48,3.33.9,0,.26-.16.48-1.09.8v.48ZM115.73,210.09c.54,4.93-1.38,8.32-3.42,8.32-.67,0-1.22-.48-1.22-1.22,0-.54.32-.99,1.06-1.47,1.7-1.09,2.88-2.94,3.14-5.66.03-.19.42-.16.45.03ZM126.64,217.74c1.95-1.92,3.49-4.19,4.48-6.11.42-.77.7-1.44.86-2.08,2.43,1.34,2.88,1.66,2.88,2.02s-.29.48-1.34.51c-1.73,2.37-4.03,4.45-6.59,6.02-.16.1-.42-.22-.29-.35Z"/>
    <path class="st0" d="M115.51,250.31c-.42.42-.86.83-1.34,1.18,1.86.35,2.88,1.18,2.88,2.11,0,.51-.48.93-.96.93-.29,0-.64-.19-.77-.64-.26-.8-.7-1.54-1.6-2.05-1.44,1.02-3.04,1.89-4.83,2.56-.19.06-.38-.29-.22-.38,2.82-1.66,4.7-3.49,5.95-5.02.7-.9,1.12-1.66,1.38-2.24h-4.13c-.7,0-1.18.06-2.05.19l-.32-1.22c.99.16,1.5.22,2.37.22h20.99c1.18-1.38,1.41-1.54,1.57-1.54.19,0,.45.13,1.73,1.22.58.45.64.64.64.83s-.1.29-.42.29h-19.84c1.79.61,2.05.77,2.05,1.06,0,.26-.16.35-1.18.42-.35.45-.7.86-1.09,1.28h4.58c.67-.74.8-.8.96-.8s.29.06,1.34.99c.38.38.45.58.45.74,0,.22-.32.38-1.09.54-3.07,4.35-7.42,6.88-13.89,7.94-.19.03-.32-.35-.13-.42,6.27-1.95,9.82-4.35,12.32-8.19h-5.34ZM133.55,241.74c1.25-1.47,1.41-1.57,1.6-1.57.16,0,.38.1,1.73,1.18.61.51.7.67.7.86,0,.22-.1.32-.42.32h-9.31c.03.93.06,1.41.06,1.57,0,.58-.38.83-1.18.83-.58,0-.86-.22-.86-.67,0-.19.03-.64.06-1.73h-6.33c.03.96.06,1.41.06,1.6,0,.54-.45.83-1.18.83-.61,0-.83-.22-.83-.7,0-.16.03-.61.06-1.73h-6.21c-.77,0-1.31.06-2.11.19l-.35-1.22c1.02.16,1.57.22,2.5.22h6.17v-.22c0-1.34,0-1.7-.16-2.88,2.78.32,3.14.45,3.14.83,0,.22-.1.42-1.09.74v1.54h6.33v-.13c0-1.38-.03-1.76-.16-2.98,2.56.29,3.1.45,3.1.83,0,.22-.13.42-1.02.74v1.54h5.7ZM133.46,259.94c1.22-1.38,1.44-1.54,1.6-1.54.19,0,.48.16,1.76,1.18.61.48.67.67.67.86s-.1.29-.42.29h-9.31v.51c0,3.74.13,5.22.13,5.66,0,.61-.38.93-1.25.93-.58,0-.8-.26-.8-.77,0-.42.03-1.86.03-5.41v-.93h-6.14c-.26,1.86-.96,3.39-2.59,4.67-1.89,1.5-4.1,2.4-7.65,2.75-.19.03-.32-.35-.13-.42,3.26-.83,5.12-1.89,6.62-3.46,1.02-1.06,1.6-2.18,1.79-3.55h-6.18c-.74,0-1.18.03-2.08.16l-.32-1.15c.99.13,1.54.19,2.4.19h6.27c.03-.22.03-.48.03-.74,0-.9-.03-1.47-.13-2.14,2.91.42,3.14.58,3.14.9,0,.26-.16.42-1.06.77,0,.42,0,.83-.03,1.22h6.05c0-1.15-.03-1.76-.16-2.66,2.46.26,3.01.45,3.01.8,0,.19-.16.42-.96.74v1.12h5.7ZM126.8,251.69c2.02-.74,3.49-1.5,4.54-2.24.9-.61,1.5-1.15,1.82-1.54,1.79,1.34,2.08,1.63,2.08,1.92s-.35.45-1.47.16c-1.92,1.06-4.03,1.86-6.98,2.46v1.15c0,1.22.48,1.41,3.26,1.41s3.78-.1,4.35-.54c.48-.35.7-.77,1.34-2.53.06-.16.32-.1.32.06-.03.86-.06,1.6-.06,1.92,0,.35.06.42.35.54.32.13.48.38.48.64,0,.61-.61.96-1.44,1.18-.86.22-2.24.35-5.54.35-3.87,0-4.9-.58-4.9-2.78,0-.58.06-1.09.06-2.72,0-1.92,0-2.75-.13-3.97,2.46.26,2.85.42,2.85.8,0,.19-.06.35-.96.7v3.01Z"/>
    <path class="st0" d="M123.12,283.02c2.59,0,3.33,2.18,3.33,4.51,0,1.73-.58,4.83-1.28,6.78-.58,1.73-1.31,3.36-2.62,4.54-.83.83-1.73,1.28-2.66,1.28-.67,0-.99-.29-1.15-.93-.06-.29-.19-.58-.48-.93-.45-.58-1.15-1.25-1.79-1.86-.13-.13-.13-.19-.13-.29,0-.13.13-.32.29-.32.1,0,.19.06.32.16,1.02.74,1.92,1.31,2.69,1.7.19.1.48.16.83.16.38,0,.8-.13,1.18-.51,1.15-1.28,1.73-2.91,2.3-4.77.58-1.98.9-4.26.9-5.63,0-2.05-.61-2.88-1.89-2.88-.77,0-1.57.19-2.53.54-2.33,5.02-4.8,9.89-7.68,14.75-.19.35-.45.51-.86.51-.54,0-.93-.29-.93-.8,0-.22.06-.51.29-.83,2.75-4.29,5.34-8.61,7.49-13.18-1.15.38-2.21.8-3.26,1.22-.45.16-.86.35-1.22.58-.22.16-.42.26-.67.26-.38,0-.9-.19-1.34-.61-.8-.77-1.15-1.38-1.18-2.08,0-.51.16-.74.35-.74.13,0,.16.1.29.32.38.67.93,1.09,1.57,1.09.54,0,1.12-.1,2.24-.42,1.06-.29,2.37-.64,3.84-1.06.67-1.47,1.06-2.5,1.47-3.81.13-.38.26-.83.26-1.31,0-.61-.96-1.18-2.05-1.25-.22-.03-.35-.13-.35-.29,0-.1.06-.19.26-.32.22-.16.67-.26,1.22-.26,1.18,0,3.46.96,3.46,2.27,0,.22-.16.51-.45.64-.19.1-.48.38-.8,1.06-.42.96-.83,1.95-1.28,2.91.67-.13,1.38-.22,2.05-.22ZM135.79,292.55c-.22,0-.48,0-.83-.22-.19-.13-.54-.26-1.06-.26-1.18,0-2.34.03-3.71.13-.29.03-.45-.13-.45-.38,0-.22.1-.32.35-.38,1.5-.29,2.78-.54,3.78-.83.32-.1.45-.22.45-.48,0-1.54-1.98-4.19-4.83-5.98-.13-.1-.19-.22-.19-.35,0-.16.13-.35.29-.35s.32.03.45.1c3.71,1.54,6.72,5.28,6.72,7.81,0,.86-.45,1.22-.96,1.22Z"/>
    <path class="st0" d="M120.88,315.24c-.8-.48-1.38-.9-1.92-1.57-.7-.86-1.18-1.82-1.25-2.69-.03-.22.1-.42.29-.42s.29.13.38.32c.93,1.76,2.18,2.46,3.81,3.04.61.22,1.31.61,1.73.99.32.32.67.7.67,1.15,0,.64-.38.9-.86.9-.32,0-.64-.06-.93-.16-.32-.1-.83-.16-1.15-.16-1.06,0-3.07.38-4.45,1.06-.48.22-.61.38-.61.61,0,.26.06.51.19.77.13.29.26.61.26,1.15,0,.38-.1.96-.32,2.37-.26,1.5-.38,3.39-.45,5.12,0,.29.03.38.1.38.1,0,.19-.06.29-.13,3.9-3.01,7.17-5.06,10.43-5.06s6.3,1.79,6.3,5.18c0,2.85-2.02,4.86-4.96,6.27-2.5,1.22-6.18,2.02-10.02,2.24-.32.03-.54-.13-.54-.42s.19-.42.48-.45c2.98-.38,6.53-1.34,8.99-2.75,2.56-1.47,3.9-2.94,3.9-5.44,0-2.24-1.86-3.68-4.1-3.68-3.07,0-6.4,2.3-8.61,4.77-.93,1.02-1.5,1.76-1.63,2.08-.22.54-.45.74-.99.74-.26,0-.61-.29-.86-.74-.29-.45-.42-.99-.42-1.79,0-2.21.42-4.96.8-7.17.16-.83.19-1.34.19-1.79,0-.42-.1-.93-.1-1.34,0-.77.42-1.18,1.18-1.63.67-.38,2.72-1.25,4.16-1.66v-.1Z"/>
    <path class="st0" d="M115.48,359.82c0,.1-.1.26-.16.42-.29.8-.38,1.34-.38,1.92,0,3.33,3.65,4.35,7.33,4.35,2.56,0,5.06-.32,5.95-.58.58-.16,1.22-.35,1.76-.35.9,0,1.76.32,1.76,1.02,0,.96-.58,1.15-1.76,1.34-1.06.16-4.35.54-6.75.54-4.29,0-9.34-1.02-9.34-5.98,0-.77.16-1.6.64-2.53.13-.26.32-.48.51-.48.22,0,.45.13.45.32ZM121.46,351.92c-2.37.16-4.67-.48-5.89-2.02-.1-.13-.1-.26-.1-.35s.16-.29.29-.29.35.13.48.22c1.06.77,2.72.99,4.06.99.61,0,1.76-.1,3.01-.26,1.28-.19,2.34-.42,3.33-.74.29-.1.7-.16,1.02-.16.22,0,.67.06.99.19.48.19.7.54.7.99,0,.54-.22.86-1.28.96-1.44.13-2.46.35-3.49.58-.74.16-1.76.54-2.5.96-1.28.74-2.59,1.66-3.78,2.56-.22.16-.38.16-.51.16s-.29-.13-.29-.26c0-.19.16-.38.26-.48,1.22-1.15,2.75-2.34,3.71-3.01l-.03-.06ZM130.55,346.19c.99.35,1.79.8,2.37,1.28.67.54,1.38,1.38,1.38,2.08,0,.58-.32.93-.8.93-.45,0-.64-.26-1.06-1.06-.38-.74-1.41-1.89-2.37-2.59-.13-.1-.19-.22-.19-.32,0-.19.16-.35.35-.35.1,0,.22,0,.32.03ZM133.43,344.27c.74.19,1.66.64,2.27,1.06.74.51,1.44,1.31,1.44,2.05,0,.54-.38.86-.74.86-.38,0-.61-.13-1.06-.86-.51-.9-1.57-1.92-2.62-2.56-.1-.06-.13-.22-.13-.32,0-.16.13-.32.32-.32.1,0,.29.03.51.1Z"/>
    <path class="st0" d="M108.41,405.13c.8-1.6,1.44-3.71,1.82-5.63.22-1.18.35-2.34.35-3.3,2.3.61,2.66.8,2.66,1.15,0,.22-.19.38-.96.58-.64,2.62-1.7,5.28-3.49,7.42-.13.16-.48-.06-.38-.22ZM114,393.61c-1.12.22-2.3.42-3.65.61-.22.7-.38.86-.64.86-.29,0-.45-.38-.83-2.72.64.06,1.12.1,1.54.1.45,0,.9-.03,1.28-.03,1.44-1.82,2.91-4.13,4.26-6.62.58-1.06,1.02-2.02,1.18-2.62,2.02,1.02,2.56,1.34,2.56,1.66,0,.26-.26.45-1.18.45-1.82,2.62-3.26,4.58-5.86,7.1,1.79-.06,3.58-.22,5.34-.38-.29-.9-.7-1.73-1.31-2.53-.1-.13.13-.29.26-.22,2.02,1.12,3.26,2.91,3.26,4.38,0,.83-.35,1.28-.99,1.28-.51,0-.67-.26-.8-1.25-.06-.38-.13-.74-.22-1.09-.8.26-1.63.45-2.46.67v6.82c0,3.55.13,6.14.13,6.91,0,.58-.38.86-1.18.86-.61,0-.86-.22-.86-.74s.19-2.56.19-6.34v-7.17ZM113.36,381.23c.32-.9.58-1.79.67-2.46,2.3.9,2.78,1.22,2.78,1.5s-.19.42-1.18.51c-1.09,1.86-2.08,3.2-3.33,4.58.93.74,1.38,1.5,1.38,2.27s-.45,1.18-.93,1.18-.74-.22-1.06-1.28c-.42-1.31-1.18-2.37-2.43-3.49-.16-.13.03-.35.22-.29.9.38,1.66.8,2.27,1.18.58-1.09,1.09-2.3,1.6-3.71ZM117.14,396.23c1.86,1.7,2.66,3.33,2.66,4.86,0,.96-.42,1.44-.96,1.44-.64,0-.8-.32-.86-1.66-.1-1.63-.38-2.88-1.15-4.45-.1-.16.16-.32.32-.19ZM129.27,386.44c-.06,1.31-.22,2.62-.45,3.94,2.91,2.18,4.58,4.58,4.58,6.37,0,.96-.45,1.34-1.02,1.34-.42,0-.7-.35-.99-1.57-.48-1.98-1.22-3.68-2.69-5.47-.19.83-.42,1.54-.7,2.18-.93,2.11-2.11,3.81-4.13,5.57-.13.13-.48-.13-.35-.29,1.5-1.92,2.34-3.62,3.04-5.7.51-1.57.83-3.46.99-6.37h-4.48v9.63c0,6.88.03,9.34.03,10.66,0,.67-.35.93-1.15.93-.64,0-.86-.22-.86-.74,0-1.63.16-5.38.16-13.98,0-4.7,0-6.53-.13-8.51.86.42,1.44.7,2.21,1.22h4.29c.03-1.15.06-2.46.06-3.94,0-1.09-.03-1.66-.16-2.62,2.59.29,3.01.45,3.01.86,0,.22-.13.38-.99.7,0,.61,0,1.15-.03,1.7-.03,1.22-.1,2.34-.16,3.3h4.74c.86-.96.99-1.02,1.15-1.02s.32.06,1.25.9c.45.38.54.54.54.7,0,.26-.16.42-.86.83v5.95c0,9.86.13,10.69.13,12,0,.96-.51,1.5-1.15,1.86-.38.26-.99.42-1.54.42-.35,0-.45-.03-.51-.48-.16-.74-.58-1.09-2.98-1.57-.19-.03-.16-.45.03-.42,1.89.16,2.69.19,3.62.19.35,0,.54-.19.54-.54v-18.01h-5.02Z"/>
    <path class="st0" d="M115.35,419.53c0-1.66,0-2.75-.19-4.32.9.32,1.57.67,2.4,1.15h11.26c.83-.96.99-1.06,1.15-1.06s.38.1,1.38.96c.38.32.48.48.48.64,0,.29-.22.51-.86.86v6.85h3.14c.77-.9.99-1.09,1.18-1.09.22,0,.61.29,1.66,1.34.42.42.58.64.58.86,0,.35-.32.51-1.28.48-.29,0-.42.06-.77.38-.64.67-1.38,1.28-2.37,1.98-.16.13-.38-.06-.29-.22.61-1.12.99-1.92,1.38-2.94h-21.57c-.1,2.43-1.31,4.06-2.62,4.06-.64,0-1.09-.42-1.09-1.09,0-.58.22-.86.86-1.22,1.38-.8,2.24-2.11,2.27-3.81,0-.19.38-.19.42,0,.1.42.13.86.16,1.25h2.72v-5.09ZM117.72,437.1v5.98c0,.61-.38.9-1.22.9-.67,0-.86-.19-.86-.77,0-1.12.13-4.06.13-9.76,0-4.1,0-5.02-.13-6.56.93.38,1.57.67,2.4,1.25h10.21c.9-.96.99-1.06,1.18-1.06.16,0,.32.1,1.34.93.48.45.54.58.54.74,0,.22-.19.48-.86.86v3.97c0,6.02.13,7.2.13,8.13,0,1.09-.51,1.57-1.15,1.92-.38.19-.99.35-1.31.35s-.42,0-.48-.35c-.1-.83-.67-1.22-3.26-1.76-.19-.03-.16-.45.03-.42,2.11.22,2.91.26,3.62.26.29,0,.45-.16.45-.58v-4.03h-10.75ZM121.59,421.9c0-.9-.03-1.54-.19-2.88.83.32,1.44.61,2.27,1.06h5.34v-2.91h-11.71v7.46h4.29v-2.72ZM128.47,428.94h-10.75v3.23h10.75v-3.23ZM128.47,432.97h-10.75v3.33h10.75v-3.33ZM129.01,424.62v-3.74h-5.57v3.74h5.57Z"/>
    <path class="st0" d="M122.71,455.72c-.03-1.02-.1-1.41-.38-1.73-.42-.42-.99-.51-1.66-.45-.13,0-.22-.1-.22-.22,0-.19.1-.35.35-.51.35-.22.77-.32,1.22-.32.61,0,1.18.16,1.95.58.9.54,1.28,1.09,1.28,1.41,0,.35-.16.51-.38.7-.29.26-.42.77-.45,1.18-.06.86-.1,1.7-.06,2.3,1.28-.19,2.3-.38,3.3-.7.42-.13,1.06-.32,1.34-.48.38-.19,1.15-.45,1.6-.45,1.22,0,1.86.22,1.86.83,0,.51-.32.8-1.57,1.06-1.89.45-4.35.96-6.59,1.28,0,1.73,0,3.36.03,5.09,1.09-.16,1.86-.32,2.85-.64.42-.13.9-.32,1.12-.48.38-.32,1.02-.48,1.47-.48.64,0,1.02.32,1.06.77,0,.45-.22.77-.83.99-1.63.64-3.49,1.02-5.63,1.28.06,2.05.13,4.29.29,6.34,2.91.9,5.41,1.92,7.07,2.94.83.48,1.18.86,1.18,1.5,0,.48-.35,1.02-.9,1.02-.42,0-.9-.19-1.18-.42-1.73-1.31-4-2.62-6.14-3.39.03,1.18-.29,2.18-1.15,2.88-.8.64-1.89,1.02-4,1.02-1.89,0-4.96-.67-4.96-3.07,0-2.21,3.1-3.1,5.44-3.1,1.09,0,2.24.16,3.07.29-.06-2.02-.1-4.06-.13-5.79-.64.06-1.73.16-3.23.16-2.66,0-3.71-.96-3.71-2.14,0-.61.13-1.06.32-1.41.13-.22.38-.51.54-.51.22,0,.29.06.29.22,0,.13-.03.19-.06.29-.1.26-.13.61-.13.99,0,.77.8,1.18,2.53,1.18,1.28,0,2.27-.1,3.42-.22-.03-1.73-.06-3.36-.13-5.09-1.79.26-3.87.45-5.6.48-1.86.03-3.65-.35-4.83-1.82-.13-.16-.16-.29-.16-.45,0-.1.1-.22.26-.22s.29.06.45.16c1.15.74,2.14.99,3.46.96,1.57,0,4-.22,6.4-.58-.03-1.12-.03-2.08-.03-3.23ZM119.64,473.67c-2.53,0-4.1.67-4.1,1.86s1.44,1.73,3.65,1.73c1.6,0,2.46-.32,3.04-.83.64-.58.8-1.12.8-2.18-1.09-.35-2.21-.58-3.39-.58Z"/>
    <path class="st0" d="M125.75,493.58c-2.91.86-5.98,1.82-8.58,2.75-1.06.38-1.98.86-2.37,1.09-.38.26-.61.35-1.09.35-.61,0-1.34-.42-2.11-1.31-.35-.45-.86-1.22-.86-1.82,0-.42.13-.61.32-.61.13,0,.22.1.42.29.74.8,1.22,1.15,2.14,1.12.35,0,1.28-.16,2.05-.35,4.19-1.06,8.96-2.3,13.89-3.55.61-.13,1.28-.38,1.5-.51.29-.19.67-.32,1.06-.32.61,0,1.22.16,1.82.42.45.16.86.48.86.96,0,.45-.38.83-1.06.86-2.18.06-4.1.29-6.21,1.06-3.14,1.09-6.46,4.8-6.46,8.61,0,1.98.58,3.9,2.18,5.18,1.5,1.28,3.78,1.95,5.57,1.98.7.03,1.73.16,2.43.54.48.26.77.54.77,1.15,0,.48-.48.83-1.47.83-2.24,0-5.89-.83-8-2.66-1.89-1.57-2.78-3.65-2.78-6.11,0-4.03,2.4-7.81,6.05-9.85l-.06-.1ZM130.45,497.87c.99.35,1.79.8,2.37,1.28.67.54,1.38,1.38,1.38,2.08,0,.58-.32.93-.8.93-.45,0-.64-.26-1.06-1.06-.38-.74-1.41-1.89-2.37-2.59-.13-.1-.19-.22-.19-.32,0-.19.16-.35.35-.35.1,0,.22,0,.32.03ZM133.33,495.95c.74.19,1.66.64,2.27,1.06.74.51,1.44,1.31,1.44,2.05,0,.54-.38.86-.74.86-.38,0-.61-.13-1.06-.86-.51-.9-1.57-1.92-2.62-2.56-.1-.06-.13-.22-.13-.32,0-.16.13-.32.32-.32.1,0,.29.03.51.1Z"/>
    <path class="st0" d="M113.49,533.74c.13.86.19,1.7.19,2.46,0,3.78-1.38,6.53-3.26,6.53-.67,0-1.18-.51-1.18-1.25,0-.54.22-.9.83-1.34,1.73-1.38,2.72-3.55,3.01-6.4.03-.19.38-.19.42,0ZM119.57,544.75c0,1.66.35,1.89,4.38,1.89,2.78,0,3.58-.06,4.38-.51.7-.38,1.12-1.25,2.08-4.93.03-.19.42-.16.42.03-.1,1.82-.16,3.07-.16,3.71,0,.51.16.67.58.86.29.13.38.35.38.67,0,.67-.64,1.25-1.54,1.54-.99.32-2.88.54-6.56.54-5.28,0-6.11-.77-6.11-3.55,0-.61.1-2.59.1-8.74,0-5.12-.03-6.21-.19-7.94,3.1.35,3.39.51,3.39.93,0,.29-.16.54-1.15.93v14.56ZM119.19,521.97c4.19.61,7.58,2.69,7.58,4.54,0,.7-.42,1.31-1.12,1.31-.42,0-.67-.13-1.47-1.22-1.28-1.73-2.98-3.26-5.12-4.29-.16-.1-.06-.38.13-.35ZM131.92,533.2c3.2,2.05,5.15,5.18,5.15,7.33,0,1.15-.45,1.76-1.25,1.76-.7,0-1.02-.35-1.28-1.95-.32-2.34-1.47-4.9-2.91-6.88-.13-.16.13-.35.29-.26Z"/>
    <path class="st0" d="M117.72,570.44c1.31-1.02,2.85-1.6,3.9-1.6,1.66,0,2.75.96,2.85,2.85.03.38.06.9.06,1.31,2.37-1.41,4.77-2.85,6.62-4.1.29-.19.35-.35.35-.54,0-.16-.1-.29-.29-.42-.29-.19-.64-.32-1.12-.38-.19-.03-.29-.03-.29-.19,0-.29.61-.51,1.28-.51.77,0,1.63.32,2.37.77.83.51,1.31.9,1.31,1.5,0,.42-.29.64-.64.67-.22.03-.51.06-.96.26-1.54.64-3.55,1.6-5.82,2.82-.86.48-1.86,1.06-2.82,1.6,0,1.34.03,2.78.03,4.61,0,.86-.45,1.22-.86,1.22-.45,0-.9-.35-.9-.86,0-.99.06-2.21.1-4-1.82,1.02-4.45,2.5-4.45,4.8,0,1.44,1.12,2.37,3.71,2.37,1.54,0,3.49-.1,4.83-.26.77-.1,1.22-.19,1.76-.32.42-.1.77-.19,1.22-.19,1.15,0,1.95.64,1.95,1.28,0,.58-.45.9-1.86,1.02-1.57.13-3.46.19-6.05.19-5.09,0-6.66-1.6-6.66-3.9,0-2.94,2.56-4.67,5.57-6.5v-1.34c.03-2.21-.58-2.78-1.57-2.78-1.41,0-2.82.93-4.06,2.11-1.12,1.09-1.76,1.86-2.88,3.42-.19.29-.61.48-.8.48-.45,0-.86-.42-.86-.99,0-.51.22-.83.93-1.57,1.12-1.15,2.34-2.59,3.23-3.87.9-1.28,1.54-2.4,2.3-3.84-.83.1-1.95.26-3.07.26-1.7,0-2.56-.42-3.46-1.73-.1-.16-.16-.35-.16-.45,0-.19.13-.42.29-.42.19,0,.35.13.51.29.83.8,1.47.93,2.69.93,1.12,0,2.72-.22,3.97-.51.45-.96.67-1.57.96-2.43.1-.32.22-.8.22-1.18,0-.51-.61-.86-1.98-.86-.22,0-.35-.03-.35-.16s.1-.32.35-.48c.32-.19.83-.29,1.18-.29.7,0,1.34.26,1.89.51s1.41.8,1.41,1.44c0,.32-.13.54-.38.7-.19.13-.51.38-.83,1.02-.19.35-.48.9-.74,1.38.83-.26,1.92-.64,2.94-1.22.51-.29,1.09-.58,1.63-.58.64,0,1.06.38,1.06.8,0,.48-.22.67-1.02.99-1.63.64-3.65,1.28-5.5,1.7-1.02,1.79-2.02,3.49-3.17,5.12l.06.06Z"/>
    <path class="st0" d="M115.57,616.02c.8,1.5,1.7,2.21,2.82,2.69,1.38.54,3.62.96,9.02.96,2.98,0,7.01-.26,10.88-.8.19-.03.22.29.06.38-.8.45-.96.7-1.06,1.54-.06.38-.19.48-.58.51-2.88.26-5.31.32-8.19.32-6.66,0-9.28-.7-10.78-1.76-1.22-.83-2.21-2.05-2.94-3.97-1.06,1.5-2.4,3.14-3.65,4.42.03,1.09-.13,1.44-.48,1.44-.29,0-.64-.48-1.95-2.98.61-.16,1.12-.38,1.76-.7.93-.48,1.95-1.12,3.1-2.11v-8.19h-2.08c-1.06,0-1.57.06-2.37.22l-.32-1.28c1.02.22,1.63.26,2.69.26h1.86c.96-1.06,1.06-1.12,1.25-1.12.16,0,.35.06,1.31.9.48.42.51.61.51.77,0,.19-.1.35-.86.86v7.65ZM110.93,594.87c2.94,1.06,4.74,2.82,4.74,4.22,0,.86-.48,1.54-1.31,1.54-.45,0-.77-.35-1.02-1.22-.38-1.38-1.38-3.07-2.66-4.29-.13-.13.06-.32.26-.26ZM125.84,595.93c.86-.9,1.06-1.02,1.22-1.02.19,0,.32.1,1.12.8.42.38.58.58.58.74,0,.26-.22.42-1.41,1.12.16,4.83,1.44,8.32,3.55,11.46,2.08,3.1,4.06,4.51,6.85,5.95.13.06.03.26-.13.32-.67.22-.93.48-1.31,1.44-.13.32-.26.42-.45.42s-.51-.19-1.09-.67c-2.14-1.89-3.71-3.84-4.86-5.95-1.09-2.02-1.82-4.38-2.53-7.49-1.57,5.73-4.86,10.24-10.02,13.69-.16.1-.38-.26-.26-.38,5.44-4.99,8.32-10.78,9.18-19.61h-4.38c-.99,0-1.5.06-2.3.19l-.29-1.25c.99.22,1.5.26,2.56.26h3.97Z"/>
    <path class="st0" d="M131.89,638.86c1.98,1.47,2.91,3.39,2.91,5.6,0,6.27-6.98,9.22-12.54,10.02-.32.03-.64-.06-.64-.38,0-.26.1-.42.48-.51,4.48-1.12,10.62-3.84,10.62-9.22,0-2.37-.83-3.65-2.02-4.58-1.57-1.25-3.23-1.86-5.41-1.86-1.6,2.91-3.23,5.66-5.25,8.35.19.26.74.77,1.02.99.48.38.86.74.86,1.09,0,.64-.26.93-.83.93-.29,0-.67-.13-.93-.35-.48-.42-.8-.7-1.22-1.18-.64.8-1.38,1.66-2.08,2.37-.96.93-1.92,1.28-2.82,1.28-1.63,0-2.66-1.31-2.66-3.55s1.66-5.44,4.32-7.49c-.06-.42-.13-.8-.19-1.22-.19-1.22-.35-2.02-.7-2.72-.32-.64-.99-1.28-1.95-1.76-.16-.1-.32-.22-.32-.42,0-.13.19-.35.38-.35.1,0,.19,0,.32.03,1.22.35,2.27.9,2.78,1.5.51.64.7,1.38.83,2.53.06.48.1.99.16,1.5,2.14-1.38,4.54-2.21,7.1-2.5.22-.51.42-.99.64-1.54.29-.74.42-1.38.42-1.76,0-.83-.83-1.25-1.79-1.28-.19,0-.42-.06-.42-.22s.1-.29.32-.48c.26-.16.51-.29.8-.29.77,0,1.76.35,2.4.7.58.35,1.15.7,1.15,1.41,0,.38-.19.61-.29.77-.19.29-.35.54-.61,1.02-.32.61-.51.99-.83,1.6,2.05.1,4.03.51,5.95,1.95ZM112.92,647.24c0,1.38.48,2.24,1.41,2.24.58,0,1.31-.29,1.86-.74.74-.58,1.41-1.34,2.02-2.11-.96-1.5-1.66-3.17-2.14-5.12-2.05,1.79-3.14,4.35-3.14,5.73ZM119.16,645.26c1.79-2.3,3.17-4.67,4.54-7.23-2.14.32-4.42,1.15-6.46,2.59.35,1.7.9,3.07,1.92,4.64Z"/>
    <path class="st0" d="M123.92,670.19c.54-.26,1.06-.51,1.54-.51.45,0,.99.26.99.8,0,.51-.38.8-1.12,1.09-1.47.54-3.23,1.12-5.25,1.66-2.05,5.73-3.68,10.53-5.92,15.68-.26.58-.67.8-1.02.8-.22,0-.58-.13-.74-.32-.16-.22-.22-.42-.22-.7,0-.19.06-.42.16-.64,2.4-4.74,4.32-9.34,6.14-14.4-1.09.26-2.4.48-3.42.48s-2.34-.32-3.1-.9c-.42-.29-.93-.74-.93-1.18,0-.19.16-.35.35-.35.13,0,.35.13.61.29.8.54,1.63.74,2.72.74,1.28,0,2.91-.38,4.35-.83.38-1.09.64-1.89.9-2.85.13-.45.32-1.18.32-1.66,0-.64-.48-1.22-1.54-1.44-.48-.1-.54-.16-.54-.32s.22-.32.45-.42c.32-.1.61-.16.86-.16.54,0,1.89.45,2.69,1.09.32.26.54.61.54.93,0,.35-.19.7-.45.9-.35.29-.45.58-.67,1.09-.32.7-.61,1.57-.93,2.43,1.18-.38,2.14-.77,3.23-1.28ZM123.12,684.84c0,1.22.7,2.14,1.63,2.62,1.22.64,2.69.67,4.26.67,1.12,0,2.4-.19,2.94-.32.48-.13.8-.19,1.31-.19.32,0,.67.06.99.19.48.19.64.58.64.9,0,.58-.26.86-1.38,1.02-1.31.19-2.43.22-3.49.22-2.59,0-4.45-.29-5.92-1.18-1.18-.74-2.02-2.05-2.02-3.36,0-.86.26-1.66.58-2.37.13-.29.35-.58.58-.58.16,0,.22.16.22.26,0,.16-.1.42-.13.54-.16.51-.22,1.09-.22,1.57ZM129.43,675.91c-1.7-.06-3.9.19-5.6,1.12-.1.03-.26.06-.35.06-.16,0-.26-.1-.26-.22,0-.16.1-.32.26-.45,1.98-1.47,4.35-1.95,6.59-1.86,1.06.06,2.27.29,3.01.64.61.29.93.67.9,1.18-.03.45-.38.7-.77.67-.22,0-.45-.06-.7-.16-.38-.13-.61-.19-.86-.19-.32-.03-.7.03-1.25.29-.8.35-2.14,1.31-3.23,2.05-.22.13-.38.16-.51.16-.16,0-.22-.1-.22-.26,0-.13.13-.26.29-.42.74-.64,2.05-1.7,2.75-2.27.26-.22.26-.32-.03-.35Z"/>
    <path class="st0" d="M115.48,713.99c0,.1-.1.26-.16.42-.29.8-.38,1.34-.38,1.92,0,3.33,3.65,4.35,7.33,4.35,2.56,0,5.06-.32,5.95-.58.58-.16,1.22-.35,1.76-.35.9,0,1.76.32,1.76,1.02,0,.96-.58,1.15-1.76,1.34-1.06.16-4.35.54-6.75.54-4.29,0-9.34-1.02-9.34-5.98,0-.77.16-1.6.64-2.53.13-.26.32-.48.51-.48.22,0,.45.13.45.32ZM121.46,706.09c-2.37.16-4.67-.48-5.89-2.02-.1-.13-.1-.26-.1-.35s.16-.29.29-.29.35.13.48.22c1.06.77,2.72.99,4.06.99.61,0,1.76-.1,3.01-.26,1.28-.19,2.34-.42,3.33-.74.29-.1.7-.16,1.02-.16.22,0,.67.06.99.19.48.19.7.54.7.99,0,.54-.22.86-1.28.96-1.44.13-2.46.35-3.49.58-.74.16-1.76.54-2.5.96-1.28.74-2.59,1.66-3.78,2.56-.22.16-.38.16-.51.16s-.29-.13-.29-.26c0-.19.16-.38.26-.48,1.22-1.15,2.75-2.34,3.71-3.01l-.03-.06ZM130.55,700.36c.99.35,1.79.8,2.37,1.28.67.54,1.38,1.38,1.38,2.08,0,.58-.32.93-.8.93-.45,0-.64-.26-1.06-1.06-.38-.74-1.41-1.89-2.37-2.59-.13-.1-.19-.22-.19-.32,0-.19.16-.35.35-.35.1,0,.22,0,.32.03ZM133.43,698.44c.74.19,1.66.64,2.27,1.06.74.51,1.44,1.31,1.44,2.05,0,.54-.38.86-.74.86-.38,0-.61-.13-1.06-.86-.51-.9-1.57-1.92-2.62-2.56-.1-.06-.13-.22-.13-.32,0-.16.13-.32.32-.32.1,0,.29.03.51.1Z"/>
    <path class="st0" d="M114.1,750.03c0,7.68.03,10.46.03,11.26,0,.67-.42.99-1.22.99-.58,0-.9-.22-.9-.86,0-.58.06-2.69.16-11.33.03-1.92.03-3.81.06-5.73-1.12,1.66-2.33,3.2-3.78,4.67-.13.13-.51-.16-.38-.32,2.4-3.17,4.64-8.03,5.82-12.1.35-1.25.64-2.43.74-3.52,2.27.64,3.23,1.09,3.23,1.44,0,.32-.35.48-1.28.64-1.06,3.01-2.18,5.54-3.49,7.78,1.66.26,1.98.42,1.98.74,0,.26-.13.42-.99.77v5.57ZM115.19,761.45c2.37-1.76,4.13-3.78,5.79-6.33.45-.67.77-1.34.96-1.92,1.98.86,2.75,1.31,2.75,1.63,0,.29-.48.45-1.31.45-2.27,3.01-4.67,4.96-7.9,6.59-.16.1-.45-.29-.29-.42ZM129.04,738.92c0-2.56-.03-4-.19-5.15,2.78.29,3.23.48,3.23.83,0,.22-.19.45-1.06.83v5.89h2.08c1.25-1.47,1.47-1.66,1.63-1.66.19,0,.45.19,1.79,1.31.64.51.7.67.7.86s-.13.29-.45.29h-5.76v8.58h2.59c1.31-1.57,1.54-1.79,1.76-1.79.16,0,.45.22,1.79,1.38.67.58.74.74.74.93s-.13.29-.42.29h-19.55c-.83,0-1.31.03-2.21.16l-.32-1.18c1.02.19,1.6.22,2.5.22h3.01v-8.58h-1.92c-.77,0-1.28.03-2.14.16l-.32-1.18c.99.16,1.57.22,2.43.22h1.95v-2.27c0-2.62,0-4.1-.16-5.28,2.78.29,3.17.48,3.17.86,0,.19-.19.42-1.06.83v5.86h6.17v-2.4ZM129.04,742.12h-6.17v8.58h6.17v-8.58ZM128.6,753.48c4.54,1.92,7.26,4.64,7.26,6.75,0,.8-.32,1.41-1.09,1.41-.45,0-.77-.29-1.18-1.25-1.06-2.46-2.66-4.42-5.22-6.59-.16-.13.03-.38.22-.32Z"/>
    <path class="st0" d="M122.77,790.86c1.18,1.38,2.66,2.46,4.29,3.26,1.89-1.15,3.1-2.18,4.29-3.42.29-.32.48-.58.7-.99,1.6,1.12,2.05,1.6,2.05,1.86,0,.19-.13.32-.42.32s-.51-.06-.8-.13c-1.6,1.09-3.2,1.95-5.18,2.66.45.19.9.38,1.38.54,2.5.9,5.44,1.22,8.13,1.22.16,0,.16.26,0,.29-.77.19-1.02.38-1.38,1.34-.1.35-.26.48-.54.48-.26,0-.99-.1-1.44-.19-2.27-.48-4.29-1.15-6.05-2.05-2.08-1.09-4.06-2.62-5.86-5.18h-5.09v4.48c2.43-.32,4.93-.77,6.88-1.28.19-.03.35.35.16.42-3.36,1.41-7.71,2.56-11.39,3.2-.26.83-.38.96-.61.96-.29,0-.42-.29-1.09-2.85.61.03,1.15.03,1.92-.03.7-.06,1.47-.13,2.24-.19v-10.53c-1.82,1.63-3.94,2.94-6.56,4.03-.19.06-.42-.32-.26-.42,3.52-2.08,6.78-5.22,8.61-8.32h-5.15c-.77,0-1.31.03-2.24.19l-.29-1.22c1.02.19,1.6.22,2.53.22h10.14v-2.66h-6.75c-.7,0-1.22.03-2.08.19l-.32-1.22c.93.16,1.5.22,2.37.22h6.78v-2.53h-8.99c-.74,0-1.25.03-2.14.19l-.32-1.22c.96.19,1.57.22,2.46.22h5.92c-.19-.13-.38-.35-.48-.67-.35-1.09-.77-1.86-1.86-3.01-.13-.13.03-.29.19-.26,2.27.58,3.62,1.73,3.62,2.85,0,.48-.29.9-.67,1.09h6.08c.7-1.09.96-1.63,1.31-2.37.26-.54.45-1.09.58-1.6,2.3.96,2.72,1.15,2.72,1.5,0,.32-.38.45-1.34.51-.67.61-1.38,1.31-2.24,1.95h5.6c1.15-1.34,1.28-1.47,1.47-1.47s.35.13,1.66,1.15c.58.45.64.64.64.83,0,.16-.1.29-.42.29h-11.87v2.53h6.75c1.06-1.22,1.22-1.31,1.41-1.31.16,0,.42.1,1.54,1.02.51.45.61.61.61.77,0,.22-.1.32-.42.32h-9.89v2.66h9.66c1.18-1.38,1.34-1.47,1.54-1.47.16,0,.35.1,1.66,1.15.58.48.64.64.64.8,0,.19-.1.32-.42.32h-8.93c1.25,1.7,2.78,3.1,4.45,4.03,1.57.9,3.58,1.6,5.95,1.92.16.03.06.29-.1.32-.61.13-.86.32-1.15,1.15-.16.45-.26.58-.48.58-.16,0-.61-.13-1.09-.35-1.47-.67-3.39-1.76-4.77-2.98v1.86c0,2.66.06,3.39.06,3.71,0,.54-.32.83-1.06.83-.54,0-.77-.16-.83-.54h-6.05ZM119,780.33c-.77,1.12-1.6,2.24-2.53,3.23l.48.26h4.83v-1.12c0-.42-.03-.96-.13-1.82,2.46.26,2.78.48,2.78.8,0,.19-.16.38-.9.67v1.47h5.09l.48-.48c-.77-.96-1.44-1.95-2.02-3.01h-8.1ZM128.82,784.62h-11.97v2.27h11.97v-2.27ZM116.85,787.69v2.37h11.97v-2.37h-11.97Z"/>
    <path class="st0" d="M117.72,818.6c1.31-1.02,2.85-1.6,3.9-1.6,1.66,0,2.75.96,2.85,2.85.03.38.06.9.06,1.31,2.37-1.41,4.77-2.85,6.62-4.1.29-.19.35-.35.35-.54,0-.16-.1-.29-.29-.42-.29-.19-.64-.32-1.12-.38-.19-.03-.29-.03-.29-.19,0-.29.61-.51,1.28-.51.77,0,1.63.32,2.37.77.83.51,1.31.9,1.31,1.5,0,.42-.29.64-.64.67-.22.03-.51.06-.96.26-1.54.64-3.55,1.6-5.82,2.82-.86.48-1.86,1.06-2.82,1.6,0,1.34.03,2.78.03,4.61,0,.86-.45,1.22-.86,1.22-.45,0-.9-.35-.9-.86,0-.99.06-2.21.1-4-1.82,1.02-4.45,2.5-4.45,4.8,0,1.44,1.12,2.37,3.71,2.37,1.54,0,3.49-.1,4.83-.26.77-.1,1.22-.19,1.76-.32.42-.1.77-.19,1.22-.19,1.15,0,1.95.64,1.95,1.28,0,.58-.45.9-1.86,1.02-1.57.13-3.46.19-6.05.19-5.09,0-6.66-1.6-6.66-3.9,0-2.94,2.56-4.67,5.57-6.5v-1.34c.03-2.21-.58-2.78-1.57-2.78-1.41,0-2.82.93-4.06,2.11-1.12,1.09-1.76,1.86-2.88,3.42-.19.29-.61.48-.8.48-.45,0-.86-.42-.86-.99,0-.51.22-.83.93-1.57,1.12-1.15,2.34-2.59,3.23-3.87.9-1.28,1.54-2.4,2.3-3.84-.83.1-1.95.26-3.07.26-1.7,0-2.56-.42-3.46-1.73-.1-.16-.16-.35-.16-.45,0-.19.13-.42.29-.42.19,0,.35.13.51.29.83.8,1.47.93,2.69.93,1.12,0,2.72-.22,3.97-.51.45-.96.67-1.57.96-2.43.1-.32.22-.8.22-1.18,0-.51-.61-.86-1.98-.86-.22,0-.35-.03-.35-.16s.1-.32.35-.48c.32-.19.83-.29,1.18-.29.7,0,1.34.26,1.89.51s1.41.8,1.41,1.44c0,.32-.13.54-.38.7-.19.13-.51.38-.83,1.02-.19.35-.48.9-.74,1.38.83-.26,1.92-.64,2.94-1.22.51-.29,1.09-.58,1.63-.58.64,0,1.06.38,1.06.8,0,.48-.22.67-1.02.99-1.63.64-3.65,1.28-5.5,1.7-1.02,1.79-2.02,3.49-3.17,5.12l.06.06Z"/>
  </g>
</svg>