<?xml version="1.0" encoding="UTF-8"?>
<svg id="_レイヤー_1" data-name="レイヤー_1" xmlns="http://www.w3.org/2000/svg" version="1.1" viewBox="0 0 829.81 155.62">
  <!-- Generator: Adobe Illustrator 29.4.0, SVG Export Plug-In . SVG Version: 2.1.0 Build 152)  -->
  <defs>
    <style>
      .st0 {
        fill: #777;
      }

      .st1 {
        fill: #222;
      }
    </style>
  </defs>
  <g>
    <path class="st1" d="M224.77,124.18c2.59-.07,4.96-.15,6.29-.22.96-.07,2-.22,2.52-.44.67-.37,1.18-.74,2.07-.74,1.04,0,3.48,1.18,5.11,2.29.96.59,1.41,1.33,1.41,2,0,1.04-.89,1.78-1.92,1.78-1.33,0-3.33-.37-4.88-.59-2.96-.37-5.99-.52-8.96-.59-5.33-.07-10.66.15-15.91.52-5.7.37-11.25,1.18-16.72,1.92-1.26.15-1.92.52-2.29.74-.74.37-1.55.44-1.92.44-1.04,0-2.81-1.11-4.81-3.4-1.18-1.33-1.63-2.74-1.63-3.77,0-.44.37-.89.59-.89.3,0,.59.15.96.52,1.63,1.78,3.48,2.59,5.33,2.67,1.33.07,2.89-.07,4.66-.22,4.29-.44,9.18-.89,15.76-1.48.15-3.48.22-7.25.3-11.17.07-2.89.07-5.55.07-7.77,0-.96-.22-1.48-.74-2.15-.37-.44-.89-.96-1.63-1.55-1.18.07-2.67.22-5.7.44-1.33.07-2.29.15-3.7.15-1.78,0-2.96-.59-4.59-2.22-1.33-1.33-2-2.44-2-3.03,0-.52.44-.81.81-.81s.81.15,1.04.37c1.85,1.63,4.29,2.44,6.88,2.44,1.41,0,5.11-.3,9.32-.81,5.11-.59,9.18-1.33,11.69-1.92,1.26-.3,2.37-.74,2.74-.96.89-.44,1.33-.67,2.29-.67,1.7,0,3.18.52,4.88,1.48.67.37,1.04,1.11,1.04,1.63,0,.81-.67,1.41-1.48,1.55-1.26.22-2.59.3-3.92.37-5.11.44-10.14,1.04-14.88,1.55.96.44,1.63.96,2.22,1.41.44.37.89,1.04.89,1.63s-.15,1.04-.37,1.48c-.07.22-.3.74-.37,2-.3,6.59-.44,9.99-.74,16.43,3.63-.22,6.96-.3,10.29-.37Z"/>
    <path class="st1" d="M257.55,94.43c0-.44.37-.81.81-.81s.96.07,1.26.15c2.52.52,5.62,1.92,8.14,3.85,2.07,1.63,3.77,3.63,3.77,6.14,0,1.78-1.04,2.81-2.37,2.81-1.41.07-2-.59-2.81-2.15-1.85-3.48-4.81-6.96-8.14-9.03-.37-.22-.67-.52-.67-.96ZM267.54,128.1c6.22-3.77,13.02-9.1,19.32-14.88,6.07-5.55,11.91-11.99,16.58-18.06.37-.44.74-.67,1.04-.67.44,0,1.11.37,1.11.81,0,.37-.15.81-.44,1.33-4.66,7.7-10.07,13.91-15.99,19.76-5.7,5.7-12.06,10.88-18.95,16.06-.81.59-1.55,1.26-1.85,2-.44.89-.96,1.26-1.92,1.26-1.18,0-2.89-.96-4.81-2.81-1.78-1.78-3.03-3.63-3.03-4.88,0-.81.3-1.48.67-1.48s.67.3.96.59c1.78,1.55,2.74,2.37,4,2.37.74,0,1.7-.44,3.33-1.41Z"/>
    <path class="st1" d="M316.52,106.12c0-.44.3-.74,1.11-.74,2,0,4.96.81,6.96,1.7,3.18,1.41,5.25,3.11,5.25,5.25s-1.18,2.96-2.59,2.96c-.96,0-2-.89-2.89-2.15-1.92-2.59-4.07-4.37-7.1-6-.44-.22-.74-.59-.74-1.04ZM329.99,130.69c7.77-4.14,14.8-8.88,21.76-14.28,5.55-4.37,10.66-8.88,15.39-13.84.74-.81,1.26-1.41,1.55-1.41.44,0,1.11.44,1.11.96,0,.3-.07.52-.81,1.55-3.92,5.62-9.33,10.8-15.54,16.13-6.88,5.85-13.99,10.8-21.31,15.39-.74.44-1.18.96-1.48,1.41-.37.59-1.26,1.48-2.22,1.48-1.18,0-2.81-1.26-4.37-2.89-1.48-1.55-2.81-3.55-2.81-5.55,0-1.04.15-1.92.74-1.92.44,0,.81.37,1.26,1.11.74,1.18,2.59,2.96,3.7,2.96.67,0,1.26-.15,3.03-1.11ZM325.77,91.03c0-.44.3-.74,1.11-.74,1.7,0,5.11,1.18,7.18,2.37,3.03,1.7,4.44,3.26,4.44,5.33,0,1.78-1.33,2.81-2.66,2.81-1.04,0-1.78-.81-2.29-1.55-1.85-2.89-4.14-5.18-7.18-7.33-.3-.22-.59-.44-.59-.89ZM359.82,85.55c2.29.81,4.14,1.85,5.48,2.96,1.55,1.26,3.18,3.18,3.18,4.81,0,1.33-.74,2.15-1.85,2.15-1.04,0-1.48-.59-2.44-2.44-.89-1.7-3.26-4.37-5.48-5.99-.3-.22-.44-.52-.44-.74,0-.44.37-.81.81-.81.22,0,.52,0,.74.07ZM366.48,81.11c1.7.44,3.85,1.48,5.25,2.44,1.7,1.18,3.33,3.03,3.33,4.74,0,1.26-.89,2-1.7,2-.89,0-1.41-.3-2.44-2-1.18-2.07-3.63-4.44-6.07-5.92-.22-.15-.3-.52-.3-.74,0-.37.3-.74.74-.74.22,0,.67.07,1.18.22Z"/>
    <path class="st1" d="M411.91,129.95c2,0,3.48-.07,4.66-.15.74-.07,1.33-.22,1.78-.44.52-.22,1.11-.52,1.85-.52,1.18,0,2.96.89,3.92,1.55,1.04.67,1.48,1.11,1.48,2.29,0,.74-.81,1.18-1.7,1.18-1.41,0-2.52-.22-3.77-.44-2.29-.3-5.85-.52-9.03-.52-3.48,0-6.88.07-10.36.3-4.44.3-8.29.89-11.99,1.41-1.04.15-1.78.37-2.22.67-.52.37-1.18.59-1.85.59-.96,0-2.15-.74-3.77-2.22-1.41-1.33-1.92-2.59-1.92-3.85,0-.52.44-.89.67-.89s.52.22.89.67c1.04,1.11,2.52,2.07,4,2.07.52,0,1.63-.07,3.77-.3,3.33-.37,7.47-.74,12.29-1.11.15-4.44.3-8.88.3-13.25,0-1.55-.15-2.37-.59-3.03-.3-.44-.67-.67-1.26-.96-4,.3-5.85.37-7.1.37-1.41,0-2.22-.37-3.48-1.63-1.04-1.04-1.92-2.22-1.92-2.74,0-.37.37-.74.81-.74.37,0,.67.22.96.52,1.26,1.18,2.74,1.7,4.66,1.7s4.51-.15,7.77-.52c4-.44,7.03-.89,9.03-1.41.96-.22,1.85-.59,2.15-.74.67-.3,1.18-.59,2-.59,1.26,0,2.74.44,3.7.96.89.44,1.11.96,1.11,1.78,0,.96-.52,1.26-1.63,1.33s-1.92.07-3.7.22c-3.11.3-7.18.74-10.58,1.11.74.3,1.18.59,1.63.96.37.3.96.89.96,1.41,0,.44-.07.89-.3,1.18-.15.15-.3.52-.37,1.55-.3,4.51-.37,7.7-.59,12.36,2.59-.07,5.11-.15,7.77-.15Z"/>
    <path class="st1" d="M454.76,102.42c-.81-.67-1.78-1.26-2.52-1.55-.67-.3-.96-.44-.96-.89,0-.52.74-1.11,1.7-1.11,1.92,0,4.14,1.11,5.92,2.29,1.33.89,2.89,2.29,2.89,3.77,0,.59-.22,1.04-.89,1.63-.81.67-1.04,1.55-1.33,2.66-1.48,5.18-4,10.07-7.18,14.58-3.33,4.59-7.03,8.21-11.92,11.47-.37.22-.74.44-1.18.44-.37,0-.89-.22-.89-.59s0-.59.52-1.04c4.59-4,7.47-7.7,10.14-11.99,3.03-5.03,4.96-9.69,5.85-13.25.44-1.78.74-3.18.74-4.22,0-1.18-.3-1.7-.89-2.22ZM468.3,96.65c-.44-1.11-1.63-1.78-3.63-2.59-.37-.15-.67-.3-.67-.67,0-.59.96-1.33,2.22-1.33,1.18,0,2.96.59,5.33,2,1.63.96,2.81,1.92,2.81,3.18,0,.67-.37,1.26-.81,1.7-.44.52-.67,1.63-.67,2.66-.22,7.18-.44,14.65-.44,23.09,0,.37.07.59.37.59.22,0,.44-.07.96-.3,9.25-4,18.58-10.14,26.35-16.58.37-.3.59-.52.96-.52s.96.37.96.89c0,.22-.15.59-.37.81-6.96,8.07-16.43,14.43-25.83,19.91-.81.44-1.18.96-1.55,1.55-.3.52-.74.96-1.48.96-.89,0-2.22-1.26-3.03-2.15-.96-1.11-1.78-2.15-1.78-3.18,0-.37.22-.81.37-1.18.15-.44.3-.96.3-2,.07-7.25.07-15.84.07-22.2,0-2.44,0-3.48-.44-4.66Z"/>
    <path class="st1" d="M516.18,112.71c3.18-2.44,7.18-5.62,11.1-8.58.89-.67,2.22-1.26,3.18-1.26,1.33,0,2.59.52,4.51,1.63,10.58,6.29,20.13,11.47,30.64,16.43,1.18.52,2.07,1.04,2.59,1.41.96.81,1.18,1.55,1.18,2.22,0,1.55-1.11,2.66-2.37,2.66-1.7,0-2.81-.52-4-1.18-9.4-5.4-18.58-11.32-27.6-17.39-1.48-.96-3.77-2.37-4.81-2.37s-2.15.96-2.89,1.63c-2,1.85-4.51,4.51-6.96,7.25-.52.52-1.48,1.63-1.92,2.29-.59.96-1.48,1.41-2.44,1.41-1.33,0-3.4-1.18-5.11-2.74-1.11-.96-2-2.59-2-3.48,0-.59.22-.89.59-.89.22,0,.44.15,1.04.52.96.67,2.29,1.41,2.96,1.41s1.55-.44,2.29-.96ZM562.28,97.46c0,3.55-2.89,6.44-6.44,6.44s-6.44-2.89-6.44-6.44,2.89-6.44,6.44-6.44,6.44,2.89,6.44,6.44ZM551.7,97.46c0,2.22,1.92,4.14,4.14,4.14s4.14-1.92,4.14-4.14-1.92-4.14-4.14-4.14-4.14,1.92-4.14,4.14Z"/>
    <path class="st1" d="M584.48,104.94c0-.3.52-.74.89-.74s.67.22.96.37c1.92,1.11,3.26,2.37,4.37,3.63,1.55,1.78,2.37,3.48,2.37,5.18s-1.18,2.74-2.37,2.74-1.92-.59-2.37-2.96c-.22-1.18-.67-2.59-1.33-3.92-.59-1.18-1.26-2.29-2.07-3.4-.3-.37-.44-.67-.44-.89ZM616.23,104.05c-.74-.37-1.7-.74-2.52-.89-.3-.07-.37-.22-.37-.52,0-.22.22-.52.52-.67.52-.3,1.26-.37,2.15-.37,1.63,0,4.14.89,5.7,1.92,1.18.81,2.29,1.92,2.29,2.96,0,.59-.44,1.04-.96,1.33-.67.37-1.11.59-1.7,1.7-3.48,6.81-6.73,11.99-12.06,17.76-4.88,5.33-11.17,10.21-17.98,13.39-.67.3-1.18.37-1.41.37-.52,0-.89-.52-.89-.96s.15-.67.67-.96c6.66-4.14,12.73-9.32,17.39-15.02,4-4.88,6.96-9.4,9.62-15.17.67-1.41,1.04-2.37,1.04-3.18,0-.74-.67-1.26-1.48-1.7ZM597.13,101.46c0-.3.59-.59.96-.59s.59.15.96.37c2,1.26,3.33,2.74,4.59,4.44,1.18,1.7,1.7,3.4,1.7,4.74,0,2.07-.96,3.33-2.37,3.33-1.18,0-2-.37-2.37-3.18-.15-1.33-.52-2.74-1.04-4.07-.52-1.48-1.26-2.74-2.07-4-.3-.44-.37-.67-.37-1.04Z"/>
    <path class="st1" d="M663.29,108.71c5.18,2.07,7.62,4.66,7.62,6.81,0,1.85-1.18,2.81-2.22,2.81-1.11,0-1.78-.44-2.89-1.7-1.85-2.07-4.29-3.77-6.59-5.18-2.59-1.55-5.48-2.66-7.7-3.26v12.58c0,4.96.15,14.5.15,17.47,0,2.44-.96,3.11-2,3.11-.89,0-1.18-.3-1.92-1.33-.74-1.04-1.63-3.03-1.63-4.51,0-1.11.3-1.7.59-2.22.22-.44.59-2.15.59-4.14.15-4.51.22-10.51.22-14.36.07-7.33.07-14.65.07-21.39,0-3.03,0-3.85-.3-4.44-.59-1.26-2.59-2.37-4-2.96-.74-.3-.81-.44-.81-.89,0-.59,1.11-1.11,1.85-1.11,1.7,0,4.22.67,6.07,1.63,1.7.89,3.18,2.29,3.18,3.55,0,.81-.52,1.55-1.33,2.22-.37.3-.44,1.11-.52,2.74-.15,3.18-.22,7.47-.22,11.92,3.26.3,7.99,1.18,11.77,2.66Z"/>
    <path class="st1" d="M728.04,141.2h4c2.44-3.48,4.14-7.03,5.48-10.06.74-1.63,1.11-2.81,1.48-4,5.11,2.07,6.07,2.59,6.07,3.33,0,.81-.67,1.11-2.74,1.26-2.59,3.48-5.18,6.44-8.66,9.47h12.06c3.03-3.7,3.33-3.85,3.85-3.85.37,0,.74.15,4.14,2.89,1.55,1.26,1.78,1.63,1.78,2.07,0,.52-.22.74-.96.74h-60.91c-1.92,0-3.4.07-5.18.37l-.74-2.74c2.07.44,3.7.52,5.85.52h19.39v-16.65h-17.32c-1.7,0-3.03.07-4.81.37l-.74-2.81c2,.44,3.48.59,5.4.59h48.7c2.52-3.11,2.96-3.33,3.33-3.33.44,0,.96.22,3.85,2.52,1.33,1.11,1.55,1.48,1.55,1.92,0,.52-.22.74-.96.74h-23.9v16.65ZM718.79,90.29v-6.22h-15.39c-1.92,0-3.4.15-5.33.37l-.74-2.74c2.22.44,3.85.52,6.07.52h35.3c2.96-3.4,3.33-3.63,3.7-3.63.44,0,.81.22,4.07,2.81,1.48,1.18,1.7,1.55,1.7,2s-.22.67-.96.67h-23.98v6.22h23.68c2-2.15,2.22-2.44,2.74-2.44.37,0,.96.37,3.63,2.66,1.41,1.26,1.55,1.85,1.55,2.29,0,.81-.74,1.18-2.66,1.18-.96,0-1.55.3-2.29,1.04-1.26,1.18-2.44,2.37-4.37,3.85-.3.22-.74-.15-.59-.44,1.04-2.15,1.92-4.44,2.44-6.29h-24.12v5.03c0,6.66.22,11.17.22,13.02,0,1.33-1.04,1.85-2.81,1.85-1.55,0-2.15-.37-2.15-1.63,0-.96.3-4.74.3-11.4v-6.88h-22.13c-.22,5.25-2.66,9.03-5.33,9.03-1.48,0-2.59-1.18-2.59-2.66,0-1.18.44-1.78,1.78-2.59,3.11-2,4.66-4.37,4.88-8.21,0-.44.81-.44.89,0,.15.89.3,1.78.3,2.59h22.2ZM695.26,105.68c1.63.44,2.81.52,4.59.52h7.92c2.07-2.59,2.37-2.81,2.81-2.81s.81.22,3.48,2.29c.96.81,1.18,1.26,1.18,1.7s-.22.67-.89.67h-14.43c-1.26,0-2.44.15-4.07.37l-.59-2.74ZM697.26,114.41c1.85.44,3.48.59,5.48.59h33.6c2.52-2.89,2.81-3.11,3.26-3.11s.89.22,3.63,2.44c1.26.96,1.48,1.33,1.48,1.78,0,.52-.3.74-.96.74h-40.92c-1.7,0-3.18.15-4.74.44l-.81-2.89ZM698.14,127.51c5.48,2.07,8.36,5.18,8.36,8.07,0,2.37-1.18,3.4-2.44,3.4-1.33,0-1.78-.59-2.22-2.66-.81-3.33-1.85-5.7-4.14-8.21-.3-.3.15-.74.44-.59ZM698.22,97.83c1.7.37,2.96.52,4.59.52h5.33c1.92-2.37,2.37-2.66,2.67-2.66.37,0,.74.3,3.33,2.37.67.59.89,1.04.89,1.41,0,.44-.22.74-.81.74h-11.4c-1.04,0-2.29,0-3.85.3l-.74-2.66ZM723.9,124.55h-6.81v16.65h6.81v-16.65ZM726.71,97.83c1.7.44,2.89.52,4.59.52h5.33c2-2.44,2.37-2.66,2.74-2.66s.74.22,3.18,2.37c.74.59,1.04,1.04,1.04,1.41,0,.44-.22.74-1.04.74h-11.17c-1.18,0-2.52,0-4,.3l-.67-2.66ZM726.86,105.68c1.78.44,3.11.52,4.88.52h7.92c2.22-2.74,2.52-2.89,2.96-2.89s.81.15,3.48,2.29c1.11.96,1.33,1.33,1.33,1.78s-.22.67-.89.67h-14.73c-1.33,0-2.66.15-4.29.37l-.67-2.74Z"/>
    <path class="st1" d="M773.1,143.5c0,1.48-1.04,1.92-2.96,1.92-1.33,0-1.92-.37-1.92-1.48,0-2.89.37-8.36.37-35.38,0-17.39,0-23.53-.37-28.27,2.07.89,3.48,1.55,5.33,2.81h48.92c2.22-2.37,2.52-2.52,2.89-2.52s.74.15,2.96,2.07c1.11.96,1.18,1.33,1.18,1.7,0,.52-.3,1.04-1.92,2.07v19.69c0,26.49.37,34.78.37,37.15,0,1.55-1.04,2-2.81,2-1.48,0-2.07-.37-2.07-1.55v-2.52h-49.95v2.29ZM823.06,84.96h-49.95v54.39h49.95v-54.39ZM799.45,121.74c2.52.81,4.96,1.7,7.4,2.66,2.22-1.63,3.7-3.18,5.25-4.88.96-1.04,1.63-1.92,2.22-3.03,3.63,2.52,4.29,3.18,4.29,3.77,0,.81-.81.89-2.81.74-2.52,1.63-4.74,2.89-7.47,4.07,5.77,2.66,8.81,5.48,8.81,8.07,0,1.26-.74,2.07-1.85,2.07-.81,0-1.48-.52-2.81-2-3.85-4.14-7.33-7.1-13.02-10.14v3.55c0,4.96.15,7.47.15,8.51,0,1.33-.89,1.92-2.59,1.92-1.33,0-1.78-.52-1.78-1.55,0-.59.22-3.77.22-8.81v-4.37c-5.4,5.33-12.43,9.25-19.91,11.84-.44.15-.74-.67-.37-.89,7.62-3.85,14.21-9.1,18.8-14.95h-7.25v.52c0,1.33-.52,1.78-2.29,1.78-1.26,0-1.7-.3-1.7-1.33,0-.52.15-2,.15-6.37,0-3.33,0-4.88-.37-7.77,1.92.74,3.03,1.33,4.81,2.22h20.5c1.7-1.78,2-2,2.37-2s.74.22,2.44,1.55c1.11.89,1.33,1.18,1.33,1.63s-.37.74-1.85,1.63v1.92c0,4.22.15,5.48.15,5.77,0,1.11-.74,1.63-2.29,1.63-1.26,0-1.7-.3-1.7-1.11v-.07h-8.81v3.4ZM795.23,95.54h-9.77c-1.55,0-2.59.07-4.59.37l-.67-2.66c2.07.3,3.33.44,5.25.44h9.77v-.67c0-2.15-.07-4.14-.37-6.22,6,.67,6.81,1.11,6.81,1.85,0,.44-.44.96-2.29,1.78v3.26h9.62c2.29-2.74,2.67-2.96,3.03-2.96.44,0,.89.22,3.48,2.37,1.11.96,1.33,1.33,1.33,1.78s-.22.67-.96.67h-16.5v5.62h13.17c2.15-2.74,2.59-2.96,2.96-2.96s.89.22,3.63,2.44c1.11.89,1.26,1.26,1.26,1.7,0,.37-.22.67-.96.67h-38.33c-1.48,0-2.52.07-4.44.37l-.74-2.67c2.07.37,3.26.44,5.18.44h14.13v-5.62ZM808.26,109.23h-21.54v7.25h21.54v-7.25Z"/>
  </g>
  <g>
    <path class="st1" d="M56.43,154.65c-.52-1.47-.69-3.01-.88-4.53-1.77.58-8.77.58-10.54,0-.2,1.52-.36,3.06-.88,4.53-.09.31-.17.65-.19.98h12.7c-.02-.33-.1-.66-.19-.98Z"/>
    <path class="st1" d="M73.98,0C33.12,0,0,33.01,0,73.73v75.6c0,3.46,2.82,6.28,6.27,6.28h12.1c-.7-.43-1.29-1.06-1.7-1.81-.47-.88-.8-2.48-.65-4.46-.98-.33-1.94-.78-2.92-1.43-1.53-1.02-3.92-2.97-2.98-7.13.59-2.59,2.8-3.86,3.52-2.95.76.97-1.17,2.03-.92,4.31.24,2.23,1.92,3.5,3.89,4.2.03-.11.06-.21.09-.32.65-1.88,1.81-3.06,1.97-5.11.3-3.69,1.99-6.2,1.78-6.59-.26-.5-1.88-1.54-2.35-3.4-.41-1.63-.12-2.67.24-3.92-.31-1.13-.5-2.1-.55-3.22-.04-1.06.08-3.33.91-3.56.61-.17,2.54,2.32,3.58,2.86.47-.12,1.1-.2,1.77-.2s1.31.07,1.77.2c1.04-.54,2.97-3.03,3.58-2.86.84.23.96,2.5.91,3.56-.05,1.13-.25,2.1-.55,3.22.36,1.24.65,2.29.24,3.92-.47,1.86-2.08,2.9-2.35,3.4-.2.39,1.49,2.9,1.78,6.59.16,2.05,1.33,3.23,1.97,5.11,1.18,3.43.75,6.44.04,7.77-.4.76-1,1.38-1.7,1.81h10.33c.31-.24.62-.46.86-.66.25-1.18-.43-4.4-.68-5.32-.51-1.62-.46-3.96-.27-4.93-1.06-4.22-.77-7.35,2.65-10.49-.38-.86-.54-1.56-.5-2.49-1.48-2.16.03-5.35.22-6.72-.49-.95-1.37-1.19-.87-2.89.14-.49-.07-.93-.19-1.38-.54-1.8-.78-8.09,1.46-6.72,1.9.97,4.12,4.62,4.45,5.83.11.41.09.87.73,1.06.78-.13,3.8-.13,4.58,0,.64-.19.61-.64.73-1.06.34-1.21,2.55-4.86,4.45-5.83,2.24-1.37,2,4.91,1.46,6.72-.12.45-.33.9-.19,1.38.5,1.7-.38,1.93-.87,2.89.19,1.36,1.7,4.56.22,6.72.05.93-.11,1.64-.5,2.49,3.43,3.14,3.71,6.28,2.65,10.49.2.97.25,3.3-.27,4.93-.25.92-.94,4.15-.68,5.32.25.2.56.43.86.66h6.85l1.66-47.39-51.5-24.96s3.09-1.2,3.76-1.58l2.38.78c1.01-.13,1.94.18,1.94.18,0,0-1.88-1.52-2.67-3.19-.87-1.86-.52-3.78-.92-4.06-.84-.58-2.2-.74-3.32-1.11-.89-.29-.18-1.8,1.59-1.53.44.07,2.04.47,2.04.47.31.1.52-1.8.3-2.49-.38-1.18-1.37-1.29-2.34-1.54-.97-.25-1.57-.55-1.93-1.01-.36-.46-.63-1.4-.07-1.66.56-.26,1.03-1.33,1.03-1.33.98-1.92,2.6-1.95,2.6-1.95,0,0-.4-.23-1.06-1.43-.85-1.55.51-1.03.51-1.03.96.41,2.25.56,3.62,1.43,2.67,1.69,4.78,8.16,4.78,8.16,1.06-5.67,7.14-6.73,10.15-5.67,2.7.95,6.08,4.11,5.01,8.46-.78,3.17-2.82,4.18-3.86,4.5-.05,0-2.06.34-3.74-.47-1.25-.6-1.63-1.73-1.75-2.35-.19-1.04.07-2.12.66-2.75.55-.57,1.32-.84,2.07-.7.62.11,1.11.5,1.35,1.05.49,1.15-.24,1.86-.27,1.89-.19.17-.2.47-.03.66.17.19.47.21.66.03.05-.05,1.26-1.17.5-2.94-.36-.85-1.11-1.43-2.04-1.6-1.06-.19-2.14.17-2.91.98-.81.85-1.15,2.21-.91,3.56.25,1.35,1.07,2.46,2.26,3.03,1.07.51,2.23.63,3.07.63.13,0,.25,0,.36,0-.16.64-.58,1.67-1.68,3.14-2.1,2.82-5.79,2.85-5.79,2.85h-2.49l39.51,12.91.24-28.56-35.59-18.3,3.82-1.56,32.09,10.98.98-35.35,5.17-4.71.45,34.77,24.44-10.37c-.23,0-.44.01-.67-.02-5.63-.47-8.04-4.32-8.46-5.42-1.24-.14-3.21-.57-4.17-1.52-.26-.25-1.38-1.88.23-2.65-1.59-.71-3.73-4.84-.38-4.55-.41-.57-.81-1.31-.89-1.94-.67-4.39,3.84-5.72,4.3-5.57.5.14.13.63-.15,1.44-2.59,7.34,3.42,10.92,3.39,10.97,3.92,2.11,8.44.34,9.65-2.78.93-1.92,1.8-2.49,3.37-2.51,2.59-.05,2.8,2.37,3.79,2.38.35,0,1.43.23,1.48.61.03.22-.36.09-1.31.61-.96.52-1.26,1.06-1.51,1.46-.72,1.33-.96,3.36-1.11,4.13-.21,1.13-.92,2.33-1.98,3.32l3.97,1.8-33.08,17.52.6,24.61,48.55-20.95,4.02,2.33-51.9,29.57,2.5,58.28h7.85c-1.42-1.37-2.64-3.13-3.09-5.13-.74-3.27,1.2-7.95,3.58-9.44-1.19-5.03-1.6-10.69-.64-15.5.85-4.27,2.69-6.04,2.69-7.01,0-.85-.67-3.63-.67-4.58-.3.25-.94.7-1.52.49-.7-.26-.71-1.71-.98-3.66-.23-1.65-.7-2.51-.55-3.79.18-1.6,2.21-5.26,3.78-5.75.79-.24,1.44-.03,2,.19,1.04-.91,3.55-1.73,5.95-1.73s4.91.83,5.95,1.73c.57-.22,1.22-.44,2-.19,1.57.49,3.6,4.15,3.78,5.75.15,1.29-.32,2.14-.55,3.79-.27,1.95-.28,3.4-.98,3.66-.58.21-1.22-.24-1.52-.49,0,.94-.67,3.73-.67,4.58,0,.97,1.83,2.74,2.69,7.01.96,4.81.55,10.48-.64,15.5,2.37,1.49,4.32,6.16,3.58,9.44-.45,2-1.67,3.76-3.09,5.13h12.57s.04-.09.05-.13c-1.74-.96-3.58-3.25-3.58-5.64s.76-4.16,1.84-5.46c1.14-1.38,2.15-1.67,2.37-2.42.26-.91.55-2.14,1.12-2.95-.28-1.03-1.23-2.13-1.48-3.93-.26-1.83.39-5.16,1.61-5.48,1.05-.28,2.11,3.06,2.39,4.26.38,1.66.53,3.53.76,3.89.16-.04.38-.07.61-.07s.45.03.61.07c.23-.37.37-2.23.76-3.89.28-1.21,1.34-4.54,2.39-4.26,1.23.32,1.87,3.65,1.61,5.48-.26,1.81-1.2,2.9-1.48,3.93.57.81.86,2.03,1.12,2.95.21.75,1.22,1.04,2.37,2.42,1.08,1.3,1.84,2.98,1.84,5.46s-1.85,4.68-3.58,5.64c.01.04.03.09.05.13h7.18c3.45,0,6.27-2.83,6.27-6.28v-75.6C147.97,33.01,114.84,0,73.98,0Z"/>
  </g>
  <g>
    <path class="st0" d="M204.54,25.79c0,1.12-.07,3.13-.11,4.32.65,7.45,2.41,11.91,5.51,15.51,2.66,3.06,6.26,5.36,10.11,6.41.22.07.18.36-.04.4-.72.11-1.15.5-1.58,1.51-.14.32-.29.43-.54.43s-.76-.11-1.51-.5c-2.77-1.48-6.12-4.21-8.06-7.2-2.02-3.1-3.53-6.62-4.18-12.38-.58,5.87-1.8,9.29-3.74,11.95-2.84,3.89-6.19,6.48-12.42,8.35-.22.07-.47-.4-.25-.47,5.51-2.48,8.57-5.36,10.94-9.07,2.48-3.89,3.49-9.11,3.49-19.58,0-.79-.04-1.3-.14-2.12,3.02.36,3.74.54,3.74,1.01,0,.29-.18.54-1.22.9v.54ZM195.36,30.62c.61,5.54-1.55,9.36-3.85,9.36-.76,0-1.37-.54-1.37-1.37,0-.61.36-1.12,1.19-1.66,1.91-1.22,3.24-3.31,3.53-6.37.04-.22.47-.18.5.04ZM207.64,39.22c2.2-2.16,3.92-4.71,5.04-6.88.47-.86.79-1.62.97-2.34,2.74,1.51,3.24,1.87,3.24,2.27s-.32.54-1.51.58c-1.94,2.66-4.54,5-7.42,6.77-.18.11-.47-.25-.32-.4Z"/>
    <path class="st0" d="M232.62,35.37c-.47.47-.97.94-1.51,1.33,2.09.4,3.24,1.33,3.24,2.38,0,.58-.54,1.04-1.08,1.04-.32,0-.72-.22-.86-.72-.29-.9-.79-1.73-1.8-2.3-1.62,1.15-3.42,2.12-5.44,2.88-.22.07-.43-.32-.25-.43,3.17-1.87,5.29-3.92,6.7-5.65.79-1.01,1.26-1.87,1.55-2.52h-4.64c-.79,0-1.33.07-2.3.22l-.36-1.37c1.12.18,1.69.25,2.66.25h23.61c1.33-1.55,1.58-1.73,1.76-1.73.22,0,.5.14,1.94,1.37.65.5.72.72.72.94s-.11.32-.47.32h-22.32c2.02.68,2.3.86,2.3,1.19,0,.29-.18.4-1.33.47-.4.5-.79.97-1.22,1.44h5.15c.76-.83.9-.9,1.08-.9s.32.07,1.51,1.12c.43.43.5.65.5.83,0,.25-.36.43-1.22.61-3.46,4.9-8.35,7.74-15.62,8.93-.22.04-.36-.4-.14-.47,7.06-2.2,11.05-4.9,13.86-9.21h-6.01ZM252.92,25.72c1.4-1.66,1.58-1.76,1.8-1.76.18,0,.43.11,1.94,1.33.68.58.79.76.79.97,0,.25-.11.36-.47.36h-10.48c.04,1.04.07,1.58.07,1.76,0,.65-.43.94-1.33.94-.65,0-.97-.25-.97-.76,0-.22.04-.72.07-1.94h-7.13c.04,1.08.07,1.58.07,1.8,0,.61-.5.94-1.33.94-.68,0-.94-.25-.94-.79,0-.18.04-.68.07-1.94h-6.98c-.86,0-1.48.07-2.38.22l-.4-1.37c1.15.18,1.76.25,2.81.25h6.95v-.25c0-1.51,0-1.91-.18-3.24,3.13.36,3.53.5,3.53.94,0,.25-.11.47-1.22.83v1.73h7.13v-.14c0-1.55-.04-1.98-.18-3.35,2.88.32,3.49.5,3.49.94,0,.25-.14.47-1.15.83v1.73h6.41ZM252.82,46.2c1.37-1.55,1.62-1.73,1.8-1.73.22,0,.54.18,1.98,1.33.68.54.76.76.76.97s-.11.32-.47.32h-10.47v.58c0,4.21.14,5.87.14,6.37,0,.68-.43,1.04-1.4,1.04-.65,0-.9-.29-.9-.86,0-.47.04-2.09.04-6.08v-1.04h-6.91c-.29,2.09-1.08,3.82-2.92,5.25-2.12,1.69-4.61,2.7-8.6,3.1-.22.04-.36-.4-.14-.47,3.67-.94,5.76-2.12,7.45-3.89,1.15-1.19,1.8-2.45,2.02-4h-6.95c-.83,0-1.33.04-2.34.18l-.36-1.3c1.12.14,1.73.22,2.7.22h7.05c.04-.25.04-.54.04-.83,0-1.01-.04-1.66-.14-2.41,3.28.47,3.53.65,3.53,1.01,0,.29-.18.47-1.19.86,0,.47,0,.94-.04,1.37h6.8c0-1.3-.04-1.98-.18-2.99,2.77.29,3.38.5,3.38.9,0,.22-.18.47-1.08.83v1.26h6.41ZM245.33,36.91c2.27-.83,3.92-1.69,5.11-2.52,1.01-.68,1.69-1.3,2.05-1.73,2.02,1.51,2.34,1.84,2.34,2.16s-.4.5-1.66.18c-2.16,1.19-4.54,2.09-7.85,2.77v1.3c0,1.37.54,1.58,3.67,1.58s4.25-.11,4.9-.61c.54-.4.79-.86,1.51-2.84.07-.18.36-.11.36.07-.04.97-.07,1.8-.07,2.16,0,.4.07.47.4.61.36.14.54.43.54.72,0,.68-.68,1.08-1.62,1.33-.97.25-2.52.4-6.23.4-4.36,0-5.51-.65-5.51-3.13,0-.65.07-1.22.07-3.06,0-2.16,0-3.1-.14-4.46,2.77.29,3.2.47,3.2.9,0,.22-.07.4-1.08.79v3.38Z"/>
    <path class="st0" d="M278.02,32.81c2.92,0,3.74,2.45,3.74,5.08,0,1.94-.65,5.43-1.44,7.63-.65,1.94-1.48,3.78-2.95,5.11-.94.94-1.94,1.44-2.99,1.44-.76,0-1.12-.32-1.29-1.04-.07-.32-.22-.65-.54-1.04-.5-.65-1.3-1.4-2.02-2.09-.14-.14-.14-.22-.14-.32,0-.14.14-.36.32-.36.11,0,.22.07.36.18,1.15.83,2.16,1.48,3.02,1.91.22.11.54.18.94.18.43,0,.9-.14,1.33-.58,1.3-1.44,1.94-3.28,2.59-5.36.65-2.23,1.01-4.79,1.01-6.33,0-2.3-.68-3.24-2.12-3.24-.86,0-1.76.22-2.84.61-2.63,5.65-5.4,11.12-8.64,16.59-.22.4-.5.58-.97.58-.61,0-1.04-.32-1.04-.9,0-.25.07-.58.32-.94,3.1-4.82,6.01-9.68,8.42-14.83-1.3.43-2.48.9-3.67,1.37-.5.18-.97.4-1.37.65-.25.18-.47.29-.76.29-.43,0-1.01-.22-1.51-.68-.9-.86-1.3-1.55-1.33-2.34,0-.58.18-.83.4-.83.14,0,.18.11.32.36.43.76,1.04,1.22,1.76,1.22.61,0,1.26-.11,2.52-.47,1.19-.32,2.66-.72,4.32-1.19.76-1.66,1.19-2.81,1.66-4.28.14-.43.29-.94.29-1.48,0-.68-1.08-1.33-2.3-1.4-.25-.04-.4-.14-.4-.32,0-.11.07-.22.29-.36.25-.18.76-.29,1.37-.29,1.33,0,3.89,1.08,3.89,2.56,0,.25-.18.58-.5.72-.22.11-.54.43-.9,1.19-.47,1.08-.94,2.2-1.44,3.28.76-.14,1.55-.25,2.3-.25ZM292.27,43.54c-.25,0-.54,0-.94-.25-.22-.14-.61-.29-1.19-.29-1.33,0-2.63.04-4.18.14-.32.04-.5-.14-.5-.43,0-.25.11-.36.4-.43,1.69-.32,3.13-.61,4.25-.94.36-.11.5-.25.5-.54,0-1.73-2.23-4.71-5.44-6.73-.14-.11-.22-.25-.22-.4,0-.18.14-.4.32-.4s.36.04.5.11c4.18,1.73,7.56,5.94,7.56,8.78,0,.97-.5,1.37-1.08,1.37Z"/>
    <path class="st0" d="M309.63,29c-.9-.54-1.55-1.01-2.16-1.76-.79-.97-1.33-2.05-1.4-3.02-.04-.25.11-.47.32-.47s.32.14.43.36c1.04,1.98,2.45,2.77,4.28,3.42.68.25,1.48.68,1.94,1.12.36.36.76.79.76,1.3,0,.72-.43,1.01-.97,1.01-.36,0-.72-.07-1.04-.18-.36-.11-.94-.18-1.3-.18-1.19,0-3.46.43-5,1.19-.54.25-.68.43-.68.68,0,.29.07.58.22.86.14.32.29.68.29,1.3,0,.43-.11,1.08-.36,2.66-.29,1.69-.43,3.82-.5,5.76,0,.32.04.43.11.43.11,0,.22-.07.32-.14,4.39-3.38,8.06-5.69,11.73-5.69s7.09,2.02,7.09,5.83c0,3.2-2.27,5.47-5.58,7.05-2.81,1.37-6.95,2.27-11.27,2.52-.36.04-.61-.14-.61-.47s.22-.47.54-.5c3.35-.43,7.34-1.51,10.12-3.1,2.88-1.66,4.39-3.31,4.39-6.12,0-2.52-2.09-4.14-4.61-4.14-3.46,0-7.2,2.59-9.68,5.36-1.04,1.15-1.69,1.98-1.83,2.34-.25.61-.5.83-1.12.83-.29,0-.68-.32-.97-.83-.32-.5-.47-1.12-.47-2.02,0-2.48.47-5.58.9-8.06.18-.94.22-1.51.22-2.02,0-.47-.11-1.04-.11-1.51,0-.86.47-1.33,1.33-1.83.76-.43,3.06-1.4,4.68-1.87v-.11Z"/>
    <path class="st0" d="M336.38,40.73c0,.11-.11.29-.18.47-.32.9-.43,1.51-.43,2.16,0,3.74,4.1,4.9,8.24,4.9,2.88,0,5.69-.36,6.7-.65.65-.18,1.37-.4,1.98-.4,1.01,0,1.98.36,1.98,1.15,0,1.08-.65,1.3-1.98,1.51-1.19.18-4.9.61-7.59.61-4.82,0-10.51-1.15-10.51-6.73,0-.86.18-1.8.72-2.84.14-.29.36-.54.58-.54.25,0,.5.14.5.36ZM343.11,31.84c-2.66.18-5.26-.54-6.62-2.27-.11-.14-.11-.29-.11-.4s.18-.32.32-.32.4.14.54.25c1.19.86,3.06,1.12,4.57,1.12.68,0,1.98-.11,3.38-.29,1.44-.22,2.63-.47,3.74-.83.32-.11.79-.18,1.15-.18.25,0,.76.07,1.12.22.54.22.79.61.79,1.12,0,.61-.25.97-1.44,1.08-1.62.14-2.77.4-3.92.65-.83.18-1.98.61-2.81,1.08-1.44.83-2.92,1.87-4.25,2.88-.25.18-.43.18-.58.18s-.32-.14-.32-.29c0-.22.18-.43.29-.54,1.37-1.3,3.1-2.63,4.17-3.38l-.04-.07ZM353.33,25.4c1.12.4,2.02.9,2.66,1.44.76.61,1.55,1.55,1.55,2.34,0,.65-.36,1.04-.9,1.04-.5,0-.72-.29-1.19-1.19-.43-.83-1.58-2.12-2.66-2.92-.14-.11-.22-.25-.22-.36,0-.22.18-.4.4-.4.11,0,.25,0,.36.04ZM356.57,23.24c.83.22,1.87.72,2.56,1.19.83.58,1.62,1.48,1.62,2.3,0,.61-.43.97-.83.97-.43,0-.68-.14-1.19-.97-.58-1.01-1.76-2.16-2.95-2.88-.11-.07-.14-.25-.14-.36,0-.18.14-.36.36-.36.11,0,.32.04.58.11Z"/>
    <path class="st0" d="M364.93,51.89c.9-1.8,1.62-4.18,2.05-6.33.25-1.33.4-2.63.4-3.71,2.59.68,2.99.9,2.99,1.3,0,.25-.22.43-1.08.65-.72,2.95-1.91,5.94-3.92,8.35-.14.18-.54-.07-.43-.25ZM371.22,38.93c-1.26.25-2.59.47-4.1.68-.25.79-.43.97-.72.97-.32,0-.5-.43-.94-3.06.72.07,1.26.11,1.73.11.5,0,1.01-.04,1.44-.04,1.62-2.05,3.28-4.64,4.79-7.45.65-1.19,1.15-2.27,1.33-2.95,2.27,1.15,2.88,1.51,2.88,1.87,0,.29-.29.5-1.33.5-2.05,2.95-3.67,5.15-6.59,7.99,2.02-.07,4.03-.25,6.01-.43-.32-1.01-.79-1.94-1.48-2.84-.11-.14.14-.32.29-.25,2.27,1.26,3.67,3.28,3.67,4.93,0,.94-.4,1.44-1.12,1.44-.58,0-.76-.29-.9-1.4-.07-.43-.14-.83-.25-1.22-.9.29-1.84.5-2.77.76v7.67c0,4,.14,6.91.14,7.78,0,.65-.43.97-1.33.97-.68,0-.97-.25-.97-.83s.22-2.88.22-7.13v-8.06ZM370.5,25c.36-1.01.65-2.02.76-2.77,2.59,1.01,3.13,1.37,3.13,1.69s-.22.47-1.33.58c-1.22,2.09-2.34,3.6-3.74,5.15,1.04.83,1.55,1.69,1.55,2.56s-.5,1.33-1.04,1.33-.83-.25-1.19-1.44c-.47-1.48-1.33-2.66-2.74-3.92-.18-.14.04-.4.25-.32,1.01.43,1.87.9,2.56,1.33.65-1.22,1.22-2.59,1.8-4.18ZM374.75,41.88c2.09,1.91,2.99,3.74,2.99,5.47,0,1.08-.47,1.62-1.08,1.62-.72,0-.9-.36-.97-1.87-.11-1.84-.43-3.24-1.3-5-.11-.18.18-.36.36-.22ZM388.39,30.87c-.07,1.48-.25,2.95-.5,4.43,3.28,2.45,5.15,5.15,5.15,7.16,0,1.08-.5,1.51-1.15,1.51-.47,0-.79-.4-1.12-1.76-.54-2.23-1.37-4.14-3.02-6.16-.22.94-.47,1.73-.79,2.45-1.04,2.38-2.38,4.28-4.64,6.26-.14.14-.54-.14-.4-.32,1.69-2.16,2.63-4.07,3.42-6.41.58-1.76.94-3.89,1.12-7.16h-5.04v10.83c0,7.74.04,10.51.04,11.99,0,.76-.4,1.04-1.3,1.04-.72,0-.97-.25-.97-.83,0-1.84.18-6.05.18-15.73,0-5.29,0-7.34-.14-9.57.97.47,1.62.79,2.48,1.37h4.82c.04-1.29.07-2.77.07-4.43,0-1.22-.04-1.87-.18-2.95,2.92.32,3.38.5,3.38.97,0,.25-.14.43-1.12.79,0,.68,0,1.3-.04,1.91-.04,1.37-.11,2.63-.18,3.71h5.33c.97-1.08,1.12-1.15,1.3-1.15s.36.07,1.4,1.01c.5.43.61.61.61.79,0,.29-.18.47-.97.94v6.7c0,11.09.14,12.02.14,13.5,0,1.08-.58,1.69-1.29,2.09-.43.29-1.12.47-1.73.47-.4,0-.5-.04-.58-.54-.18-.83-.65-1.22-3.35-1.76-.22-.04-.18-.5.04-.47,2.12.18,3.02.22,4.07.22.4,0,.61-.22.61-.61v-20.27h-5.65Z"/>
    <path class="st0" d="M410.25,27.59c0-1.87,0-3.1-.22-4.86,1.01.36,1.76.76,2.7,1.3h12.67c.94-1.08,1.12-1.19,1.3-1.19s.43.11,1.55,1.08c.43.36.54.54.54.72,0,.32-.25.58-.97.97v7.7h3.53c.86-1.01,1.12-1.22,1.33-1.22.25,0,.68.32,1.87,1.51.47.47.65.72.65.97,0,.4-.36.58-1.44.54-.32,0-.47.07-.86.43-.72.76-1.55,1.44-2.66,2.23-.18.14-.43-.07-.32-.25.68-1.26,1.12-2.16,1.55-3.31h-24.26c-.11,2.74-1.48,4.57-2.95,4.57-.72,0-1.22-.47-1.22-1.22,0-.65.25-.97.97-1.37,1.55-.9,2.52-2.38,2.56-4.28,0-.22.43-.22.47,0,.11.47.14.97.18,1.4h3.06v-5.72ZM412.91,47.35v6.73c0,.68-.43,1.01-1.37,1.01-.76,0-.97-.22-.97-.86,0-1.26.14-4.57.14-10.98,0-4.61,0-5.65-.14-7.38,1.04.43,1.76.76,2.7,1.4h11.48c1.01-1.08,1.12-1.19,1.33-1.19.18,0,.36.11,1.51,1.04.54.5.61.65.61.83,0,.25-.22.54-.97.97v4.46c0,6.77.14,8.1.14,9.14,0,1.22-.58,1.76-1.29,2.16-.43.22-1.12.4-1.48.4s-.47,0-.54-.4c-.11-.94-.76-1.37-3.67-1.98-.22-.04-.18-.5.04-.47,2.38.25,3.28.29,4.07.29.32,0,.5-.18.5-.65v-4.54h-12.09ZM417.27,30.25c0-1.01-.04-1.73-.22-3.24.94.36,1.62.68,2.56,1.19h6.01v-3.28h-13.17v8.39h4.82v-3.06ZM425.01,38.17h-12.09v3.64h12.09v-3.64ZM425.01,42.71h-12.09v3.74h12.09v-3.74ZM425.62,33.31v-4.21h-6.26v4.21h6.26Z"/>
    <path class="st0" d="M453.81,27.52c-.04-1.15-.11-1.58-.43-1.94-.47-.47-1.12-.58-1.87-.5-.14,0-.25-.11-.25-.25,0-.22.11-.4.4-.58.4-.25.86-.36,1.37-.36.68,0,1.33.18,2.2.65,1.01.61,1.44,1.22,1.44,1.58,0,.4-.18.58-.43.79-.32.29-.47.86-.5,1.33-.07.97-.11,1.91-.07,2.59,1.44-.22,2.59-.43,3.71-.79.47-.14,1.19-.36,1.51-.54.43-.22,1.29-.5,1.8-.5,1.37,0,2.09.25,2.09.94,0,.58-.36.9-1.76,1.19-2.12.5-4.9,1.08-7.42,1.44,0,1.94,0,3.78.04,5.72,1.22-.18,2.09-.36,3.2-.72.47-.14,1.01-.36,1.26-.54.43-.36,1.15-.54,1.66-.54.72,0,1.15.36,1.19.86,0,.5-.25.86-.94,1.12-1.84.72-3.92,1.15-6.33,1.44.07,2.3.14,4.82.32,7.13,3.28,1.01,6.08,2.16,7.96,3.31.94.54,1.33.97,1.33,1.69,0,.54-.4,1.15-1.01,1.15-.47,0-1.01-.22-1.33-.47-1.94-1.48-4.5-2.95-6.91-3.82.04,1.33-.32,2.45-1.29,3.24-.9.72-2.12,1.15-4.5,1.15-2.12,0-5.58-.76-5.58-3.46,0-2.48,3.49-3.49,6.12-3.49,1.22,0,2.52.18,3.46.32-.07-2.27-.11-4.57-.14-6.51-.72.07-1.94.18-3.64.18-2.99,0-4.17-1.08-4.17-2.41,0-.68.14-1.19.36-1.58.14-.25.43-.58.61-.58.25,0,.32.07.32.25,0,.14-.04.22-.07.32-.11.29-.14.68-.14,1.12,0,.86.9,1.33,2.84,1.33,1.44,0,2.56-.11,3.85-.25-.04-1.94-.07-3.78-.14-5.72-2.02.29-4.36.5-6.3.54-2.09.04-4.1-.4-5.43-2.05-.14-.18-.18-.32-.18-.5,0-.11.11-.25.29-.25s.32.07.5.18c1.3.83,2.41,1.12,3.89,1.08,1.76,0,4.5-.25,7.2-.65-.04-1.26-.04-2.34-.04-3.64ZM450.35,47.71c-2.84,0-4.61.76-4.61,2.09s1.62,1.94,4.1,1.94c1.8,0,2.77-.36,3.42-.94.72-.65.9-1.26.9-2.45-1.22-.4-2.48-.65-3.82-.65Z"/>
    <path class="st0" d="M490.67,30.65c-3.28.97-6.73,2.05-9.65,3.1-1.19.43-2.23.97-2.66,1.22-.43.29-.68.4-1.22.4-.68,0-1.51-.47-2.38-1.48-.4-.5-.97-1.37-.97-2.05,0-.47.14-.68.36-.68.14,0,.25.11.47.32.83.9,1.37,1.3,2.41,1.26.4,0,1.44-.18,2.3-.4,4.72-1.19,10.08-2.59,15.62-4,.68-.14,1.44-.43,1.69-.58.32-.22.76-.36,1.19-.36.68,0,1.37.18,2.05.47.5.18.97.54.97,1.08,0,.5-.43.94-1.19.97-2.45.07-4.61.32-6.98,1.19-3.53,1.22-7.27,5.4-7.27,9.68,0,2.23.65,4.39,2.45,5.83,1.69,1.44,4.25,2.2,6.26,2.23.79.04,1.94.18,2.74.61.54.29.86.61.86,1.3,0,.54-.54.94-1.66.94-2.52,0-6.62-.94-9-2.99-2.12-1.76-3.13-4.1-3.13-6.88,0-4.54,2.7-8.78,6.8-11.09l-.07-.11ZM495.96,35.47c1.12.4,2.02.9,2.66,1.44.76.61,1.55,1.55,1.55,2.34,0,.65-.36,1.04-.9,1.04-.5,0-.72-.29-1.19-1.19-.43-.83-1.58-2.12-2.66-2.92-.14-.11-.22-.25-.22-.36,0-.22.18-.4.4-.4.11,0,.25,0,.36.04ZM499.2,33.31c.83.22,1.87.72,2.56,1.19.83.58,1.62,1.48,1.62,2.3,0,.61-.43.97-.83.97-.43,0-.68-.14-1.19-.97-.58-1.01-1.76-2.16-2.95-2.88-.11-.07-.14-.25-.14-.36,0-.18.14-.36.36-.36.11,0,.32.04.58.11Z"/>
    <path class="st0" d="M513.28,36.81c.14.97.22,1.91.22,2.77,0,4.25-1.55,7.34-3.67,7.34-.76,0-1.33-.58-1.33-1.4,0-.61.25-1.01.94-1.51,1.94-1.55,3.06-4,3.38-7.2.04-.22.43-.22.47,0ZM520.12,49.19c0,1.87.4,2.12,4.93,2.12,3.13,0,4.03-.07,4.93-.58.79-.43,1.26-1.4,2.34-5.54.04-.22.47-.18.47.04-.11,2.05-.18,3.46-.18,4.18,0,.58.18.76.65.97.32.14.43.4.43.76,0,.76-.72,1.4-1.73,1.73-1.12.36-3.24.61-7.38.61-5.94,0-6.88-.86-6.88-4,0-.68.11-2.92.11-9.83,0-5.76-.04-6.98-.22-8.93,3.49.4,3.82.58,3.82,1.04,0,.32-.18.61-1.3,1.04v16.38ZM519.69,23.56c4.71.68,8.53,3.02,8.53,5.11,0,.79-.47,1.48-1.26,1.48-.47,0-.76-.14-1.66-1.37-1.44-1.94-3.35-3.67-5.76-4.82-.18-.11-.07-.43.14-.4ZM534.02,36.19c3.6,2.3,5.79,5.83,5.79,8.24,0,1.3-.5,1.98-1.4,1.98-.79,0-1.15-.4-1.44-2.2-.36-2.63-1.66-5.51-3.28-7.74-.14-.18.14-.4.32-.29Z"/>
    <path class="st0" d="M553.1,37.42c1.48-1.15,3.2-1.8,4.39-1.8,1.87,0,3.1,1.08,3.2,3.2.04.43.07,1.01.07,1.48,2.66-1.58,5.36-3.2,7.45-4.61.32-.22.4-.4.4-.61,0-.18-.11-.32-.32-.47-.32-.22-.72-.36-1.26-.43-.22-.04-.32-.04-.32-.22,0-.32.68-.58,1.44-.58.86,0,1.84.36,2.66.86.94.58,1.48,1.01,1.48,1.69,0,.47-.32.72-.72.76-.25.04-.58.07-1.08.29-1.73.72-4,1.8-6.55,3.17-.97.54-2.09,1.19-3.17,1.8,0,1.51.04,3.13.04,5.18,0,.97-.5,1.37-.97,1.37-.5,0-1.01-.4-1.01-.97,0-1.12.07-2.48.11-4.5-2.05,1.15-5,2.81-5,5.4,0,1.62,1.26,2.66,4.17,2.66,1.73,0,3.92-.11,5.44-.29.86-.11,1.37-.22,1.98-.36.47-.11.86-.22,1.37-.22,1.3,0,2.2.72,2.2,1.44,0,.65-.5,1.01-2.09,1.15-1.76.14-3.89.22-6.8.22-5.72,0-7.49-1.8-7.49-4.39,0-3.31,2.88-5.25,6.26-7.31v-1.51c.04-2.48-.65-3.13-1.76-3.13-1.58,0-3.17,1.04-4.57,2.38-1.26,1.22-1.98,2.09-3.24,3.85-.22.32-.68.54-.9.54-.5,0-.97-.47-.97-1.12,0-.58.25-.94,1.04-1.76,1.26-1.3,2.63-2.92,3.64-4.36,1.01-1.44,1.73-2.7,2.59-4.32-.94.11-2.2.29-3.46.29-1.91,0-2.88-.47-3.89-1.94-.11-.18-.18-.4-.18-.5,0-.22.14-.47.32-.47.22,0,.4.14.58.32.94.9,1.66,1.04,3.02,1.04,1.26,0,3.06-.25,4.46-.58.5-1.08.76-1.76,1.08-2.74.11-.36.25-.9.25-1.33,0-.58-.68-.97-2.23-.97-.25,0-.4-.04-.4-.18s.11-.36.4-.54c.36-.22.94-.32,1.33-.32.79,0,1.51.29,2.12.58.61.29,1.58.9,1.58,1.62,0,.36-.14.61-.43.79-.22.14-.58.43-.94,1.15-.22.4-.54,1.01-.83,1.55.94-.29,2.16-.72,3.31-1.37.58-.32,1.22-.65,1.83-.65.72,0,1.19.43,1.19.9,0,.54-.25.76-1.15,1.12-1.84.72-4.1,1.44-6.19,1.91-1.15,2.02-2.27,3.92-3.56,5.76l.07.07Z"/>
    <path class="st0" d="M586.36,47.21c.9,1.69,1.91,2.48,3.17,3.02,1.55.61,4.07,1.08,10.15,1.08,3.35,0,7.88-.29,12.24-.9.22-.04.25.32.07.43-.9.5-1.08.79-1.19,1.73-.07.43-.22.54-.65.58-3.24.29-5.97.36-9.21.36-7.49,0-10.44-.79-12.13-1.98-1.37-.94-2.48-2.3-3.31-4.46-1.19,1.69-2.7,3.53-4.1,4.97.04,1.22-.14,1.62-.54,1.62-.32,0-.72-.54-2.2-3.35.68-.18,1.26-.43,1.98-.79,1.04-.54,2.2-1.26,3.49-2.38v-9.21h-2.34c-1.19,0-1.76.07-2.66.25l-.36-1.44c1.15.25,1.84.29,3.02.29h2.09c1.08-1.19,1.19-1.26,1.4-1.26.18,0,.4.07,1.48,1.01.54.47.58.68.58.86,0,.22-.11.4-.97.97v8.6ZM581.14,23.42c3.31,1.19,5.33,3.17,5.33,4.75,0,.97-.54,1.73-1.48,1.73-.5,0-.86-.4-1.15-1.37-.43-1.55-1.55-3.46-2.99-4.82-.14-.14.07-.36.29-.29ZM597.92,24.6c.97-1.01,1.19-1.15,1.37-1.15.22,0,.36.11,1.26.9.47.43.65.65.65.83,0,.29-.25.47-1.58,1.26.18,5.44,1.62,9.36,4,12.89,2.34,3.49,4.57,5.08,7.7,6.7.14.07.04.29-.14.36-.76.25-1.04.54-1.48,1.62-.14.36-.29.47-.5.47s-.58-.22-1.22-.76c-2.41-2.12-4.18-4.32-5.47-6.7-1.22-2.27-2.05-4.93-2.84-8.42-1.76,6.44-5.47,11.52-11.27,15.41-.18.11-.43-.29-.29-.43,6.12-5.62,9.36-12.13,10.33-22.07h-4.93c-1.12,0-1.69.07-2.59.22l-.32-1.4c1.12.25,1.69.29,2.88.29h4.46Z"/>
    <path class="st0" d="M641.76,34.32c2.23,1.66,3.28,3.82,3.28,6.3,0,7.05-7.85,10.37-14.11,11.27-.36.04-.72-.07-.72-.43,0-.29.11-.47.54-.58,5.04-1.26,11.95-4.32,11.95-10.37,0-2.66-.94-4.1-2.27-5.15-1.76-1.4-3.64-2.09-6.08-2.09-1.8,3.28-3.64,6.37-5.9,9.39.22.29.83.86,1.15,1.12.54.43.97.83.97,1.22,0,.72-.29,1.04-.94,1.04-.32,0-.76-.14-1.04-.4-.54-.47-.9-.79-1.37-1.33-.72.9-1.55,1.87-2.34,2.66-1.08,1.04-2.16,1.44-3.17,1.44-1.84,0-2.99-1.48-2.99-4s1.87-6.12,4.86-8.42c-.07-.47-.14-.9-.22-1.37-.22-1.37-.4-2.27-.79-3.06-.36-.72-1.12-1.44-2.2-1.98-.18-.11-.36-.25-.36-.47,0-.14.22-.4.43-.4.11,0,.22,0,.36.04,1.37.4,2.56,1.01,3.13,1.69.58.72.79,1.55.94,2.84.07.54.11,1.12.18,1.69,2.41-1.55,5.11-2.48,7.99-2.81.25-.58.47-1.12.72-1.73.32-.83.47-1.55.47-1.98,0-.94-.94-1.4-2.02-1.44-.22,0-.47-.07-.47-.25s.11-.32.36-.54c.29-.18.58-.32.9-.32.86,0,1.98.4,2.7.79.65.4,1.3.79,1.3,1.58,0,.43-.22.68-.32.86-.22.32-.4.61-.68,1.15-.36.68-.58,1.12-.94,1.8,2.3.11,4.54.58,6.7,2.2ZM620.42,43.75c0,1.55.54,2.52,1.58,2.52.65,0,1.48-.32,2.09-.83.83-.65,1.58-1.51,2.27-2.38-1.08-1.69-1.87-3.56-2.41-5.76-2.3,2.02-3.53,4.9-3.53,6.44ZM627.44,41.52c2.02-2.59,3.56-5.25,5.11-8.13-2.41.36-4.97,1.3-7.27,2.92.4,1.91,1.01,3.46,2.16,5.22Z"/>
    <path class="st0" d="M668.51,30.29c.61-.29,1.19-.58,1.73-.58.5,0,1.12.29,1.12.9,0,.58-.43.9-1.26,1.22-1.66.61-3.64,1.26-5.9,1.87-2.3,6.44-4.14,11.84-6.66,17.64-.29.65-.76.9-1.15.9-.25,0-.65-.14-.83-.36-.18-.25-.25-.47-.25-.79,0-.22.07-.47.18-.72,2.7-5.33,4.86-10.51,6.91-16.2-1.22.29-2.7.54-3.85.54s-2.63-.36-3.49-1.01c-.47-.32-1.04-.83-1.04-1.33,0-.22.18-.4.4-.4.14,0,.4.14.68.32.9.61,1.84.83,3.06.83,1.44,0,3.28-.43,4.9-.94.43-1.22.72-2.12,1.01-3.2.14-.5.36-1.33.36-1.87,0-.72-.54-1.37-1.73-1.62-.54-.11-.61-.18-.61-.36s.25-.36.5-.47c.36-.11.68-.18.97-.18.61,0,2.12.5,3.02,1.22.36.29.61.68.61,1.04,0,.4-.22.79-.5,1.01-.4.32-.5.65-.76,1.22-.36.79-.68,1.76-1.04,2.74,1.33-.43,2.41-.86,3.64-1.44ZM667.61,46.78c0,1.37.79,2.41,1.84,2.95,1.37.72,3.02.76,4.79.76,1.26,0,2.7-.22,3.31-.36.54-.14.9-.22,1.48-.22.36,0,.76.07,1.12.22.54.22.72.65.72,1.01,0,.65-.29.97-1.55,1.15-1.48.22-2.74.25-3.92.25-2.92,0-5-.32-6.66-1.33-1.33-.83-2.27-2.3-2.27-3.78,0-.97.29-1.87.65-2.66.14-.32.4-.65.65-.65.18,0,.25.18.25.29,0,.18-.11.47-.14.61-.18.58-.25,1.22-.25,1.76ZM674.7,36.73c-1.91-.07-4.39.22-6.3,1.26-.11.04-.29.07-.4.07-.18,0-.29-.11-.29-.25,0-.18.11-.36.29-.5,2.23-1.66,4.9-2.2,7.42-2.09,1.19.07,2.56.32,3.38.72.68.32,1.04.76,1.01,1.33-.04.5-.43.79-.86.76-.25,0-.5-.07-.79-.18-.43-.14-.68-.22-.97-.22-.36-.04-.79.04-1.4.32-.9.4-2.41,1.48-3.63,2.3-.25.14-.43.18-.58.18-.18,0-.25-.11-.25-.29,0-.14.14-.29.32-.47.83-.72,2.3-1.91,3.1-2.56.29-.25.29-.36-.04-.4Z"/>
    <path class="st0" d="M693.39,40.73c0,.11-.11.29-.18.47-.32.9-.43,1.51-.43,2.16,0,3.74,4.1,4.9,8.24,4.9,2.88,0,5.69-.36,6.7-.65.65-.18,1.37-.4,1.98-.4,1.01,0,1.98.36,1.98,1.15,0,1.08-.65,1.3-1.98,1.51-1.19.18-4.9.61-7.59.61-4.82,0-10.51-1.15-10.51-6.73,0-.86.18-1.8.72-2.84.14-.29.36-.54.58-.54.25,0,.5.14.5.36ZM700.12,31.84c-2.66.18-5.26-.54-6.62-2.27-.11-.14-.11-.29-.11-.4s.18-.32.32-.32.4.14.54.25c1.19.86,3.06,1.12,4.57,1.12.68,0,1.98-.11,3.38-.29,1.44-.22,2.63-.47,3.74-.83.32-.11.79-.18,1.15-.18.25,0,.76.07,1.12.22.54.22.79.61.79,1.12,0,.61-.25.97-1.44,1.08-1.62.14-2.77.4-3.92.65-.83.18-1.98.61-2.81,1.08-1.44.83-2.92,1.87-4.25,2.88-.25.18-.43.18-.58.18s-.32-.14-.32-.29c0-.22.18-.43.29-.54,1.37-1.3,3.1-2.63,4.17-3.38l-.04-.07ZM710.34,25.4c1.12.4,2.02.9,2.66,1.44.76.61,1.55,1.55,1.55,2.34,0,.65-.36,1.04-.9,1.04-.5,0-.72-.29-1.19-1.19-.43-.83-1.58-2.12-2.66-2.92-.14-.11-.22-.25-.22-.36,0-.22.18-.4.4-.4.11,0,.25,0,.36.04ZM713.58,23.24c.83.22,1.87.72,2.56,1.19.83.58,1.62,1.48,1.62,2.3,0,.61-.43.97-.83.97-.43,0-.68-.14-1.19-.97-.58-1.01-1.76-2.16-2.95-2.88-.11-.07-.14-.25-.14-.36,0-.18.14-.36.36-.36.11,0,.32.04.58.11Z"/>
    <path class="st0" d="M728.35,41.45c0,8.64.04,11.77.04,12.67,0,.76-.47,1.12-1.37,1.12-.65,0-1.01-.25-1.01-.97,0-.65.07-3.02.18-12.74.04-2.16.04-4.28.07-6.44-1.26,1.87-2.63,3.6-4.25,5.26-.14.14-.58-.18-.43-.36,2.7-3.56,5.22-9.03,6.55-13.61.4-1.4.72-2.74.83-3.96,2.56.72,3.63,1.22,3.63,1.62,0,.36-.4.54-1.44.72-1.19,3.38-2.45,6.23-3.92,8.75,1.87.29,2.23.47,2.23.83,0,.29-.14.47-1.12.86v6.26ZM729.57,54.3c2.66-1.98,4.64-4.25,6.52-7.13.5-.76.86-1.51,1.08-2.16,2.23.97,3.1,1.48,3.1,1.84,0,.32-.54.5-1.48.5-2.56,3.38-5.25,5.58-8.89,7.42-.18.11-.5-.32-.32-.47ZM745.16,28.96c0-2.88-.04-4.5-.22-5.79,3.13.32,3.64.54,3.64.94,0,.25-.22.5-1.19.94v6.62h2.34c1.4-1.66,1.66-1.87,1.84-1.87.22,0,.5.22,2.02,1.48.72.58.79.76.79.97s-.14.32-.5.32h-6.48v9.65h2.92c1.48-1.76,1.73-2.02,1.98-2.02.18,0,.5.25,2.02,1.55.76.65.83.83.83,1.04s-.14.32-.47.32h-21.99c-.94,0-1.48.04-2.48.18l-.36-1.33c1.15.22,1.8.25,2.81.25h3.38v-9.65h-2.16c-.86,0-1.44.04-2.41.18l-.36-1.33c1.12.18,1.76.25,2.74.25h2.2v-2.56c0-2.95,0-4.61-.18-5.94,3.13.32,3.56.54,3.56.97,0,.22-.22.47-1.19.94v6.59h6.95v-2.7ZM745.16,32.56h-6.95v9.65h6.95v-9.65ZM744.65,45.34c5.11,2.16,8.17,5.22,8.17,7.6,0,.9-.36,1.58-1.22,1.58-.5,0-.86-.32-1.33-1.4-1.19-2.77-2.99-4.97-5.87-7.42-.18-.14.04-.43.25-.36Z"/>
    <path class="st0" d="M775.61,46.88c1.33,1.55,2.99,2.77,4.82,3.67,2.12-1.3,3.49-2.45,4.82-3.85.32-.36.54-.65.79-1.12,1.8,1.26,2.3,1.8,2.3,2.09,0,.22-.14.36-.47.36s-.58-.07-.9-.14c-1.8,1.22-3.6,2.2-5.83,2.99.5.22,1.01.43,1.55.61,2.81,1.01,6.12,1.37,9.14,1.37.18,0,.18.29,0,.32-.86.22-1.15.43-1.55,1.51-.11.4-.29.54-.61.54-.29,0-1.12-.11-1.62-.22-2.56-.54-4.82-1.3-6.8-2.3-2.34-1.22-4.57-2.95-6.59-5.83h-5.72v5.04c2.74-.36,5.54-.86,7.74-1.44.22-.04.4.4.18.47-3.78,1.58-8.67,2.88-12.81,3.6-.29.94-.43,1.08-.68,1.08-.32,0-.47-.32-1.22-3.2.68.04,1.3.04,2.16-.04.79-.07,1.66-.14,2.52-.22v-11.84c-2.05,1.84-4.43,3.31-7.38,4.54-.22.07-.47-.36-.29-.47,3.96-2.34,7.63-5.87,9.68-9.36h-5.79c-.86,0-1.48.04-2.52.22l-.32-1.37c1.15.22,1.8.25,2.84.25h11.41v-2.99h-7.59c-.79,0-1.37.04-2.34.22l-.36-1.37c1.04.18,1.69.25,2.66.25h7.63v-2.84h-10.11c-.83,0-1.4.04-2.41.22l-.36-1.37c1.08.22,1.76.25,2.77.25h6.66c-.22-.14-.43-.4-.54-.76-.4-1.22-.86-2.09-2.09-3.38-.14-.14.04-.32.22-.29,2.56.65,4.07,1.94,4.07,3.2,0,.54-.32,1.01-.76,1.22h6.84c.79-1.22,1.08-1.84,1.48-2.66.29-.61.5-1.22.65-1.8,2.59,1.08,3.06,1.3,3.06,1.69,0,.36-.43.5-1.51.58-.76.68-1.55,1.48-2.52,2.2h6.3c1.3-1.51,1.44-1.66,1.66-1.66s.4.14,1.87,1.3c.65.5.72.72.72.94,0,.18-.11.32-.47.32h-13.35v2.84h7.59c1.19-1.37,1.37-1.48,1.58-1.48.18,0,.47.11,1.73,1.15.58.5.68.68.68.86,0,.25-.11.36-.47.36h-11.12v2.99h10.87c1.33-1.55,1.51-1.66,1.73-1.66.18,0,.4.11,1.87,1.3.65.54.72.72.72.9,0,.22-.11.36-.47.36h-10.04c1.4,1.91,3.13,3.49,5,4.54,1.76,1.01,4.03,1.8,6.7,2.16.18.04.07.32-.11.36-.68.14-.97.36-1.3,1.3-.18.5-.29.65-.54.65-.18,0-.68-.14-1.22-.4-1.66-.76-3.82-1.98-5.36-3.35v2.09c0,2.99.07,3.82.07,4.18,0,.61-.36.94-1.19.94-.61,0-.86-.18-.94-.61h-6.8ZM771.37,35.04c-.86,1.26-1.8,2.52-2.84,3.63l.54.29h5.44v-1.26c0-.47-.04-1.08-.14-2.05,2.77.29,3.13.54,3.13.9,0,.22-.18.43-1.01.76v1.66h5.72l.54-.54c-.86-1.08-1.62-2.2-2.27-3.38h-9.11ZM782.42,39.87h-13.46v2.56h13.46v-2.56ZM768.96,43.32v2.66h13.46v-2.66h-13.46Z"/>
    <path class="st0" d="M804.99,37.42c1.48-1.15,3.2-1.8,4.39-1.8,1.87,0,3.1,1.08,3.2,3.2.04.43.07,1.01.07,1.48,2.66-1.58,5.36-3.2,7.45-4.61.32-.22.4-.4.4-.61,0-.18-.11-.32-.32-.47-.32-.22-.72-.36-1.26-.43-.22-.04-.32-.04-.32-.22,0-.32.68-.58,1.44-.58.86,0,1.84.36,2.66.86.94.58,1.48,1.01,1.48,1.69,0,.47-.32.72-.72.76-.25.04-.58.07-1.08.29-1.73.72-4,1.8-6.55,3.17-.97.54-2.09,1.19-3.17,1.8,0,1.51.04,3.13.04,5.18,0,.97-.5,1.37-.97,1.37-.5,0-1.01-.4-1.01-.97,0-1.12.07-2.48.11-4.5-2.05,1.15-5,2.81-5,5.4,0,1.62,1.26,2.66,4.17,2.66,1.73,0,3.92-.11,5.44-.29.86-.11,1.37-.22,1.98-.36.47-.11.86-.22,1.37-.22,1.3,0,2.2.72,2.2,1.44,0,.65-.5,1.01-2.09,1.15-1.76.14-3.89.22-6.8.22-5.72,0-7.49-1.8-7.49-4.39,0-3.31,2.88-5.25,6.26-7.31v-1.51c.04-2.48-.65-3.13-1.76-3.13-1.58,0-3.17,1.04-4.57,2.38-1.26,1.22-1.98,2.09-3.24,3.85-.22.32-.68.54-.9.54-.5,0-.97-.47-.97-1.12,0-.58.25-.94,1.04-1.76,1.26-1.3,2.63-2.92,3.64-4.36,1.01-1.44,1.73-2.7,2.59-4.32-.94.11-2.2.29-3.46.29-1.91,0-2.88-.47-3.89-1.94-.11-.18-.18-.4-.18-.5,0-.22.14-.47.32-.47.22,0,.4.14.58.32.94.9,1.66,1.04,3.02,1.04,1.26,0,3.06-.25,4.46-.58.5-1.08.76-1.76,1.08-2.74.11-.36.25-.9.25-1.33,0-.58-.68-.97-2.23-.97-.25,0-.4-.04-.4-.18s.11-.36.4-.54c.36-.22.94-.32,1.33-.32.79,0,1.51.29,2.12.58.61.29,1.58.9,1.58,1.62,0,.36-.14.61-.43.79-.22.14-.58.43-.94,1.15-.22.4-.54,1.01-.83,1.55.94-.29,2.16-.72,3.31-1.37.58-.32,1.22-.65,1.83-.65.72,0,1.19.43,1.19.9,0,.54-.25.76-1.15,1.12-1.84.72-4.1,1.44-6.19,1.91-1.15,2.02-2.27,3.92-3.56,5.76l.07.07Z"/>
  </g>
</svg>