<?xml version="1.0" encoding="UTF-8"?>
<svg id="_レイヤー_1" data-name="レイヤー_1" xmlns="http://www.w3.org/2000/svg" version="1.1" viewBox="0 0 147.97 155.62">
  <!-- Generator: Adobe Illustrator 29.4.0, SVG Export Plug-In . SVG Version: 2.1.0 Build 152)  -->
  <defs>
    <style>
      .st0 {
        fill: #222;
      }
    </style>
  </defs>
  <path class="st0" d="M56.43,154.65c-.52-1.47-.69-3.01-.88-4.53-1.77.58-8.77.58-10.54,0-.2,1.52-.36,3.06-.88,4.53-.09.31-.17.65-.19.98h12.7c-.02-.33-.1-.66-.19-.98Z"/>
  <path class="st0" d="M73.98,0C33.12,0,0,33.01,0,73.73v75.6c0,3.46,2.82,6.28,6.27,6.28h12.1c-.7-.43-1.29-1.06-1.7-1.81-.47-.88-.8-2.48-.65-4.46-.98-.33-1.94-.78-2.92-1.43-1.53-1.02-3.92-2.97-2.98-7.13.59-2.59,2.8-3.86,3.52-2.95.76.97-1.17,2.03-.92,4.31.24,2.23,1.92,3.5,3.89,4.2.03-.11.06-.21.09-.32.65-1.88,1.81-3.06,1.97-5.11.3-3.69,1.99-6.2,1.78-6.59-.26-.5-1.88-1.54-2.35-3.4-.41-1.63-.12-2.67.24-3.92-.31-1.13-.5-2.1-.55-3.22-.04-1.06.08-3.33.91-3.56.61-.17,2.54,2.32,3.58,2.86.47-.12,1.1-.2,1.77-.2s1.31.07,1.77.2c1.04-.54,2.97-3.03,3.58-2.86.84.23.96,2.5.91,3.56-.05,1.13-.25,2.1-.55,3.22.36,1.24.65,2.29.24,3.92-.47,1.86-2.08,2.9-2.35,3.4-.2.39,1.49,2.9,1.78,6.59.16,2.05,1.33,3.23,1.97,5.11,1.18,3.43.75,6.44.04,7.77-.4.76-1,1.38-1.7,1.81h10.33c.31-.24.62-.46.86-.66.25-1.18-.43-4.4-.68-5.32-.51-1.62-.46-3.96-.27-4.93-1.06-4.22-.77-7.35,2.65-10.49-.38-.86-.54-1.56-.5-2.49-1.48-2.16.03-5.35.22-6.72-.49-.95-1.37-1.19-.87-2.89.14-.49-.07-.93-.19-1.38-.54-1.8-.78-8.09,1.46-6.72,1.9.97,4.12,4.62,4.45,5.83.11.41.09.87.73,1.06.78-.13,3.8-.13,4.58,0,.64-.19.61-.64.73-1.06.34-1.21,2.55-4.86,4.45-5.83,2.24-1.37,2,4.91,1.46,6.72-.12.45-.33.9-.19,1.38.5,1.7-.38,1.93-.87,2.89.19,1.36,1.7,4.56.22,6.72.05.93-.11,1.64-.5,2.49,3.43,3.14,3.71,6.28,2.65,10.49.2.97.25,3.3-.27,4.93-.25.92-.94,4.15-.68,5.32.25.2.56.43.86.66h6.85l1.66-47.39-51.5-24.96s3.09-1.2,3.76-1.58l2.38.78c1.01-.13,1.94.18,1.94.18,0,0-1.88-1.52-2.67-3.19-.87-1.86-.52-3.78-.92-4.06-.84-.58-2.2-.74-3.32-1.11-.89-.29-.18-1.8,1.59-1.53.44.07,2.04.47,2.04.47.31.1.52-1.8.3-2.49-.38-1.18-1.37-1.29-2.34-1.54-.97-.25-1.57-.55-1.93-1.01-.36-.46-.63-1.4-.07-1.66.56-.26,1.03-1.33,1.03-1.33.98-1.92,2.6-1.95,2.6-1.95,0,0-.4-.23-1.06-1.43-.85-1.55.51-1.03.51-1.03.96.41,2.25.56,3.62,1.43,2.67,1.69,4.78,8.16,4.78,8.16,1.06-5.67,7.14-6.73,10.15-5.67,2.7.95,6.08,4.11,5.01,8.46-.78,3.17-2.82,4.18-3.86,4.5-.05,0-2.06.34-3.74-.47-1.25-.6-1.63-1.73-1.75-2.35-.19-1.04.07-2.12.66-2.75.55-.57,1.32-.84,2.07-.7.62.11,1.11.5,1.35,1.05.49,1.15-.24,1.86-.27,1.89-.19.17-.2.47-.03.66.17.19.47.21.66.03.05-.05,1.26-1.17.5-2.94-.36-.85-1.11-1.43-2.04-1.6-1.06-.19-2.14.17-2.91.98-.81.85-1.15,2.21-.91,3.56.25,1.35,1.07,2.46,2.26,3.03,1.07.51,2.23.63,3.07.63.13,0,.25,0,.36,0-.16.64-.58,1.67-1.68,3.14-2.1,2.82-5.79,2.85-5.79,2.85h-2.49l39.51,12.91.24-28.56-35.59-18.3,3.82-1.56,32.09,10.98.98-35.35,5.17-4.71.45,34.77,24.44-10.37c-.23,0-.44.01-.67-.02-5.63-.47-8.04-4.32-8.46-5.42-1.24-.14-3.21-.57-4.17-1.52-.26-.25-1.38-1.88.23-2.65-1.59-.71-3.73-4.84-.38-4.55-.41-.57-.81-1.31-.89-1.94-.67-4.39,3.84-5.72,4.3-5.57.5.14.13.63-.15,1.44-2.59,7.34,3.42,10.92,3.39,10.97,3.92,2.11,8.44.34,9.65-2.78.93-1.92,1.8-2.49,3.37-2.51,2.59-.05,2.8,2.37,3.79,2.38.35,0,1.43.23,1.48.61.03.22-.36.09-1.31.61-.96.52-1.26,1.06-1.51,1.46-.72,1.33-.96,3.36-1.11,4.13-.21,1.13-.92,2.33-1.98,3.32l3.97,1.8-33.08,17.52.6,24.61,48.55-20.95,4.02,2.33-51.9,29.57,2.5,58.28h7.85c-1.42-1.37-2.64-3.13-3.09-5.13-.74-3.27,1.2-7.95,3.58-9.44-1.19-5.03-1.6-10.69-.64-15.5.85-4.27,2.69-6.04,2.69-7.01,0-.85-.67-3.63-.67-4.58-.3.25-.94.7-1.52.49-.7-.26-.71-1.71-.98-3.66-.23-1.65-.7-2.51-.55-3.79.18-1.6,2.21-5.26,3.78-5.75.79-.24,1.44-.03,2,.19,1.04-.91,3.55-1.73,5.95-1.73s4.91.83,5.95,1.73c.57-.22,1.22-.44,2-.19,1.57.49,3.6,4.15,3.78,5.75.15,1.29-.32,2.14-.55,3.79-.27,1.95-.28,3.4-.98,3.66-.58.21-1.22-.24-1.52-.49,0,.94-.67,3.73-.67,4.58,0,.97,1.83,2.74,2.69,7.01.96,4.81.55,10.48-.64,15.5,2.37,1.49,4.32,6.16,3.58,9.44-.45,2-1.67,3.76-3.09,5.13h12.57s.04-.09.05-.13c-1.74-.96-3.58-3.25-3.58-5.64s.76-4.16,1.84-5.46c1.14-1.38,2.15-1.67,2.37-2.42.26-.91.55-2.14,1.12-2.95-.28-1.03-1.23-2.13-1.48-3.93-.26-1.83.39-5.16,1.61-5.48,1.05-.28,2.11,3.06,2.39,4.26.38,1.66.53,3.53.76,3.89.16-.04.38-.07.61-.07s.45.03.61.07c.23-.37.37-2.23.76-3.89.28-1.21,1.34-4.54,2.39-4.26,1.23.32,1.87,3.65,1.61,5.48-.26,1.81-1.2,2.9-1.48,3.93.57.81.86,2.03,1.12,2.95.21.75,1.22,1.04,2.37,2.42,1.08,1.3,1.84,2.98,1.84,5.46s-1.85,4.68-3.58,5.64c.01.04.03.09.05.13h7.18c3.45,0,6.27-2.83,6.27-6.28v-75.6C147.97,33.01,114.84,0,73.98,0Z"/>
</svg>