<svg width="24" height="24" viewBox="0 0 24 24" fill="none" xmlns="http://www.w3.org/2000/svg">
<path d="M12 16.8886C14.7 16.8886 16.8889 14.6997 16.8889 11.9997C16.8889 9.29967 14.7 7.11084 12 7.11084C9.29995 7.11084 7.11112 9.29967 7.11112 11.9997C7.11112 14.6997 9.29995 16.8886 12 16.8886Z" stroke="#222222" stroke-width="1.5" stroke-linecap="round" stroke-linejoin="round"/>
<path d="M1 16.8889V7.11111C1 3.73604 3.73604 1 7.11111 1H16.8889C20.2639 1 23 3.73604 23 7.11111V16.8889C23 20.2639 20.2639 23 16.8889 23H7.11111C3.73604 23 1 20.2639 1 16.8889Z" stroke="#222222" stroke-width="1.5"/>
<path d="M18.7222 5.29165L18.7355 5.27686" stroke="#222222" stroke-width="2" stroke-linecap="round" stroke-linejoin="round"/>
</svg>
